Merritest-HeavyItalic.ufo
<glyph name="quotedbl" format="1">
  <advance width="1110"/>
  <unicode hex="0022"/>
  <outline>
    <contour>
      <point x="195" y="966" type="line"/>
      <point x="276" y="1687" type="line"/>
      <point x="563" y="1687" type="line"/>
      <point x="395" y="966" type="line"/>
    </contour>
    <contour>
      <point x="714" y="966" type="line"/>
      <point x="795" y="1687" type="line"/>
      <point x="1082" y="1687" type="line"/>
      <point x="914" y="966" type="line"/>
    </contour>
  </outline>
</glyph>
<glyph name="ampersand" format="1">
  <advance width="1812"/>
  <unicode hex="0026"/>
  <outline>
    <contour>
      <point x="71" y="340" type="curve" smooth="yes"/>
      <point x="71" y="586"/>
      <point x="254" y="696"/>
      <point x="461" y="783" type="curve"/>
      <point x="418" y="888"/>
      <point x="382" y="1014"/>
      <point x="382" y="1111" type="curve" smooth="yes"/>
      <point x="382" y="1402"/>
      <point x="612" y="1569"/>
      <point x="925" y="1569" type="curve" smooth="yes"/>
      <point x="1223" y="1569"/>
      <point x="1357" y="1431"/>
      <point x="1357" y="1265" type="curve" smooth="yes"/>
      <point x="1357" y="1003"/>
      <point x="1092" y="894"/>
      <point x="844" y="784" type="curve"/>
      <point x="969" y="559"/>
      <point x="1037" y="475"/>
      <point x="1152" y="349" type="curve" smooth="yes"/>
      <point x="1163" y="336"/>
      <point x="1183" y="317"/>
      <point x="1206" y="296" type="curve"/>
      <point x="1250" y="355"/>
      <point x="1275" y="427"/>
      <point x="1275" y="512" type="curve" smooth="yes"/>
      <point x="1275" y="542"/>
      <point x="1274" y="570"/>
      <point x="1272" y="595" type="curve"/>
      <point x="1249" y="595" type="line" smooth="yes"/>
      <point x="1184" y="595"/>
      <point x="1123" y="581"/>
      <point x="1094" y="557" type="curve"/>
      <point x="1094" y="783" type="line"/>
      <point x="1112" y="801"/>
      <point x="1161" y="832"/>
      <point x="1249" y="832" type="curve" smooth="yes"/>
      <point x="1324" y="832"/>
      <point x="1366" y="816"/>
      <point x="1458" y="816" type="curve" smooth="yes"/>
      <point x="1569" y="816"/>
      <point x="1601" y="845"/>
      <point x="1620" y="968" type="curve"/>
      <point x="1733" y="968" type="line"/>
      <point x="1792" y="787"/>
      <point x="1738" y="578"/>
      <point x="1579" y="578" type="curve" smooth="yes"/>
      <point x="1547" y="578" type="line"/>
      <point x="1547" y="556" type="line" smooth="yes"/>
      <point x="1547" y="402"/>
      <point x="1469" y="277"/>
      <point x="1351" y="182" type="curve"/>
      <point x="1357" y="179" type="line" smooth="yes"/>
      <point x="1414" y="151"/>
      <point x="1512" y="136"/>
      <point x="1573" y="144" type="curve"/>
      <point x="1572" y="19" type="line"/>
      <point x="1503" y="-10"/>
      <point x="1436" y="-20"/>
      <point x="1284" y="-20" type="curve" smooth="yes"/>
      <point x="1186" y="-20"/>
      <point x="1109" y="-5"/>
      <point x="1046" y="22" type="curve"/>
      <point x="924" y="-17"/>
      <point x="794" y="-37"/>
      <point x="676" y="-37" type="curve" smooth="yes"/>
      <point x="321" y="-37"/>
      <point x="71" y="106"/>
    </contour>
    <contour>
      <point x="778" y="915" type="curve"/>
      <point x="925" y="987"/>
      <point x="1036" y="1081"/>
      <point x="1036" y="1249" type="curve" smooth="yes"/>
      <point x="1036" y="1339"/>
      <point x="1010" y="1446"/>
      <point x="919" y="1446" type="curve" smooth="yes"/>
      <point x="764" y="1446"/>
      <point x="722" y="1328"/>
      <point x="722" y="1177" type="curve" smooth="yes"/>
      <point x="722" y="1077"/>
      <point x="749" y="986"/>
    </contour>
    <contour>
      <point x="417" y="382" type="curve" smooth="yes"/>
      <point x="417" y="207"/>
      <point x="541" y="104"/>
      <point x="724" y="104" type="curve" smooth="yes"/>
      <point x="788" y="104"/>
      <point x="849" y="110"/>
      <point x="905" y="122" type="curve"/>
      <point x="749" y="268"/>
      <point x="654" y="436"/>
      <point x="544" y="621" type="curve"/>
      <point x="467" y="559"/>
      <point x="417" y="483"/>
    </contour>
  </outline>
</glyph>
<glyph name="quotesingle" format="1">
  <advance width="591"/>
  <unicode hex="0027"/>
  <outline>
    <contour>
      <point x="195" y="966" type="line"/>
      <point x="276" y="1687" type="line"/>
      <point x="563" y="1687" type="line"/>
      <point x="395" y="966" type="line"/>
    </contour>
  </outline>
</glyph>
<glyph name="asterisk" format="1">
  <advance width="1366"/>
  <unicode hex="002A"/>
  <outline>
    <contour>
      <point x="317" y="785" type="line"/>
      <point x="221" y="993" type="line"/>
      <point x="564" y="1131" type="line"/>
      <point x="624" y="1151" type="line"/>
      <point x="572" y="1169" type="line"/>
      <point x="252" y="1309" type="line"/>
      <point x="393" y="1513" type="line"/>
      <point x="655" y="1295" type="line"/>
      <point x="697" y="1256" type="line"/>
      <point x="691" y="1318" type="line"/>
      <point x="684" y="1673" type="line"/>
      <point x="936" y="1672" type="line"/>
      <point x="853" y="1314" type="line"/>
      <point x="838" y="1261" type="line"/>
      <point x="884" y="1297" type="line"/>
      <point x="1194" y="1515" type="line"/>
      <point x="1290" y="1307" type="line"/>
      <point x="946" y="1169" type="line"/>
      <point x="886" y="1149" type="line"/>
      <point x="939" y="1130" type="line"/>
      <point x="1259" y="991" type="line"/>
      <point x="1118" y="787" type="line"/>
      <point x="855" y="1004" type="line"/>
      <point x="813" y="1046" type="line"/>
      <point x="819" y="982" type="line"/>
      <point x="826" y="627" type="line"/>
      <point x="574" y="628" type="line"/>
      <point x="656" y="986" type="line"/>
      <point x="672" y="1040" type="line"/>
      <point x="626" y="1002" type="line"/>
    </contour>
  </outline>
</glyph>
<glyph name="period" format="1">
  <advance width="556"/>
  <unicode hex="002E"/>
  <outline>
    <contour>
      <point x="61" y="141" type="curve" smooth="yes"/>
      <point x="61" y="266"/>
      <point x="161" y="341"/>
      <point x="252" y="341" type="curve" smooth="yes"/>
      <point x="351" y="341"/>
      <point x="400" y="262"/>
      <point x="400" y="180" type="curve" smooth="yes"/>
      <point x="400" y="44"/>
      <point x="294" y="-20"/>
      <point x="198" y="-20" type="curve" smooth="yes"/>
      <point x="123" y="-20"/>
      <point x="61" y="49"/>
    </contour>
  </outline>
</glyph>
<glyph name="four" format="1">
  <advance width="1264"/>
  <unicode hex="0034"/>
  <outline>
    <contour>
      <point x="42" y="0" type="line"/>
      <point x="-24" y="84" type="line"/>
      <point x="218" y="450"/>
      <point x="403" y="801"/>
      <point x="658" y="1256" type="curve"/>
      <point x="955" y="1256" type="line"/>
      <point x="1037" y="1167" type="line"/>
      <point x="380" y="219" type="line"/>
      <point x="337" y="153" type="line"/>
      <point x="693" y="182" type="line"/>
      <point x="737" y="491" type="line"/>
      <point x="1040" y="549" type="line"/>
      <point x="999" y="185" type="line"/>
      <point x="1182" y="200" type="line"/>
      <point x="1155" y="0" type="line"/>
      <point x="965" y="0" type="line"/>
      <point x="918" y="-375" type="line"/>
      <point x="619" y="-375" type="line"/>
      <point x="668" y="0" type="line"/>
    </contour>
  </outline>
</glyph>
<glyph name="five" format="1">
  <advance width="1116"/>
  <unicode hex="0035"/>
  <outline>
    <contour>
      <point x="61" y="-185" type="line"/>
      <point x="82" y="-191"/>
      <point x="133" y="-201"/>
      <point x="170" y="-201" type="curve" smooth="yes"/>
      <point x="510" y="-201"/>
      <point x="636" y="18"/>
      <point x="636" y="194" type="curve" smooth="yes"/>
      <point x="636" y="320"/>
      <point x="565" y="420"/>
      <point x="361" y="420" type="curve" smooth="yes"/>
      <point x="259" y="420"/>
      <point x="201" y="392"/>
      <point x="154" y="367" type="curve"/>
      <point x="93" y="414" type="line"/>
      <point x="274" y="1146" type="line"/>
      <point x="811" y="1146" type="line"/>
      <point x="833" y="1162" type="line"/>
      <point x="1051" y="1162" type="line"/>
      <point x="996" y="934" type="line"/>
      <point x="532" y="934" type="line"/>
      <point x="428" y="568" type="line"/>
      <point x="456" y="580"/>
      <point x="527" y="596"/>
      <point x="644" y="596" type="curve" smooth="yes"/>
      <point x="841" y="596"/>
      <point x="988" y="462"/>
      <point x="988" y="248" type="curve" smooth="yes"/>
      <point x="988" y="-155"/>
      <point x="662" y="-354"/>
      <point x="210" y="-354" type="curve" smooth="yes"/>
      <point x="158" y="-354"/>
      <point x="61" y="-336"/>
      <point x="36" y="-329" type="curve"/>
    </contour>
  </outline>
</glyph>
<glyph name="six" format="1">
  <advance width="1208"/>
  <unicode hex="0036"/>
  <outline>
    <contour>
      <point x="530" y="-20" type="curve" smooth="yes"/>
      <point x="266" y="-20"/>
      <point x="87" y="141"/>
      <point x="87" y="529" type="curve" smooth="yes"/>
      <point x="87" y="1013"/>
      <point x="469" y="1434"/>
      <point x="974" y="1571" type="curve"/>
      <point x="1028" y="1437" type="line"/>
      <point x="771" y="1360"/>
      <point x="547" y="1118"/>
      <point x="464" y="855" type="curve"/>
      <point x="516" y="921"/>
      <point x="634" y="995"/>
      <point x="773" y="995" type="curve" smooth="yes"/>
      <point x="1005" y="995"/>
      <point x="1112" y="831"/>
      <point x="1112" y="611" type="curve" smooth="yes"/>
      <point x="1112" y="275"/>
      <point x="869" y="-20"/>
    </contour>
    <contour>
      <point x="576" y="116" type="curve" smooth="yes"/>
      <point x="739" y="116"/>
      <point x="793" y="358"/>
      <point x="793" y="549" type="curve" smooth="yes"/>
      <point x="793" y="748"/>
      <point x="736" y="812"/>
      <point x="655" y="812" type="curve" smooth="yes"/>
      <point x="552" y="812"/>
      <point x="464" y="736"/>
      <point x="431" y="683" type="curve"/>
      <point x="412" y="598"/>
      <point x="404" y="522"/>
      <point x="404" y="450" type="curve" smooth="yes"/>
      <point x="404" y="253"/>
      <point x="439" y="116"/>
    </contour>
  </outline>
</glyph>
<glyph name="eight" format="1">
  <advance width="1256"/>
  <unicode hex="0038"/>
  <outline>
    <contour>
      <point x="99" y="364" type="curve" smooth="yes"/>
      <point x="99" y="548"/>
      <point x="251" y="710"/>
      <point x="423" y="812" type="curve"/>
      <point x="319" y="900"/>
      <point x="237" y="1026"/>
      <point x="237" y="1179" type="curve" smooth="yes"/>
      <point x="237" y="1401"/>
      <point x="440" y="1550"/>
      <point x="744" y="1550" type="curve" smooth="yes"/>
      <point x="983" y="1550"/>
      <point x="1178" y="1440"/>
      <point x="1178" y="1218" type="curve" smooth="yes"/>
      <point x="1178" y="1035"/>
      <point x="1038" y="909"/>
      <point x="878" y="814" type="curve"/>
      <point x="1024" y="712"/>
      <point x="1144" y="566"/>
      <point x="1144" y="398" type="curve" smooth="yes"/>
      <point x="1144" y="132"/>
      <point x="866" y="-20"/>
      <point x="587" y="-20" type="curve" smooth="yes"/>
      <point x="369" y="-20"/>
      <point x="99" y="69"/>
    </contour>
    <contour>
      <point x="729" y="929" type="curve"/>
      <point x="827" y="990"/>
      <point x="921" y="1075"/>
      <point x="921" y="1233" type="curve" smooth="yes"/>
      <point x="921" y="1395"/>
      <point x="822" y="1431"/>
      <point x="733" y="1431" type="curve" smooth="yes"/>
      <point x="624" y="1431"/>
      <point x="538" y="1385"/>
      <point x="538" y="1215" type="curve" smooth="yes"/>
      <point x="538" y="1107"/>
      <point x="606" y="1017"/>
    </contour>
    <contour>
      <point x="385" y="368" type="curve" smooth="yes"/>
      <point x="385" y="257"/>
      <point x="447" y="106"/>
      <point x="592" y="106" type="curve" smooth="yes"/>
      <point x="717" y="106"/>
      <point x="838" y="178"/>
      <point x="838" y="340" type="curve" smooth="yes"/>
      <point x="838" y="488"/>
      <point x="716" y="589"/>
      <point x="568" y="704" type="curve"/>
      <point x="463" y="635"/>
      <point x="385" y="531"/>
    </contour>
  </outline>
</glyph>
<glyph name="semicolon" format="1">
  <advance width="556"/>
  <unicode hex="003B"/>
  <outline>
    <contour>
      <point x="87" y="78" type="curve"/>
      <point x="94" y="142" type="line"/>
      <point x="228" y="295" type="line"/>
      <point x="391" y="257"/>
      <point x="441" y="118"/>
      <point x="441" y="-4" type="curve" smooth="yes"/>
      <point x="441" y="-228"/>
      <point x="283" y="-417"/>
      <point x="47" y="-521" type="curve"/>
      <point x="-16" y="-432" type="line"/>
      <point x="-13" y="-411" type="line"/>
      <point x="97" y="-362"/>
      <point x="189" y="-213"/>
      <point x="189" y="-88" type="curve" smooth="yes"/>
      <point x="189" y="0"/>
      <point x="145" y="80"/>
    </contour>
    <contour>
      <point x="167" y="950" type="curve" smooth="yes"/>
      <point x="167" y="1075"/>
      <point x="267" y="1150"/>
      <point x="358" y="1150" type="curve" smooth="yes"/>
      <point x="457" y="1150"/>
      <point x="506" y="1071"/>
      <point x="506" y="989" type="curve" smooth="yes"/>
      <point x="506" y="853"/>
      <point x="400" y="789"/>
      <point x="304" y="789" type="curve" smooth="yes"/>
      <point x="229" y="789"/>
      <point x="167" y="858"/>
    </contour>
  </outline>
</glyph>
<glyph name="equal" format="1">
  <advance width="1063"/>
  <unicode hex="003D"/>
  <outline>
    <contour>
      <point x="149" y="838" type="line"/>
      <point x="172" y="1035" type="line"/>
      <point x="987" y="1035" type="line"/>
      <point x="964" y="838" type="line"/>
    </contour>
    <contour>
      <point x="76" y="309" type="line"/>
      <point x="99" y="506" type="line"/>
      <point x="914" y="506" type="line"/>
      <point x="891" y="309" type="line"/>
    </contour>
  </outline>
</glyph>
<glyph name="B" format="1">
  <advance width="1396"/>
  <unicode hex="0042"/>
  <outline>
    <contour>
      <point x="-22" y="0" type="line"/>
      <point x="-13" y="106" type="line"/>
      <point x="127" y="136" type="line"/>
      <point x="294" y="1394" type="line"/>
      <point x="149" y="1420" type="line"/>
      <point x="162" y="1530" type="line"/>
      <point x="498" y="1530" type="line"/>
      <point x="615" y="1531"/>
      <point x="727" y="1546"/>
      <point x="857" y="1546" type="curve" smooth="yes"/>
      <point x="1249" y="1546"/>
      <point x="1329" y="1383"/>
      <point x="1335" y="1218" type="curve" smooth="yes"/>
      <point x="1343" y="1000"/>
      <point x="1215" y="865"/>
      <point x="959" y="803" type="curve"/>
      <point x="1190" y="808"/>
      <point x="1327" y="662"/>
      <point x="1327" y="500" type="curve" smooth="yes"/>
      <point x="1327" y="124"/>
      <point x="1074" y="-20"/>
      <point x="595" y="-20" type="curve" smooth="yes"/>
      <point x="498" y="-20"/>
      <point x="366" y="0"/>
      <point x="275" y="0" type="curve" smooth="yes"/>
    </contour>
    <contour>
      <point x="559" y="856" type="line"/>
      <point x="601" y="854"/>
      <point x="634" y="856"/>
      <point x="683" y="856" type="curve" smooth="yes"/>
      <point x="857" y="856"/>
      <point x="1013" y="954"/>
      <point x="1005" y="1192" type="curve"/>
      <point x="999" y="1340"/>
      <point x="921" y="1420"/>
      <point x="778" y="1420" type="curve" smooth="yes"/>
      <point x="748" y="1420"/>
      <point x="678" y="1416"/>
      <point x="633" y="1406" type="curve"/>
    </contour>
    <contour>
      <point x="461" y="128" type="line"/>
      <point x="513" y="115"/>
      <point x="596" y="105"/>
      <point x="638" y="105" type="curve" smooth="yes"/>
      <point x="858" y="105"/>
      <point x="969" y="217"/>
      <point x="960" y="466" type="curve" smooth="yes"/>
      <point x="954" y="636"/>
      <point x="872" y="719"/>
      <point x="665" y="719" type="curve" smooth="yes"/>
      <point x="588" y="719"/>
      <point x="564" y="716"/>
      <point x="540" y="714" type="curve"/>
    </contour>
  </outline>
</glyph>
<glyph name="D" format="1">
  <advance width="1505"/>
  <unicode hex="0044"/>
  <outline>
    <contour>
      <point x="-44" y="0" type="line"/>
      <point x="-32" y="106" type="line"/>
      <point x="126" y="136" type="line"/>
      <point x="294" y="1394" type="line"/>
      <point x="150" y="1420" type="line"/>
      <point x="161" y="1530" type="line"/>
      <point x="478" y="1530" type="line"/>
      <point x="591" y="1531"/>
      <point x="717" y="1546"/>
      <point x="835" y="1546" type="curve" smooth="yes"/>
      <point x="1318" y="1548"/>
      <point x="1488" y="1271"/>
      <point x="1488" y="921" type="curve" smooth="yes"/>
      <point x="1488" y="371"/>
      <point x="1228" y="-16"/>
      <point x="592" y="-16" type="curve" smooth="yes"/>
      <point x="573" y="-16"/>
      <point x="536" y="-12"/>
      <point x="517" y="-9" type="curve"/>
      <point x="473" y="-5"/>
      <point x="387" y="-1"/>
      <point x="324" y="0" type="curve"/>
    </contour>
    <contour>
      <point x="477" y="136" type="line"/>
      <point x="516" y="122"/>
      <point x="574" y="111"/>
      <point x="613" y="111" type="curve" smooth="yes"/>
      <point x="983" y="111"/>
      <point x="1111" y="547"/>
      <point x="1111" y="886" type="curve" smooth="yes"/>
      <point x="1111" y="1266"/>
      <point x="1014" y="1420"/>
      <point x="802" y="1420" type="curve" smooth="yes"/>
      <point x="722" y="1420"/>
      <point x="662" y="1405"/>
      <point x="643" y="1394" type="curve"/>
    </contour>
  </outline>
</glyph>
<glyph name="F" format="1">
  <advance width="1215"/>
  <unicode hex="0046"/>
  <outline>
    <contour>
      <point x="-21" y="0" type="line"/>
      <point x="-10" y="106" type="line"/>
      <point x="128" y="136" type="line"/>
      <point x="292" y="1394" type="line"/>
      <point x="147" y="1420" type="line"/>
      <point x="161" y="1530" type="line"/>
      <point x="1297" y="1530" type="line"/>
      <point x="1253" y="1148" type="line"/>
      <point x="1032" y="1148" type="line"/>
      <point x="1013" y="1390" type="line"/>
      <point x="647" y="1408" type="line"/>
      <point x="572" y="859" type="line"/>
      <point x="1055" y="897" type="line"/>
      <point x="1028" y="662" type="line"/>
      <point x="552" y="701" type="line"/>
      <point x="480" y="136" type="line"/>
      <point x="807" y="106" type="line"/>
      <point x="799" y="0" type="line"/>
    </contour>
  </outline>
</glyph>
<glyph name="G" format="1">
  <advance width="1450"/>
  <unicode hex="0047"/>
  <outline>
    <contour>
      <point x="60" y="627" type="curve" smooth="yes"/>
      <point x="50" y="1175"/>
      <point x="338" y="1549"/>
      <point x="900" y="1549" type="curve" smooth="yes"/>
      <point x="1149" y="1549"/>
      <point x="1245" y="1511"/>
      <point x="1333" y="1490" type="curve"/>
      <point x="1395" y="1479" type="line"/>
      <point x="1327" y="1123" type="line"/>
      <point x="1080" y="1123" type="line"/>
      <point x="1072" y="1380" type="line"/>
      <point x="1025" y="1405"/>
      <point x="969" y="1420"/>
      <point x="903" y="1420" type="curve" smooth="yes"/>
      <point x="533" y="1420"/>
      <point x="433" y="1065"/>
      <point x="433" y="658" type="curve" smooth="yes"/>
      <point x="433" y="366"/>
      <point x="516" y="135"/>
      <point x="704" y="135" type="curve" smooth="yes"/>
      <point x="798" y="135"/>
      <point x="869" y="142"/>
      <point x="929" y="163" type="curve"/>
      <point x="978" y="590" type="line"/>
      <point x="776" y="607" type="line"/>
      <point x="795" y="753" type="line"/>
      <point x="1351" y="753" type="line"/>
      <point x="1265" y="84" type="line"/>
      <point x="1222" y="80"/>
      <point x="1134" y="67"/>
      <point x="1075" y="51" type="curve" smooth="yes"/>
      <point x="957" y="21"/>
      <point x="823" y="-16"/>
      <point x="637" y="-16" type="curve" smooth="yes"/>
      <point x="230" y="-16"/>
      <point x="66" y="287"/>
    </contour>
    <contour>
      <point x="1193" y="1271" type="line" smooth="yes"/>
      <point x="1184" y="1284"/>
      <point x="1174" y="1298"/>
      <point x="1163" y="1310" type="curve"/>
    </contour>
  </outline>
</glyph>
<glyph name="K" format="1">
  <advance width="1477"/>
  <unicode hex="004B"/>
  <outline>
    <contour>
      <point x="-31" y="0" type="line"/>
      <point x="-18" y="106" type="line"/>
      <point x="128" y="136" type="line"/>
      <point x="293" y="1394" type="line"/>
      <point x="148" y="1420" type="line"/>
      <point x="162" y="1530" type="line"/>
      <point x="837" y="1530" type="line"/>
      <point x="825" y="1420" type="line"/>
      <point x="645" y="1394" type="line"/>
      <point x="556" y="721" type="line"/>
      <point x="1180" y="1394" type="line"/>
      <point x="1035" y="1421" type="line"/>
      <point x="1046" y="1530" type="line"/>
      <point x="1547" y="1530" type="line"/>
      <point x="1535" y="1420" type="line"/>
      <point x="1418" y="1394" type="line"/>
      <point x="951" y="924" type="line"/>
      <point x="1011" y="834"/>
      <point x="1123" y="573"/>
      <point x="1178" y="465" type="curve" smooth="yes"/>
      <point x="1273" y="276"/>
      <point x="1330" y="161"/>
      <point x="1377" y="136" type="curve"/>
      <point x="1494" y="106" type="line"/>
      <point x="1482" y="0" type="line"/>
      <point x="1048" y="0" type="line"/>
      <point x="988" y="7"/>
      <point x="969" y="46"/>
      <point x="906" y="204" type="curve" smooth="yes"/>
      <point x="853" y="335"/>
      <point x="788" y="541"/>
      <point x="716" y="686" type="curve"/>
      <point x="527" y="495" type="line"/>
      <point x="480" y="136" type="line"/>
      <point x="654" y="106" type="line"/>
      <point x="645" y="0" type="line"/>
    </contour>
  </outline>
</glyph>
<glyph name="T" format="1">
  <advance width="1461"/>
  <unicode hex="0054"/>
  <outline>
    <contour>
      <point x="232" y="0" type="line"/>
      <point x="245" y="106" type="line"/>
      <point x="495" y="136" type="line"/>
      <point x="662" y="1394" type="line"/>
      <point x="426" y="1368" type="line"/>
      <point x="259" y="945" type="line"/>
      <point x="71" y="945" type="line"/>
      <point x="170" y="1530" type="line"/>
      <point x="1546" y="1530" type="line"/>
      <point x="1471" y="947" type="line"/>
      <point x="1290" y="945" type="line"/>
      <point x="1257" y="1368" type="line"/>
      <point x="1015" y="1394" type="line"/>
      <point x="847" y="136" type="line"/>
      <point x="1131" y="106" type="line"/>
      <point x="1121" y="0" type="line"/>
    </contour>
  </outline>
</glyph>
<glyph name="V" format="1">
  <advance width="1245"/>
  <unicode hex="0056"/>
  <outline>
    <contour>
      <point x="339" y="-10" type="line"/>
      <point x="115" y="1394" type="line"/>
      <point x="-24" y="1421" type="line"/>
      <point x="-10" y="1530" type="line"/>
      <point x="643" y="1530" type="line"/>
      <point x="634" y="1420" type="line"/>
      <point x="472" y="1394" type="line"/>
      <point x="592" y="510" type="line"/>
      <point x="616" y="302" type="line"/>
      <point x="691" y="510" type="line"/>
      <point x="1101" y="1394" type="line"/>
      <point x="910" y="1420" type="line"/>
      <point x="920" y="1530" type="line"/>
      <point x="1495" y="1530" type="line"/>
      <point x="1477" y="1420" type="line"/>
      <point x="1307" y="1394" type="line"/>
      <point x="660" y="-10" type="line"/>
    </contour>
  </outline>
</glyph>
<glyph name="Z" format="1">
  <advance width="1226"/>
  <unicode hex="005A"/>
  <outline>
    <contour>
      <point x="-39" y="0" type="line"/>
      <point x="-73" y="89" type="line"/>
      <point x="804" y="1304" type="line"/>
      <point x="927" y="1402" type="line"/>
      <point x="503" y="1384" type="line"/>
      <point x="355" y="1114" type="line"/>
      <point x="180" y="1136" type="line"/>
      <point x="231" y="1530" type="line"/>
      <point x="1271" y="1530" type="line"/>
      <point x="1301" y="1444" type="line"/>
      <point x="436" y="235" type="line"/>
      <point x="324" y="137" type="line"/>
      <point x="817" y="159" type="line"/>
      <point x="1001" y="492" type="line"/>
      <point x="1168" y="461" type="line"/>
      <point x="1080" y="0" type="line"/>
    </contour>
  </outline>
</glyph>
<glyph name="bracketleft" format="1">
  <advance width="874"/>
  <unicode hex="005B"/>
  <outline>
    <contour>
      <point x="114" y="21" type="curve" smooth="yes"/>
      <point x="322" y="1519" type="line"/>
      <point x="347" y="1711"/>
      <point x="475" y="1771"/>
      <point x="633" y="1771" type="curve" smooth="yes"/>
      <point x="721" y="1771"/>
      <point x="893" y="1724"/>
      <point x="893" y="1724" type="curve"/>
      <point x="873" y="1601" type="line"/>
      <point x="598" y="1601" type="line"/>
      <point x="375" y="-55" type="line"/>
      <point x="650" y="-57" type="line"/>
      <point x="635" y="-185" type="line"/>
      <point x="544" y="-211"/>
      <point x="471" y="-232"/>
      <point x="362" y="-232" type="curve" smooth="yes"/>
      <point x="236" y="-232"/>
      <point x="110" y="-199"/>
      <point x="110" y="-89" type="curve" smooth="yes"/>
      <point x="110" y="-55"/>
      <point x="109" y="-19"/>
    </contour>
  </outline>
</glyph>
<glyph name="g" format="1">
  <advance width="1218"/>
  <unicode hex="0067"/>
  <outline>
    <contour>
      <point x="153" y="-258" type="line"/>
      <point x="173" y="-277"/>
      <point x="308" y="-349"/>
      <point x="426" y="-349" type="curve" smooth="yes"/>
      <point x="562" y="-349"/>
      <point x="634" y="-327"/>
      <point x="655" y="-145" type="curve" smooth="yes"/>
      <point x="680" y="73" type="line"/>
      <point x="617" y="22"/>
      <point x="528" y="-20"/>
      <point x="413" y="-20" type="curve" smooth="yes"/>
      <point x="163" y="-20"/>
      <point x="60" y="172"/>
      <point x="60" y="402" type="curve" smooth="yes"/>
      <point x="60" y="791"/>
      <point x="293" y="1163"/>
      <point x="746" y="1163" type="curve" smooth="yes"/>
      <point x="830" y="1163"/>
      <point x="934" y="1138"/>
      <point x="994" y="1117" type="curve"/>
      <point x="1156" y="1163" type="line"/>
      <point x="989" y="-77" type="line"/>
      <point x="945" y="-429"/>
      <point x="638" y="-518"/>
      <point x="370" y="-518" type="curve" smooth="yes"/>
      <point x="272" y="-518"/>
      <point x="142" y="-492"/>
      <point x="102" y="-473" type="curve"/>
    </contour>
    <contour>
      <point x="554" y="154" type="curve" smooth="yes"/>
      <point x="609" y="154"/>
      <point x="660" y="186"/>
      <point x="699" y="227" type="curve"/>
      <point x="814" y="1012" type="line"/>
      <point x="786" y="1020"/>
      <point x="755" y="1023"/>
      <point x="722" y="1023" type="curve" smooth="yes"/>
      <point x="479" y="1023"/>
      <point x="406" y="680"/>
      <point x="406" y="413" type="curve" smooth="yes"/>
      <point x="406" y="249"/>
      <point x="463" y="154"/>
    </contour>
  </outline>
</glyph>
<glyph name="j" format="1">
  <advance width="652"/>
  <unicode hex="006A"/>
  <outline>
    <contour>
      <point x="115" y="65" type="curve" smooth="yes"/>
      <point x="220" y="980" type="line"/>
      <point x="54" y="1031" type="line"/>
      <point x="75" y="1112" type="line"/>
      <point x="526" y="1163" type="line"/>
      <point x="578" y="1139" type="line"/>
      <point x="441" y="0" type="line"/>
      <point x="397" y="-347"/>
      <point x="169" y="-528"/>
      <point x="-79" y="-528" type="curve" smooth="yes"/>
      <point x="-159" y="-528"/>
      <point x="-223" y="-516"/>
      <point x="-250" y="-491" type="curve"/>
      <point x="-212" y="-370" type="line"/>
      <point x="-194" y="-376"/>
      <point x="-148" y="-382"/>
      <point x="-138" y="-382" type="curve" smooth="yes"/>
      <point x="51" y="-382"/>
      <point x="88" y="-170"/>
    </contour>
    <contour>
      <point x="428" y="1338" type="curve" smooth="yes"/>
      <point x="339" y="1338"/>
      <point x="264" y="1422"/>
      <point x="266" y="1505" type="curve" smooth="yes"/>
      <point x="269" y="1614"/>
      <point x="341" y="1701"/>
      <point x="464" y="1701" type="curve" smooth="yes"/>
      <point x="570" y="1701"/>
      <point x="636" y="1620"/>
      <point x="634" y="1540" type="curve" smooth="yes"/>
      <point x="631" y="1429"/>
      <point x="570" y="1338"/>
    </contour>
  </outline>
</glyph>
<glyph name="l" format="1">
  <advance width="635"/>
  <unicode hex="006C"/>
  <outline>
    <contour>
      <point x="83" y="115" type="curve" smooth="yes"/>
      <point x="83" y="139"/>
      <point x="89" y="176"/>
      <point x="91" y="192" type="curve" smooth="yes"/>
      <point x="262" y="1482" type="line"/>
      <point x="130" y="1525" type="line"/>
      <point x="150" y="1608" type="line"/>
      <point x="556" y="1650" type="line"/>
      <point x="607" y="1623" type="line"/>
      <point x="423" y="227" type="line" smooth="yes"/>
      <point x="416" y="180"/>
      <point x="426" y="151"/>
      <point x="458" y="151" type="curve" smooth="yes"/>
      <point x="479" y="151"/>
      <point x="498" y="158"/>
      <point x="550" y="197" type="curve"/>
      <point x="578" y="124" type="line"/>
      <point x="556" y="95"/>
      <point x="462" y="-20"/>
      <point x="298" y="-20" type="curve" smooth="yes"/>
      <point x="190" y="-20"/>
      <point x="85" y="17"/>
    </contour>
  </outline>
</glyph>
<glyph name="n" format="1">
  <advance width="1299"/>
  <unicode hex="006E"/>
  <outline>
    <contour>
      <point x="78" y="0" type="line"/>
      <point x="209" y="962" type="line"/>
      <point x="102" y="1022" type="line"/>
      <point x="118" y="1111" type="line"/>
      <point x="492" y="1163" type="line"/>
      <point x="544" y="1139" type="line"/>
      <point x="528" y="929" type="line"/>
      <point x="616" y="1069"/>
      <point x="745" y="1163"/>
      <point x="903" y="1163" type="curve" smooth="yes"/>
      <point x="1057" y="1163"/>
      <point x="1168" y="1085"/>
      <point x="1168" y="861" type="curve" smooth="yes"/>
      <point x="1168" y="801"/>
      <point x="1138" y="617"/>
      <point x="1119" y="505" type="curve" smooth="yes"/>
      <point x="1102" y="403"/>
      <point x="1077" y="280"/>
      <point x="1077" y="206" type="curve" smooth="yes"/>
      <point x="1077" y="158"/>
      <point x="1096" y="151"/>
      <point x="1116" y="151" type="curve" smooth="yes"/>
      <point x="1138" y="151"/>
      <point x="1158" y="161"/>
      <point x="1206" y="197" type="curve"/>
      <point x="1234" y="124" type="line"/>
      <point x="1212" y="95"/>
      <point x="1114" y="-21"/>
      <point x="934" y="-21" type="curve" smooth="yes"/>
      <point x="754" y="-21"/>
      <point x="731" y="73"/>
      <point x="731" y="150" type="curve" smooth="yes"/>
      <point x="731" y="206"/>
      <point x="756" y="331"/>
      <point x="777" y="443" type="curve"/>
      <point x="796" y="550"/>
      <point x="824" y="709"/>
      <point x="822" y="825" type="curve" smooth="yes"/>
      <point x="820" y="935"/>
      <point x="796" y="965"/>
      <point x="743" y="965" type="curve" smooth="yes"/>
      <point x="664" y="965"/>
      <point x="563" y="853"/>
      <point x="501" y="721" type="curve"/>
      <point x="402" y="0" type="line"/>
    </contour>
  </outline>
</glyph>
<glyph name="z" format="1">
  <advance width="1011"/>
  <unicode hex="007A"/>
  <outline>
    <contour>
      <point x="33" y="-23" type="curve"/>
      <point x="-29" y="39" type="line"/>
      <point x="617" y="831" type="line"/>
      <point x="710" y="883" type="line"/>
      <point x="407" y="884" type="line" smooth="yes"/>
      <point x="300" y="884"/>
      <point x="239" y="817"/>
      <point x="232" y="733" type="curve"/>
      <point x="144" y="733" type="line"/>
      <point x="128" y="826"/>
      <point x="122" y="1103"/>
      <point x="211" y="1141" type="curve" smooth="yes"/>
      <point x="227" y="1148"/>
      <point x="262" y="1163"/>
      <point x="313" y="1163" type="curve" smooth="yes"/>
      <point x="470" y="1163"/>
      <point x="773" y="1128"/>
      <point x="899" y="1128" type="curve" smooth="yes"/>
      <point x="952" y="1128"/>
      <point x="987" y="1139"/>
      <point x="1015" y="1163" type="curve"/>
      <point x="1068" y="1102" type="line"/>
      <point x="419" y="300" type="line"/>
      <point x="347" y="257" type="line"/>
      <point x="675" y="257" type="line" smooth="yes"/>
      <point x="787" y="257"/>
      <point x="848" y="329"/>
      <point x="857" y="419" type="curve"/>
      <point x="942" y="419" type="line"/>
      <point x="955" y="326"/>
      <point x="962" y="55"/>
      <point x="875" y="-3" type="curve" smooth="yes"/>
      <point x="858" y="-15"/>
      <point x="822" y="-23"/>
      <point x="770" y="-23" type="curve" smooth="yes"/>
      <point x="614" y="-23"/>
      <point x="265" y="10"/>
      <point x="141" y="10" type="curve" smooth="yes"/>
      <point x="111" y="10"/>
      <point x="58" y="3"/>
    </contour>
  </outline>
</glyph>
<glyph name="braceright" format="1">
  <advance width="1044"/>
  <unicode hex="007D"/>
  <outline>
    <contour>
      <point x="826" y="1629" type="curve" smooth="yes"/>
      <point x="825" y="1600"/>
      <point x="732" y="967"/>
      <point x="732" y="967" type="curve"/>
      <point x="732" y="945"/>
      <point x="752" y="921"/>
      <point x="784" y="900" type="curve" smooth="yes"/>
      <point x="827" y="871"/>
      <point x="890" y="846"/>
      <point x="949" y="832" type="curve"/>
      <point x="931" y="708" type="line"/>
      <point x="866" y="692"/>
      <point x="791" y="670"/>
      <point x="739" y="643" type="curve" smooth="yes"/>
      <point x="703" y="624"/>
      <point x="678" y="603"/>
      <point x="674" y="580" type="curve" smooth="yes"/>
      <point x="590" y="33" type="line" smooth="yes"/>
      <point x="559" y="-165"/>
      <point x="432" y="-219"/>
      <point x="275" y="-219" type="curve" smooth="yes"/>
      <point x="186" y="-219"/>
      <point x="15" y="-172"/>
      <point x="15" y="-172" type="curve"/>
      <point x="15" y="-172"/>
      <point x="34" y="-74"/>
      <point x="35" y="-55" type="curve"/>
      <point x="311" y="-55" type="line"/>
      <point x="407" y="576" type="line" smooth="yes"/>
      <point x="415" y="630"/>
      <point x="452" y="667"/>
      <point x="505" y="700" type="curve" smooth="yes"/>
      <point x="534" y="717"/>
      <point x="650" y="770"/>
      <point x="650" y="770" type="curve"/>
      <point x="591" y="801"/>
      <point x="537" y="832"/>
      <point x="508" y="862" type="curve" smooth="yes"/>
      <point x="478" y="893"/>
      <point x="461" y="930"/>
      <point x="467" y="971" type="curve" smooth="yes"/>
      <point x="562" y="1601" type="line"/>
      <point x="287" y="1601" type="line"/>
      <point x="290" y="1616"/>
      <point x="303" y="1725"/>
      <point x="303" y="1725" type="curve"/>
      <point x="394" y="1751"/>
      <point x="468" y="1772"/>
      <point x="578" y="1772" type="curve" smooth="yes"/>
      <point x="703" y="1772"/>
      <point x="827" y="1739"/>
    </contour>
  </outline>
</glyph>
<glyph name="sterling" format="1">
  <advance width="1395"/>
  <unicode hex="00A3"/>
  <outline>
    <contour>
      <point x="10" y="-20" type="curve" smooth="yes"/>
      <point x="-51" y="-20"/>
      <point x="-96" y="10"/>
      <point x="-96" y="66" type="curve" smooth="yes"/>
      <point x="-96" y="137"/>
      <point x="21" y="215"/>
      <point x="149" y="215" type="curve"/>
      <point x="182" y="262"/>
      <point x="224" y="343"/>
      <point x="238" y="423" type="curve" smooth="yes"/>
      <point x="290" y="724" type="line"/>
      <point x="143" y="724" type="line"/>
      <point x="161" y="905" type="line"/>
      <point x="322" y="905" type="line"/>
      <point x="342" y="1017" type="line"/>
      <point x="393" y="1310"/>
      <point x="642" y="1565"/>
      <point x="951" y="1565" type="curve" smooth="yes"/>
      <point x="1062" y="1565"/>
      <point x="1193" y="1539"/>
      <point x="1259" y="1469" type="curve"/>
      <point x="1156" y="1261" type="line"/>
      <point x="1146" y="1284"/>
      <point x="1077" y="1406"/>
      <point x="930" y="1406" type="curve" smooth="yes"/>
      <point x="845" y="1406"/>
      <point x="739" y="1373"/>
      <point x="691" y="1122" type="curve" smooth="yes"/>
      <point x="649" y="905" type="line"/>
      <point x="894" y="905" type="line"/>
      <point x="877" y="724" type="line"/>
      <point x="615" y="724" type="line"/>
      <point x="586" y="571" type="line" smooth="yes"/>
      <point x="544" y="348"/>
      <point x="394" y="208"/>
      <point x="379" y="188" type="curve"/>
      <point x="470" y="173"/>
      <point x="611" y="154"/>
      <point x="719" y="154" type="curve" smooth="yes"/>
      <point x="1008" y="154"/>
      <point x="1063" y="274"/>
      <point x="1063" y="359" type="curve" smooth="yes"/>
      <point x="1063" y="442"/>
      <point x="1001" y="489"/>
      <point x="959" y="518" type="curve"/>
      <point x="1166" y="697" type="line"/>
      <point x="1255" y="643"/>
      <point x="1355" y="512"/>
      <point x="1355" y="350" type="curve" smooth="yes"/>
      <point x="1355" y="139"/>
      <point x="1171" y="-20"/>
      <point x="822" y="-20" type="curve" smooth="yes"/>
      <point x="582" y="-20"/>
      <point x="426" y="50"/>
      <point x="255" y="84" type="curve"/>
      <point x="218" y="52"/>
      <point x="110" y="-20"/>
    </contour>
  </outline>
</glyph>
<glyph name="currency" format="1">
  <advance width="1540"/>
  <unicode hex="00A4"/>
  <outline>
    <contour>
      <point x="204" y="243" type="line"/>
      <point x="412" y="451" type="line"/>
      <point x="368" y="520"/>
      <point x="342" y="602"/>
      <point x="342" y="690" type="curve" smooth="yes"/>
      <point x="342" y="777"/>
      <point x="367" y="857"/>
      <point x="410" y="925" type="curve"/>
      <point x="201" y="1135" type="line"/>
      <point x="342" y="1277" type="line"/>
      <point x="553" y="1064" type="line"/>
      <point x="620" y="1104"/>
      <point x="698" y="1128"/>
      <point x="782" y="1128" type="curve" smooth="yes"/>
      <point x="870" y="1128"/>
      <point x="952" y="1102"/>
      <point x="1021" y="1058" type="curve"/>
      <point x="1228" y="1264" type="line"/>
      <point x="1369" y="1122" type="line"/>
      <point x="1160" y="913" type="line"/>
      <point x="1199" y="848"/>
      <point x="1222" y="772"/>
      <point x="1222" y="690" type="curve" smooth="yes"/>
      <point x="1222" y="605"/>
      <point x="1198" y="526"/>
      <point x="1156" y="459" type="curve"/>
      <point x="1367" y="248" type="line"/>
      <point x="1225" y="107" type="line"/>
      <point x="1014" y="317" type="line"/>
      <point x="947" y="276"/>
      <point x="867" y="252"/>
      <point x="782" y="252" type="curve" smooth="yes"/>
      <point x="700" y="252"/>
      <point x="623" y="274"/>
      <point x="557" y="313" type="curve"/>
      <point x="346" y="102" type="line"/>
    </contour>
    <contour>
      <point x="576" y="690" type="curve" smooth="yes"/>
      <point x="576" y="572"/>
      <point x="668" y="474"/>
      <point x="782" y="474" type="curve" smooth="yes"/>
      <point x="896" y="474"/>
      <point x="988" y="572"/>
      <point x="988" y="690" type="curve" smooth="yes"/>
      <point x="988" y="808"/>
      <point x="896" y="906"/>
      <point x="782" y="906" type="curve" smooth="yes"/>
      <point x="668" y="906"/>
      <point x="576" y="808"/>
    </contour>
  </outline>
</glyph>
<glyph name="section" format="1">
  <advance width="1194"/>
  <unicode hex="00A7"/>
  <outline>
    <contour>
      <point x="49" y="-111" type="curve"/>
      <point x="105" y="237" type="line"/>
      <point x="294" y="237" type="line"/>
      <point x="321" y="13" type="line"/>
      <point x="350" y="-6"/>
      <point x="420" y="-41"/>
      <point x="516" y="-40" type="curve" smooth="yes"/>
      <point x="611" y="-39"/>
      <point x="726" y="-15"/>
      <point x="726" y="123" type="curve" smooth="yes"/>
      <point x="726" y="351"/>
      <point x="99" y="358"/>
      <point x="99" y="798" type="curve" smooth="yes"/>
      <point x="99" y="931"/>
      <point x="169" y="1021"/>
      <point x="248" y="1090" type="curve"/>
      <point x="209" y="1145"/>
      <point x="186" y="1211"/>
      <point x="186" y="1294" type="curve" smooth="yes"/>
      <point x="186" y="1527"/>
      <point x="433" y="1673"/>
      <point x="710" y="1673" type="curve" smooth="yes"/>
      <point x="937" y="1673"/>
      <point x="1080" y="1632"/>
      <point x="1134" y="1598" type="curve"/>
      <point x="1078" y="1270" type="line"/>
      <point x="889" y="1270" type="line"/>
      <point x="862" y="1477" type="line"/>
      <point x="833" y="1500"/>
      <point x="791" y="1531"/>
      <point x="695" y="1530" type="curve" smooth="yes"/>
      <point x="590" y="1529"/>
      <point x="475" y="1512"/>
      <point x="475" y="1384" type="curve" smooth="yes"/>
      <point x="475" y="1096"/>
      <point x="1086" y="1151"/>
      <point x="1086" y="728" type="curve" smooth="yes"/>
      <point x="1086" y="569"/>
      <point x="1022" y="468"/>
      <point x="947" y="396" type="curve"/>
      <point x="989" y="339"/>
      <point x="1015" y="270"/>
      <point x="1015" y="183" type="curve" smooth="yes"/>
      <point x="1015" y="-50"/>
      <point x="788" y="-186"/>
      <point x="501" y="-186" type="curve" smooth="yes"/>
      <point x="294" y="-186"/>
      <point x="103" y="-145"/>
    </contour>
    <contour>
      <point x="379" y="870" type="curve" smooth="yes"/>
      <point x="379" y="709"/>
      <point x="615" y="648"/>
      <point x="800" y="528" type="curve"/>
      <point x="814" y="551"/>
      <point x="822" y="578"/>
      <point x="822" y="617" type="curve" smooth="yes"/>
      <point x="822" y="777"/>
      <point x="586" y="835"/>
      <point x="402" y="952" type="curve"/>
      <point x="388" y="930"/>
      <point x="379" y="905"/>
    </contour>
  </outline>
</glyph>
<glyph name="dieresis" format="1">
  <advance width="809"/>
  <unicode hex="00A8"/>
  <outline>
    <contour>
      <point x="612" y="1338" type="curve" smooth="yes"/>
      <point x="532" y="1338"/>
      <point x="467" y="1422"/>
      <point x="469" y="1505" type="curve" smooth="yes"/>
      <point x="471" y="1614"/>
      <point x="533" y="1701"/>
      <point x="645" y="1701" type="curve" smooth="yes"/>
      <point x="740" y="1701"/>
      <point x="797" y="1620"/>
      <point x="795" y="1540" type="curve" smooth="yes"/>
      <point x="793" y="1429"/>
      <point x="740" y="1338"/>
    </contour>
    <contour>
      <point x="160" y="1338" type="curve" smooth="yes"/>
      <point x="80" y="1338"/>
      <point x="15" y="1422"/>
      <point x="17" y="1505" type="curve" smooth="yes"/>
      <point x="19" y="1614"/>
      <point x="81" y="1701"/>
      <point x="193" y="1701" type="curve" smooth="yes"/>
      <point x="288" y="1701"/>
      <point x="345" y="1620"/>
      <point x="343" y="1540" type="curve" smooth="yes"/>
      <point x="341" y="1429"/>
      <point x="288" y="1338"/>
    </contour>
  </outline>
</glyph>
<glyph name="copyright" format="1">
  <advance width="1768"/>
  <unicode hex="00A9"/>
  <outline>
    <contour>
      <point x="158" y="806" type="curve" smooth="yes"/>
      <point x="158" y="1235"/>
      <point x="506" y="1579"/>
      <point x="933" y="1579" type="curve" smooth="yes"/>
      <point x="1360" y="1579"/>
      <point x="1709" y="1235"/>
      <point x="1709" y="806" type="curve" smooth="yes"/>
      <point x="1709" y="376"/>
      <point x="1360" y="32"/>
      <point x="933" y="32" type="curve" smooth="yes"/>
      <point x="506" y="32"/>
      <point x="158" y="376"/>
    </contour>
    <contour>
      <point x="297" y="806" type="curve" smooth="yes"/>
      <point x="297" y="449"/>
      <point x="577" y="158"/>
      <point x="933" y="158" type="curve" smooth="yes"/>
      <point x="1290" y="158"/>
      <point x="1570" y="449"/>
      <point x="1570" y="806" type="curve" smooth="yes"/>
      <point x="1570" y="1162"/>
      <point x="1290" y="1454"/>
      <point x="933" y="1454" type="curve" smooth="yes"/>
      <point x="577" y="1454"/>
      <point x="297" y="1162"/>
    </contour>
    <contour>
      <point x="542" y="802" type="curve" smooth="yes"/>
      <point x="540" y="1042"/>
      <point x="701" y="1247"/>
      <point x="969" y="1247" type="curve" smooth="yes"/>
      <point x="1059" y="1247"/>
      <point x="1162" y="1231"/>
      <point x="1203" y="1209" type="curve"/>
      <point x="1203" y="974" type="line"/>
      <point x="1099" y="974" type="line"/>
      <point x="1055" y="1094" type="line"/>
      <point x="1026" y="1120"/>
      <point x="987" y="1133"/>
      <point x="948" y="1133" type="curve" smooth="yes"/>
      <point x="828" y="1133"/>
      <point x="747" y="1017"/>
      <point x="746" y="861" type="curve" smooth="yes"/>
      <point x="744" y="582"/>
      <point x="851" y="512"/>
      <point x="953" y="512" type="curve" smooth="yes"/>
      <point x="1049" y="512"/>
      <point x="1129" y="537"/>
      <point x="1173" y="562" type="curve"/>
      <point x="1213" y="458" type="line"/>
      <point x="1156" y="411"/>
      <point x="1039" y="366"/>
      <point x="920" y="366" type="curve" smooth="yes"/>
      <point x="681" y="366"/>
      <point x="543" y="563"/>
    </contour>
  </outline>
</glyph>
<glyph name="guillemotleft" format="1">
  <advance width="1878"/>
  <unicode hex="00AB"/>
  <outline>
    <contour>
      <point x="193" y="530" type="line"/>
      <point x="215" y="690" type="line"/>
      <point x="947" y="1096" type="line"/>
      <point x="1005" y="921" type="line"/>
      <point x="545" y="605" type="line"/>
      <point x="919" y="294" type="line"/>
      <point x="819" y="142" type="line"/>
    </contour>
    <contour>
      <point x="869" y="530" type="line"/>
      <point x="891" y="690" type="line"/>
      <point x="1623" y="1096" type="line"/>
      <point x="1681" y="921" type="line"/>
      <point x="1221" y="605" type="line"/>
      <point x="1595" y="294" type="line"/>
      <point x="1495" y="142" type="line"/>
    </contour>
  </outline>
</glyph>
<glyph name="registered" format="1">
  <advance width="1768"/>
  <unicode hex="00AE"/>
  <outline>
    <contour>
      <point x="158" y="806" type="curve" smooth="yes"/>
      <point x="158" y="1235"/>
      <point x="506" y="1579"/>
      <point x="933" y="1579" type="curve" smooth="yes"/>
      <point x="1360" y="1579"/>
      <point x="1709" y="1235"/>
      <point x="1709" y="806" type="curve" smooth="yes"/>
      <point x="1709" y="376"/>
      <point x="1360" y="32"/>
      <point x="933" y="32" type="curve" smooth="yes"/>
      <point x="506" y="32"/>
      <point x="158" y="376"/>
    </contour>
    <contour>
      <point x="297" y="806" type="curve" smooth="yes"/>
      <point x="297" y="449"/>
      <point x="577" y="158"/>
      <point x="933" y="158" type="curve" smooth="yes"/>
      <point x="1290" y="158"/>
      <point x="1570" y="449"/>
      <point x="1570" y="806" type="curve" smooth="yes"/>
      <point x="1570" y="1162"/>
      <point x="1290" y="1454"/>
      <point x="933" y="1454" type="curve" smooth="yes"/>
      <point x="577" y="1454"/>
      <point x="297" y="1162"/>
    </contour>
    <contour>
      <point x="562" y="375" type="line"/>
      <point x="562" y="449" type="line"/>
      <point x="645" y="469" type="line"/>
      <point x="645" y="1134" type="line"/>
      <point x="562" y="1156" type="line"/>
      <point x="562" y="1240" type="line"/>
      <point x="716" y="1240" type="line"/>
      <point x="788" y="1238"/>
      <point x="804" y="1242"/>
      <point x="954" y="1245" type="curve"/>
      <point x="1171" y="1245"/>
      <point x="1286" y="1152"/>
      <point x="1290" y="1014" type="curve"/>
      <point x="1290" y="907"/>
      <point x="1276" y="803"/>
      <point x="1075" y="737" type="curve"/>
      <point x="1207" y="663"/>
      <point x="1212" y="520"/>
      <point x="1291" y="465" type="curve"/>
      <point x="1309" y="456"/>
      <point x="1322" y="453"/>
      <point x="1338" y="453" type="curve"/>
      <point x="1338" y="375" type="line"/>
      <point x="1128" y="375" type="line" smooth="yes"/>
      <point x="1050" y="375"/>
      <point x="1059" y="559"/>
      <point x="903" y="720" type="curve"/>
      <point x="834" y="720" type="line"/>
      <point x="834" y="469" type="line"/>
      <point x="926" y="449" type="line"/>
      <point x="926" y="375" type="line"/>
    </contour>
    <contour>
      <point x="834" y="848" type="line"/>
      <point x="868" y="841"/>
      <point x="903" y="840"/>
      <point x="952" y="840" type="curve" smooth="yes"/>
      <point x="1041" y="840"/>
      <point x="1083" y="906"/>
      <point x="1083" y="993" type="curve" smooth="yes"/>
      <point x="1083" y="1087"/>
      <point x="1020" y="1125"/>
      <point x="927" y="1125" type="curve" smooth="yes"/>
      <point x="886" y="1125"/>
      <point x="884" y="1127"/>
      <point x="834" y="1115" type="curve"/>
    </contour>
  </outline>
</glyph>
<glyph name="macron" format="1">
  <advance width="614"/>
  <unicode hex="00AF"/>
  <outline>
    <contour>
      <point x="11" y="1405" type="line"/>
      <point x="11" y="1614" type="line"/>
      <point x="582" y="1614" type="line"/>
      <point x="582" y="1405" type="line"/>
    </contour>
  </outline>
</glyph>
<glyph name="plusminus" format="1">
  <advance width="1330"/>
  <unicode hex="00B1"/>
  <outline>
    <contour>
      <point x="531" y="275" type="line"/>
      <point x="558" y="516" type="line"/>
      <point x="584" y="680" type="line"/>
      <point x="443" y="673" type="line"/>
      <point x="248" y="673" type="line"/>
      <point x="266" y="871" type="line"/>
      <point x="482" y="871" type="line"/>
      <point x="620" y="860" type="line"/>
      <point x="633" y="1025" type="line"/>
      <point x="660" y="1255" type="line"/>
      <point x="878" y="1255" type="line"/>
      <point x="852" y="1025" type="line"/>
      <point x="823" y="861" type="line"/>
      <point x="938" y="871" type="line"/>
      <point x="1163" y="871" type="line"/>
      <point x="1145" y="673" type="line"/>
      <point x="900" y="673" type="line"/>
      <point x="788" y="680" type="line"/>
      <point x="786" y="625"/>
      <point x="781" y="571"/>
      <point x="778" y="516" type="curve"/>
      <point x="750" y="275" type="line"/>
    </contour>
    <contour>
      <point x="180" y="0" type="line"/>
      <point x="197" y="180" type="line"/>
      <point x="1046" y="180" type="line"/>
      <point x="1029" y="0" type="line"/>
    </contour>
  </outline>
</glyph>
<glyph name="twosuperior" format="1">
  <advance width="1163"/>
  <unicode hex="00B2"/>
  <outline>
    <contour>
      <point x="205" y="637" type="line"/>
      <point x="160" y="733" type="line"/>
      <point x="311" y="823"/>
      <point x="734" y="1097"/>
      <point x="734" y="1333" type="curve" smooth="yes"/>
      <point x="734" y="1406"/>
      <point x="674" y="1484"/>
      <point x="570" y="1484" type="curve" smooth="yes"/>
      <point x="469" y="1484"/>
      <point x="359" y="1427"/>
      <point x="279" y="1336" type="curve"/>
      <point x="199" y="1450" type="line"/>
      <point x="257" y="1530"/>
      <point x="450" y="1665"/>
      <point x="620" y="1667" type="curve" smooth="yes"/>
      <point x="935" y="1671"/>
      <point x="1006" y="1510"/>
      <point x="1006" y="1376" type="curve" smooth="yes"/>
      <point x="1006" y="1152"/>
      <point x="834" y="984"/>
      <point x="525" y="793" type="curve"/>
      <point x="930" y="838" type="line"/>
      <point x="1025" y="973" type="line"/>
      <point x="1128" y="944" type="line"/>
      <point x="1033" y="637" type="line"/>
    </contour>
  </outline>
</glyph>
<glyph name="threesuperior" format="1">
  <advance width="1071"/>
  <unicode hex="00B3"/>
  <outline>
    <contour>
      <point x="155" y="633" type="curve"/>
      <point x="172" y="781" type="line"/>
      <point x="241" y="747"/>
      <point x="362" y="730"/>
      <point x="427" y="730" type="curve" smooth="yes"/>
      <point x="556" y="730"/>
      <point x="704" y="761"/>
      <point x="704" y="934" type="curve" smooth="yes"/>
      <point x="704" y="1023"/>
      <point x="632" y="1050"/>
      <point x="529" y="1053" type="curve"/>
      <point x="355" y="1008" type="line"/>
      <point x="384" y="1181" type="line"/>
      <point x="537" y="1209"/>
      <point x="709" y="1282"/>
      <point x="709" y="1421" type="curve" smooth="yes"/>
      <point x="709" y="1461"/>
      <point x="664" y="1509"/>
      <point x="554" y="1509" type="curve" smooth="yes"/>
      <point x="472" y="1509"/>
      <point x="381" y="1473"/>
      <point x="306" y="1415" type="curve"/>
      <point x="260" y="1547" type="line"/>
      <point x="362" y="1626"/>
      <point x="500" y="1671"/>
      <point x="629" y="1671" type="curve" smooth="yes"/>
      <point x="875" y="1671"/>
      <point x="994" y="1587"/>
      <point x="994" y="1432" type="curve" smooth="yes"/>
      <point x="994" y="1281"/>
      <point x="874" y="1205"/>
      <point x="691" y="1151" type="curve"/>
      <point x="924" y="1151"/>
      <point x="981" y="1012"/>
      <point x="981" y="919" type="curve" smooth="yes"/>
      <point x="981" y="672"/>
      <point x="690" y="561"/>
      <point x="435" y="561" type="curve" smooth="yes"/>
      <point x="364" y="561"/>
      <point x="232" y="584"/>
    </contour>
  </outline>
</glyph>
<glyph name="acute" format="1">
  <advance width="559"/>
  <unicode hex="00B4"/>
  <outline>
    <contour>
      <point x="153" y="1231" type="curve"/>
      <point x="50" y="1312" type="line"/>
      <point x="367" y="1743" type="line"/>
      <point x="559" y="1556" type="line"/>
      <point x="523" y="1488"/>
      <point x="272" y="1277"/>
    </contour>
  </outline>
</glyph>
<glyph name="periodcentered" format="1">
  <advance width="716"/>
  <unicode hex="00B7"/>
  <outline>
    <contour>
      <point x="172" y="787" type="curve" smooth="yes"/>
      <point x="172" y="912"/>
      <point x="272" y="987"/>
      <point x="363" y="987" type="curve" smooth="yes"/>
      <point x="462" y="987"/>
      <point x="511" y="908"/>
      <point x="511" y="826" type="curve" smooth="yes"/>
      <point x="511" y="690"/>
      <point x="405" y="626"/>
      <point x="309" y="626" type="curve" smooth="yes"/>
      <point x="234" y="626"/>
      <point x="172" y="695"/>
    </contour>
  </outline>
</glyph>
<glyph name="cedilla" format="1">
  <advance width="479"/>
  <unicode hex="00B8"/>
  <outline>
    <contour>
      <point x="245" y="30" type="curve"/>
      <point x="322" y="34" type="line"/>
      <point x="405" y="30" type="line"/>
      <point x="433" y="-9"/>
      <point x="460" y="-147"/>
      <point x="460" y="-238" type="curve" smooth="yes"/>
      <point x="460" y="-388"/>
      <point x="380" y="-484"/>
      <point x="162" y="-484" type="curve" smooth="yes"/>
      <point x="109" y="-484"/>
      <point x="-14" y="-472"/>
      <point x="-36" y="-456" type="curve"/>
      <point x="-1" y="-303" type="line"/>
      <point x="16" y="-312"/>
      <point x="46" y="-319"/>
      <point x="77" y="-319" type="curve" smooth="yes"/>
      <point x="179" y="-319"/>
      <point x="254" y="-282"/>
      <point x="260" y="-154" type="curve" smooth="yes"/>
      <point x="264" y="-74"/>
      <point x="252" y="-2"/>
    </contour>
  </outline>
</glyph>
<glyph name="ordmasculine" format="1">
  <advance width="854"/>
  <unicode hex="00BA"/>
  <outline>
    <contour>
      <point x="413" y="733" type="curve" smooth="yes"/>
      <point x="207" y="733"/>
      <point x="58" y="872"/>
      <point x="58" y="1085" type="curve" smooth="yes"/>
      <point x="58" y="1409"/>
      <point x="306" y="1591"/>
      <point x="547" y="1589" type="curve" smooth="yes"/>
      <point x="774" y="1587"/>
      <point x="903" y="1440"/>
      <point x="903" y="1234" type="curve" smooth="yes"/>
      <point x="903" y="909"/>
      <point x="671" y="733"/>
    </contour>
    <contour>
      <point x="424" y="848" type="curve" smooth="yes"/>
      <point x="595" y="846"/>
      <point x="637" y="1041"/>
      <point x="637" y="1216" type="curve" smooth="yes"/>
      <point x="637" y="1375"/>
      <point x="596" y="1482"/>
      <point x="524" y="1481" type="curve" smooth="yes"/>
      <point x="367" y="1480"/>
      <point x="322" y="1263"/>
      <point x="322" y="1103" type="curve" smooth="yes"/>
      <point x="322" y="944"/>
      <point x="367" y="849"/>
    </contour>
  </outline>
</glyph>
<glyph name="threequarters" format="1">
  <advance width="2575"/>
  <unicode hex="00BE"/>
  <outline>
    <contour>
      <point x="162" y="633" type="curve"/>
      <point x="179" y="781" type="line"/>
      <point x="248" y="747"/>
      <point x="369" y="730"/>
      <point x="434" y="730" type="curve" smooth="yes"/>
      <point x="563" y="730"/>
      <point x="711" y="761"/>
      <point x="711" y="934" type="curve" smooth="yes"/>
      <point x="711" y="1023"/>
      <point x="639" y="1050"/>
      <point x="536" y="1053" type="curve"/>
      <point x="362" y="1008" type="line"/>
      <point x="391" y="1181" type="line"/>
      <point x="544" y="1209"/>
      <point x="716" y="1282"/>
      <point x="716" y="1421" type="curve" smooth="yes"/>
      <point x="716" y="1461"/>
      <point x="671" y="1509"/>
      <point x="561" y="1509" type="curve" smooth="yes"/>
      <point x="479" y="1509"/>
      <point x="388" y="1473"/>
      <point x="313" y="1415" type="curve"/>
      <point x="267" y="1547" type="line"/>
      <point x="369" y="1626"/>
      <point x="507" y="1671"/>
      <point x="636" y="1671" type="curve" smooth="yes"/>
      <point x="882" y="1671"/>
      <point x="1001" y="1587"/>
      <point x="1001" y="1432" type="curve" smooth="yes"/>
      <point x="1001" y="1281"/>
      <point x="881" y="1205"/>
      <point x="698" y="1151" type="curve"/>
      <point x="931" y="1151"/>
      <point x="988" y="1012"/>
      <point x="988" y="919" type="curve" smooth="yes"/>
      <point x="988" y="672"/>
      <point x="697" y="561"/>
      <point x="442" y="561" type="curve" smooth="yes"/>
      <point x="371" y="561"/>
      <point x="239" y="584"/>
    </contour>
    <contour>
      <point x="1896" y="-175" type="line"/>
      <point x="1943" y="156" type="line"/>
      <point x="1394" y="156" type="line"/>
      <point x="1357" y="251" type="line"/>
      <point x="1931" y="1114" type="line"/>
      <point x="2089" y="1115" type="line"/>
      <point x="2212" y="1011" type="line"/>
      <point x="1764" y="438" type="line"/>
      <point x="1637" y="304" type="line"/>
      <point x="1965" y="315" type="line"/>
      <point x="1998" y="547" type="line"/>
      <point x="2245" y="570" type="line"/>
      <point x="2212" y="324" type="line"/>
      <point x="2401" y="331" type="line"/>
      <point x="2381" y="156" type="line"/>
      <point x="2189" y="156" type="line"/>
      <point x="2144" y="-175" type="line"/>
    </contour>
    <contour>
      <point x="784" y="0" type="line"/>
      <point x="1465" y="1530" type="line"/>
      <point x="1684" y="1530" type="line"/>
      <point x="1003" y="0" type="line"/>
    </contour>
  </outline>
</glyph>
<glyph name="questiondown" format="1">
  <advance width="1013"/>
  <unicode hex="00BF"/>
  <outline>
    <contour>
      <point x="648" y="1073" type="curve" smooth="yes"/>
      <point x="573" y="1073"/>
      <point x="511" y="1142"/>
      <point x="511" y="1234" type="curve" smooth="yes"/>
      <point x="511" y="1359"/>
      <point x="611" y="1434"/>
      <point x="702" y="1434" type="curve" smooth="yes"/>
      <point x="801" y="1434"/>
      <point x="850" y="1355"/>
      <point x="850" y="1273" type="curve" smooth="yes"/>
      <point x="850" y="1137"/>
      <point x="744" y="1073"/>
    </contour>
    <contour>
      <point x="50" y="-15" type="curve" smooth="yes"/>
      <point x="50" y="486"/>
      <point x="626" y="407"/>
      <point x="640" y="835" type="curve" smooth="yes"/>
      <point x="640" y="853"/>
      <point x="637" y="872"/>
      <point x="636" y="885" type="curve"/>
      <point x="825" y="940" type="line"/>
      <point x="839" y="939" type="line"/>
      <point x="863" y="905"/>
      <point x="889" y="843"/>
      <point x="889" y="775" type="curve" smooth="yes"/>
      <point x="889" y="591"/>
      <point x="736" y="476"/>
      <point x="572" y="379" type="curve"/>
      <point x="457" y="320"/>
      <point x="388" y="260"/>
      <point x="352" y="221" type="curve"/>
      <point x="339" y="193"/>
      <point x="323" y="146"/>
      <point x="321" y="110" type="curve" smooth="yes"/>
      <point x="312" y="-61"/>
      <point x="449" y="-184"/>
      <point x="664" y="-184" type="curve" smooth="yes"/>
      <point x="738" y="-184"/>
      <point x="817" y="-155"/>
      <point x="875" y="-126" type="curve"/>
      <point x="819" y="-346" type="line"/>
      <point x="788" y="-376"/>
      <point x="651" y="-419"/>
      <point x="562" y="-419" type="curve" smooth="yes"/>
      <point x="174" y="-419"/>
      <point x="50" y="-213"/>
    </contour>
  </outline>
</glyph>
<glyph name="Adieresis" format="1">
  <advance width="1375"/>
  <unicode hex="00C4"/>
  <outline>
    <contour>
      <point x="-18" y="135" type="line"/>
      <point x="667" y="1530" type="line"/>
      <point x="1014" y="1530" type="line"/>
      <point x="1261" y="138" type="line"/>
      <point x="1422" y="106" type="line"/>
      <point x="1416" y="0" type="line"/>
      <point x="727" y="0" type="line"/>
      <point x="732" y="106" type="line"/>
      <point x="889" y="135" type="line"/>
      <point x="849" y="416" type="line"/>
      <point x="339" y="416" type="line"/>
      <point x="214" y="136" type="line"/>
      <point x="402" y="106" type="line"/>
      <point x="394" y="0" type="line"/>
      <point x="-164" y="0" type="line"/>
      <point x="-156" y="106" type="line"/>
    </contour>
    <contour>
      <point x="406" y="567" type="line"/>
      <point x="828" y="567" type="line"/>
      <point x="750" y="1117" type="line"/>
      <point x="741" y="1316" type="line"/>
    </contour>
    <contour>
      <point x="1035" y="1661" type="curve" smooth="yes"/>
      <point x="955" y="1661"/>
      <point x="898" y="1725"/>
      <point x="900" y="1808" type="curve" smooth="yes"/>
      <point x="902" y="1917"/>
      <point x="966" y="1984"/>
      <point x="1068" y="1984" type="curve" smooth="yes"/>
      <point x="1163" y="1984"/>
      <point x="1212" y="1923"/>
      <point x="1210" y="1843" type="curve" smooth="yes"/>
      <point x="1208" y="1732"/>
      <point x="1153" y="1661"/>
    </contour>
    <contour>
      <point x="583" y="1661" type="curve" smooth="yes"/>
      <point x="503" y="1661"/>
      <point x="446" y="1725"/>
      <point x="448" y="1808" type="curve" smooth="yes"/>
      <point x="450" y="1917"/>
      <point x="514" y="1984"/>
      <point x="616" y="1984" type="curve" smooth="yes"/>
      <point x="711" y="1984"/>
      <point x="760" y="1923"/>
      <point x="758" y="1843" type="curve" smooth="yes"/>
      <point x="756" y="1732"/>
      <point x="701" y="1661"/>
    </contour>
  </outline>
</glyph>
<glyph name="Aring" format="1">
  <advance width="1375"/>
  <unicode hex="00C5"/>
  <outline>
    <contour>
      <point x="-18" y="135" type="line"/>
      <point x="660" y="1515" type="line"/>
      <point x="565" y="1548"/>
      <point x="507" y="1615"/>
      <point x="507" y="1721" type="curve" smooth="yes"/>
      <point x="507" y="1956"/>
      <point x="738" y="2014"/>
      <point x="893" y="2014" type="curve" smooth="yes"/>
      <point x="1068" y="2014"/>
      <point x="1196" y="1940"/>
      <point x="1196" y="1791" type="curve" smooth="yes"/>
      <point x="1196" y="1654"/>
      <point x="1118" y="1569"/>
      <point x="1014" y="1526" type="curve"/>
      <point x="1261" y="138" type="line"/>
      <point x="1422" y="106" type="line"/>
      <point x="1416" y="0" type="line"/>
      <point x="727" y="0" type="line"/>
      <point x="732" y="106" type="line"/>
      <point x="889" y="135" type="line"/>
      <point x="849" y="416" type="line"/>
      <point x="339" y="416" type="line"/>
      <point x="214" y="136" type="line"/>
      <point x="402" y="106" type="line"/>
      <point x="394" y="0" type="line"/>
      <point x="-164" y="0" type="line"/>
      <point x="-156" y="106" type="line"/>
    </contour>
    <contour>
      <point x="838" y="1630" type="curve" smooth="yes"/>
      <point x="915" y="1630"/>
      <point x="1003" y="1648"/>
      <point x="1003" y="1763" type="curve" smooth="yes"/>
      <point x="1003" y="1836"/>
      <point x="937" y="1878"/>
      <point x="868" y="1878" type="curve" smooth="yes"/>
      <point x="792" y="1878"/>
      <point x="701" y="1852"/>
      <point x="701" y="1744" type="curve" smooth="yes"/>
      <point x="701" y="1673"/>
      <point x="771" y="1630"/>
    </contour>
    <contour>
      <point x="406" y="567" type="line"/>
      <point x="828" y="567" type="line"/>
      <point x="750" y="1117" type="line"/>
      <point x="741" y="1316" type="line"/>
    </contour>
  </outline>
</glyph>
<glyph name="Ccedilla" format="1">
  <advance width="1312"/>
  <unicode hex="00C7"/>
  <outline>
    <contour>
      <point x="395" y="-301" type="line"/>
      <point x="412" y="-310"/>
      <point x="442" y="-317"/>
      <point x="473" y="-317" type="curve" smooth="yes"/>
      <point x="575" y="-317"/>
      <point x="650" y="-280"/>
      <point x="656" y="-152" type="curve" smooth="yes"/>
      <point x="658" y="-100"/>
      <point x="654" y="-52"/>
      <point x="649" y="-15" type="curve"/>
      <point x="218" y="-3"/>
      <point x="60" y="294"/>
      <point x="60" y="637" type="curve" smooth="yes"/>
      <point x="60" y="1208"/>
      <point x="412" y="1549"/>
      <point x="949" y="1549" type="curve" smooth="yes"/>
      <point x="1172" y="1549"/>
      <point x="1234" y="1518"/>
      <point x="1308" y="1501" type="curve"/>
      <point x="1341" y="1492" type="line"/>
      <point x="1280" y="1092" type="line"/>
      <point x="1027" y="1092" type="line"/>
      <point x="987" y="1402" type="line"/>
      <point x="959" y="1413"/>
      <point x="927" y="1420"/>
      <point x="892" y="1420" type="curve" smooth="yes"/>
      <point x="574" y="1420"/>
      <point x="442" y="991"/>
      <point x="451" y="657" type="curve" smooth="yes"/>
      <point x="460" y="320"/>
      <point x="541" y="145"/>
      <point x="731" y="145" type="curve" smooth="yes"/>
      <point x="775" y="145"/>
      <point x="872" y="145"/>
      <point x="948" y="219" type="curve"/>
      <point x="984" y="260"/>
      <point x="1007" y="343"/>
      <point x="1028" y="419" type="curve"/>
      <point x="1229" y="420" type="line"/>
      <point x="1186" y="136" type="line"/>
      <point x="1122" y="84"/>
      <point x="1020" y="14"/>
      <point x="820" y="-8" type="curve"/>
      <point x="840" y="-67"/>
      <point x="856" y="-166"/>
      <point x="856" y="-236" type="curve" smooth="yes"/>
      <point x="856" y="-386"/>
      <point x="776" y="-482"/>
      <point x="558" y="-482" type="curve" smooth="yes"/>
      <point x="505" y="-482"/>
      <point x="382" y="-470"/>
      <point x="360" y="-454" type="curve"/>
    </contour>
  </outline>
</glyph>
<glyph name="Eacute" format="1">
  <advance width="1329"/>
  <unicode hex="00C9"/>
  <outline>
    <contour>
      <point x="-46" y="0" type="line"/>
      <point x="-32" y="106" type="line"/>
      <point x="128" y="136" type="line"/>
      <point x="292" y="1394" type="line"/>
      <point x="147" y="1420" type="line"/>
      <point x="158" y="1530" type="line"/>
      <point x="1276" y="1530" type="line"/>
      <point x="1240" y="1160" type="line"/>
      <point x="1018" y="1160" type="line"/>
      <point x="984" y="1384" type="line"/>
      <point x="645" y="1410" type="line"/>
      <point x="573" y="881" type="line"/>
      <point x="1017" y="905" type="line"/>
      <point x="994" y="687" type="line"/>
      <point x="553" y="712" type="line"/>
      <point x="475" y="136" type="line"/>
      <point x="938" y="171" type="line"/>
      <point x="1055" y="468" type="line"/>
      <point x="1268" y="454" type="line"/>
      <point x="1198" y="0" type="line"/>
    </contour>
    <contour>
      <point x="837" y="1570" type="curve"/>
      <point x="721" y="1672" type="line"/>
      <point x="997" y="2014" type="line"/>
      <point x="1184" y="1829" type="line"/>
      <point x="1132" y="1728"/>
      <point x="933" y="1606"/>
    </contour>
  </outline>
</glyph>
<glyph name="Ecircumflex" format="1">
  <advance width="1329"/>
  <unicode hex="00CA"/>
  <outline>
    <contour>
      <point x="-46" y="0" type="line"/>
      <point x="-32" y="106" type="line"/>
      <point x="128" y="136" type="line"/>
      <point x="292" y="1394" type="line"/>
      <point x="147" y="1420" type="line"/>
      <point x="158" y="1530" type="line"/>
      <point x="1276" y="1530" type="line"/>
      <point x="1240" y="1160" type="line"/>
      <point x="1018" y="1160" type="line"/>
      <point x="984" y="1384" type="line"/>
      <point x="645" y="1410" type="line"/>
      <point x="573" y="881" type="line"/>
      <point x="1017" y="905" type="line"/>
      <point x="994" y="687" type="line"/>
      <point x="553" y="712" type="line"/>
      <point x="475" y="136" type="line"/>
      <point x="938" y="171" type="line"/>
      <point x="1055" y="468" type="line"/>
      <point x="1268" y="454" type="line"/>
      <point x="1198" y="0" type="line"/>
    </contour>
    <contour>
      <point x="581" y="1600" type="line"/>
      <point x="474" y="1657" type="line"/>
      <point x="841" y="2014" type="line"/>
      <point x="1019" y="2014" type="line"/>
      <point x="1229" y="1657" type="line"/>
      <point x="1105" y="1599" type="line"/>
      <point x="904" y="1806" type="line"/>
    </contour>
  </outline>
</glyph>
<glyph name="Edieresis" format="1">
  <advance width="1329"/>
  <unicode hex="00CB"/>
  <outline>
    <contour>
      <point x="-46" y="0" type="line"/>
      <point x="-32" y="106" type="line"/>
      <point x="128" y="136" type="line"/>
      <point x="292" y="1394" type="line"/>
      <point x="147" y="1420" type="line"/>
      <point x="158" y="1530" type="line"/>
      <point x="1276" y="1530" type="line"/>
      <point x="1240" y="1160" type="line"/>
      <point x="1018" y="1160" type="line"/>
      <point x="984" y="1384" type="line"/>
      <point x="645" y="1410" type="line"/>
      <point x="573" y="881" type="line"/>
      <point x="1017" y="905" type="line"/>
      <point x="994" y="687" type="line"/>
      <point x="553" y="712" type="line"/>
      <point x="475" y="136" type="line"/>
      <point x="938" y="171" type="line"/>
      <point x="1055" y="468" type="line"/>
      <point x="1268" y="454" type="line"/>
      <point x="1198" y="0" type="line"/>
    </contour>
    <contour>
      <point x="1041" y="1661" type="curve" smooth="yes"/>
      <point x="961" y="1661"/>
      <point x="904" y="1725"/>
      <point x="906" y="1808" type="curve" smooth="yes"/>
      <point x="908" y="1917"/>
      <point x="972" y="1984"/>
      <point x="1074" y="1984" type="curve" smooth="yes"/>
      <point x="1169" y="1984"/>
      <point x="1218" y="1923"/>
      <point x="1216" y="1843" type="curve" smooth="yes"/>
      <point x="1214" y="1732"/>
      <point x="1159" y="1661"/>
    </contour>
    <contour>
      <point x="589" y="1661" type="curve" smooth="yes"/>
      <point x="509" y="1661"/>
      <point x="452" y="1725"/>
      <point x="454" y="1808" type="curve" smooth="yes"/>
      <point x="456" y="1917"/>
      <point x="520" y="1984"/>
      <point x="622" y="1984" type="curve" smooth="yes"/>
      <point x="717" y="1984"/>
      <point x="766" y="1923"/>
      <point x="764" y="1843" type="curve" smooth="yes"/>
      <point x="762" y="1732"/>
      <point x="707" y="1661"/>
    </contour>
  </outline>
</glyph>
<glyph name="Iacute" format="1">
  <advance width="783"/>
  <unicode hex="00CD"/>
  <outline>
    <contour>
      <point x="-18" y="0" type="line"/>
      <point x="-5" y="106" type="line"/>
      <point x="145" y="136" type="line"/>
      <point x="310" y="1394" type="line"/>
      <point x="163" y="1420" type="line"/>
      <point x="175" y="1530" type="line"/>
      <point x="846" y="1530" type="line"/>
      <point x="834" y="1420" type="line"/>
      <point x="662" y="1394" type="line"/>
      <point x="497" y="136" type="line"/>
      <point x="672" y="106" type="line"/>
      <point x="665" y="0" type="line"/>
    </contour>
    <contour>
      <point x="556" y="1570" type="curve"/>
      <point x="440" y="1672" type="line"/>
      <point x="716" y="2014" type="line"/>
      <point x="903" y="1829" type="line"/>
      <point x="851" y="1728"/>
      <point x="652" y="1606"/>
    </contour>
  </outline>
</glyph>
<glyph name="Odieresis" format="1">
  <advance width="1500"/>
  <unicode hex="00D6"/>
  <outline>
    <contour>
      <point x="55" y="637" type="curve" smooth="yes"/>
      <point x="55" y="1099"/>
      <point x="311" y="1550"/>
      <point x="865" y="1550" type="curve" smooth="yes"/>
      <point x="1292" y="1550"/>
      <point x="1465" y="1238"/>
      <point x="1465" y="893" type="curve" smooth="yes"/>
      <point x="1465" y="440"/>
      <point x="1234" y="-20"/>
      <point x="655" y="-20" type="curve" smooth="yes"/>
      <point x="236" y="-20"/>
      <point x="55" y="264"/>
    </contour>
    <contour>
      <point x="684" y="102" type="curve" smooth="yes"/>
      <point x="958" y="102"/>
      <point x="1084" y="451"/>
      <point x="1084" y="881" type="curve" smooth="yes"/>
      <point x="1084" y="1217"/>
      <point x="1017" y="1426"/>
      <point x="838" y="1426" type="curve" smooth="yes"/>
      <point x="577" y="1426"/>
      <point x="436" y="1037"/>
      <point x="436" y="649" type="curve" smooth="yes"/>
      <point x="436" y="392"/>
      <point x="471" y="102"/>
    </contour>
    <contour>
      <point x="1090" y="1661" type="curve" smooth="yes"/>
      <point x="1010" y="1661"/>
      <point x="953" y="1725"/>
      <point x="955" y="1808" type="curve" smooth="yes"/>
      <point x="957" y="1917"/>
      <point x="1021" y="1984"/>
      <point x="1123" y="1984" type="curve" smooth="yes"/>
      <point x="1218" y="1984"/>
      <point x="1267" y="1923"/>
      <point x="1265" y="1843" type="curve" smooth="yes"/>
      <point x="1263" y="1732"/>
      <point x="1208" y="1661"/>
    </contour>
    <contour>
      <point x="638" y="1661" type="curve" smooth="yes"/>
      <point x="558" y="1661"/>
      <point x="501" y="1725"/>
      <point x="503" y="1808" type="curve" smooth="yes"/>
      <point x="505" y="1917"/>
      <point x="569" y="1984"/>
      <point x="671" y="1984" type="curve" smooth="yes"/>
      <point x="766" y="1984"/>
      <point x="815" y="1923"/>
      <point x="813" y="1843" type="curve" smooth="yes"/>
      <point x="811" y="1732"/>
      <point x="756" y="1661"/>
    </contour>
  </outline>
</glyph>
<glyph name="Ucircumflex" format="1">
  <advance width="1447"/>
  <unicode hex="00DB"/>
  <outline>
    <contour>
      <point x="128" y="428" type="curve" smooth="yes"/>
      <point x="128" y="480"/>
      <point x="128" y="534"/>
      <point x="135" y="593" type="curve" smooth="yes"/>
      <point x="235" y="1394" type="line"/>
      <point x="91" y="1420" type="line"/>
      <point x="104" y="1530" type="line"/>
      <point x="808" y="1530" type="line"/>
      <point x="798" y="1421" type="line"/>
      <point x="601" y="1394" type="line"/>
      <point x="504" y="623" type="line"/>
      <point x="495" y="542"/>
      <point x="487" y="469"/>
      <point x="487" y="422" type="curve" smooth="yes"/>
      <point x="487" y="232"/>
      <point x="562" y="104"/>
      <point x="732" y="104" type="curve" smooth="yes"/>
      <point x="978" y="104"/>
      <point x="1076" y="311"/>
      <point x="1119" y="626" type="curve" smooth="yes"/>
      <point x="1223" y="1394" type="line"/>
      <point x="1055" y="1421" type="line"/>
      <point x="1066" y="1530" type="line"/>
      <point x="1550" y="1530" type="line"/>
      <point x="1535" y="1421" type="line"/>
      <point x="1406" y="1394" type="line"/>
      <point x="1309" y="627" type="line" smooth="yes"/>
      <point x="1249" y="156"/>
      <point x="1038" y="-20"/>
      <point x="670" y="-20" type="curve" smooth="yes"/>
      <point x="248" y="-20"/>
      <point x="128" y="179"/>
    </contour>
    <contour>
      <point x="706" y="1600" type="line"/>
      <point x="599" y="1657" type="line"/>
      <point x="966" y="2014" type="line"/>
      <point x="1144" y="2014" type="line"/>
      <point x="1354" y="1657" type="line"/>
      <point x="1230" y="1599" type="line"/>
      <point x="1029" y="1806" type="line"/>
    </contour>
  </outline>
</glyph>
<glyph name="adieresis" format="1">
  <advance width="1215"/>
  <unicode hex="00E4"/>
  <outline>
    <contour>
      <point x="60" y="402" type="curve" smooth="yes"/>
      <point x="60" y="791"/>
      <point x="293" y="1163"/>
      <point x="746" y="1163" type="curve" smooth="yes"/>
      <point x="826" y="1163"/>
      <point x="923" y="1141"/>
      <point x="984" y="1120" type="curve"/>
      <point x="1136" y="1163" type="line"/>
      <point x="1007" y="227" type="line"/>
      <point x="1001" y="173"/>
      <point x="1016" y="151"/>
      <point x="1046" y="151" type="curve" smooth="yes"/>
      <point x="1065" y="151"/>
      <point x="1091" y="160"/>
      <point x="1139" y="197" type="curve"/>
      <point x="1167" y="124" type="line"/>
      <point x="1142" y="88"/>
      <point x="1044" y="-20"/>
      <point x="887" y="-20" type="curve" smooth="yes"/>
      <point x="788" y="-20"/>
      <point x="720" y="24"/>
      <point x="717" y="106" type="curve"/>
      <point x="652" y="41"/>
      <point x="552" y="-20"/>
      <point x="413" y="-20" type="curve" smooth="yes"/>
      <point x="163" y="-20"/>
      <point x="60" y="172"/>
    </contour>
    <contour>
      <point x="554" y="154" type="curve" smooth="yes"/>
      <point x="601" y="154"/>
      <point x="644" y="177"/>
      <point x="680" y="209" type="curve"/>
      <point x="790" y="1017" type="line"/>
      <point x="768" y="1021"/>
      <point x="746" y="1023"/>
      <point x="722" y="1023" type="curve" smooth="yes"/>
      <point x="479" y="1023"/>
      <point x="406" y="680"/>
      <point x="406" y="413" type="curve" smooth="yes"/>
      <point x="406" y="249"/>
      <point x="463" y="154"/>
    </contour>
    <contour>
      <point x="990" y="1338" type="curve" smooth="yes"/>
      <point x="910" y="1338"/>
      <point x="845" y="1422"/>
      <point x="847" y="1505" type="curve" smooth="yes"/>
      <point x="849" y="1614"/>
      <point x="911" y="1701"/>
      <point x="1023" y="1701" type="curve" smooth="yes"/>
      <point x="1118" y="1701"/>
      <point x="1175" y="1620"/>
      <point x="1173" y="1540" type="curve" smooth="yes"/>
      <point x="1171" y="1429"/>
      <point x="1118" y="1338"/>
    </contour>
    <contour>
      <point x="538" y="1338" type="curve" smooth="yes"/>
      <point x="458" y="1338"/>
      <point x="393" y="1422"/>
      <point x="395" y="1505" type="curve" smooth="yes"/>
      <point x="397" y="1614"/>
      <point x="459" y="1701"/>
      <point x="571" y="1701" type="curve" smooth="yes"/>
      <point x="666" y="1701"/>
      <point x="723" y="1620"/>
      <point x="721" y="1540" type="curve" smooth="yes"/>
      <point x="719" y="1429"/>
      <point x="666" y="1338"/>
    </contour>
  </outline>
</glyph>
<glyph name="ae" format="1">
  <advance width="1710"/>
  <unicode hex="00E6"/>
  <outline>
    <contour>
      <point x="373" y="-20" type="curve" smooth="yes"/>
      <point x="123" y="-20"/>
      <point x="60" y="182"/>
      <point x="60" y="392" type="curve" smooth="yes"/>
      <point x="60" y="781"/>
      <point x="335" y="1163"/>
      <point x="816" y="1163" type="curve" smooth="yes"/>
      <point x="879" y="1163"/>
      <point x="957" y="1149"/>
      <point x="1018" y="1133" type="curve"/>
      <point x="1107" y="1163" type="line"/>
      <point x="1099" y="1100" type="line"/>
      <point x="1181" y="1141"/>
      <point x="1273" y="1163"/>
      <point x="1372" y="1163" type="curve" smooth="yes"/>
      <point x="1600" y="1163"/>
      <point x="1695" y="1054"/>
      <point x="1701" y="913" type="curve"/>
      <point x="1711" y="583"/>
      <point x="1334" y="461"/>
      <point x="1082" y="455" type="curve"/>
      <point x="1082" y="247"/>
      <point x="1153" y="159"/>
      <point x="1269" y="159" type="curve" smooth="yes"/>
      <point x="1428" y="159"/>
      <point x="1514" y="246"/>
      <point x="1567" y="315" type="curve"/>
      <point x="1631" y="212" type="line"/>
      <point x="1576" y="124"/>
      <point x="1418" y="-20"/>
      <point x="1161" y="-20" type="curve" smooth="yes"/>
      <point x="929" y="-20"/>
      <point x="809" y="96"/>
      <point x="760" y="246" type="curve"/>
      <point x="680" y="127"/>
      <point x="543" y="-20"/>
    </contour>
    <contour>
      <point x="1082" y="575" type="curve"/>
      <point x="1199" y="582"/>
      <point x="1386" y="689"/>
      <point x="1380" y="886" type="curve"/>
      <point x="1376" y="977"/>
      <point x="1351" y="1025"/>
      <point x="1298" y="1025" type="curve" smooth="yes"/>
      <point x="1144" y="1025"/>
      <point x="1093" y="761"/>
    </contour>
    <contour>
      <point x="494" y="180" type="curve" smooth="yes"/>
      <point x="564" y="180"/>
      <point x="639" y="257"/>
      <point x="697" y="336" type="curve"/>
      <point x="801" y="1023" type="line"/>
      <point x="530" y="1018"/>
      <point x="406" y="678"/>
      <point x="406" y="413" type="curve" smooth="yes"/>
      <point x="406" y="309"/>
      <point x="423" y="180"/>
    </contour>
  </outline>
</glyph>
<glyph name="egrave" format="1">
  <advance width="1048"/>
  <unicode hex="00E8"/>
  <outline>
    <contour>
      <point x="61" y="430" type="curve" smooth="yes"/>
      <point x="59" y="857"/>
      <point x="343" y="1163"/>
      <point x="710" y="1163" type="curve" smooth="yes"/>
      <point x="938" y="1163"/>
      <point x="1033" y="1054"/>
      <point x="1039" y="913" type="curve"/>
      <point x="1049" y="583"/>
      <point x="672" y="461"/>
      <point x="420" y="455" type="curve"/>
      <point x="420" y="247"/>
      <point x="491" y="159"/>
      <point x="607" y="159" type="curve" smooth="yes"/>
      <point x="766" y="159"/>
      <point x="852" y="246"/>
      <point x="905" y="315" type="curve"/>
      <point x="969" y="212" type="line"/>
      <point x="914" y="124"/>
      <point x="756" y="-20"/>
      <point x="499" y="-20" type="curve" smooth="yes"/>
      <point x="178" y="-20"/>
      <point x="62" y="202"/>
    </contour>
    <contour>
      <point x="420" y="575" type="curve"/>
      <point x="537" y="582"/>
      <point x="724" y="689"/>
      <point x="718" y="886" type="curve"/>
      <point x="714" y="977"/>
      <point x="689" y="1025"/>
      <point x="636" y="1025" type="curve" smooth="yes"/>
      <point x="482" y="1025"/>
      <point x="431" y="761"/>
    </contour>
    <contour>
      <point x="649" y="1241" type="line"/>
      <point x="566" y="1276"/>
      <point x="327" y="1454"/>
      <point x="263" y="1566" type="curve"/>
      <point x="466" y="1743" type="line"/>
      <point x="754" y="1311" type="line"/>
    </contour>
  </outline>
</glyph>
<glyph name="iacute" format="1">
  <advance width="669"/>
  <unicode hex="00ED"/>
  <outline>
    <contour>
      <point x="108" y="129" type="curve" smooth="yes"/>
      <point x="132" y="288"/>
      <point x="170" y="596"/>
      <point x="221" y="980" type="curve"/>
      <point x="57" y="1031" type="line"/>
      <point x="75" y="1112" type="line"/>
      <point x="521" y="1163" type="line"/>
      <point x="576" y="1139" type="line"/>
      <point x="448" y="227" type="line" smooth="yes"/>
      <point x="441" y="178"/>
      <point x="453" y="151"/>
      <point x="483" y="151" type="curve" smooth="yes"/>
      <point x="506" y="151"/>
      <point x="529" y="163"/>
      <point x="575" y="197" type="curve"/>
      <point x="603" y="124" type="line"/>
      <point x="579" y="94"/>
      <point x="482" y="-20"/>
      <point x="307" y="-20" type="curve" smooth="yes"/>
      <point x="165" y="-20"/>
      <point x="95" y="42"/>
    </contour>
    <contour>
      <point x="404" y="1231" type="curve"/>
      <point x="301" y="1312" type="line"/>
      <point x="618" y="1743" type="line"/>
      <point x="810" y="1556" type="line"/>
      <point x="774" y="1488"/>
      <point x="523" y="1277"/>
    </contour>
  </outline>
</glyph>
<glyph name="eth" format="1">
  <advance width="1157"/>
  <unicode hex="00F0"/>
  <outline>
    <contour>
      <point x="44" y="462" type="curve" smooth="yes"/>
      <point x="44" y="866"/>
      <point x="280" y="1110"/>
      <point x="600" y="1110" type="curve" smooth="yes"/>
      <point x="693" y="1110"/>
      <point x="740" y="1104"/>
      <point x="780" y="1081" type="curve"/>
      <point x="782" y="1157"/>
      <point x="746" y="1282"/>
      <point x="660" y="1398" type="curve"/>
      <point x="527" y="1245" type="line"/>
      <point x="411" y="1343" type="line"/>
      <point x="557" y="1504" type="line"/>
      <point x="489" y="1562"/>
      <point x="414" y="1615"/>
      <point x="351" y="1635" type="curve"/>
      <point x="406" y="1794" type="line"/>
      <point x="486" y="1771"/>
      <point x="597" y="1723"/>
      <point x="699" y="1653" type="curve"/>
      <point x="765" y="1730"/>
      <point x="843" y="1829"/>
      <point x="843" y="1829" type="curve"/>
      <point x="956" y="1728" type="line"/>
      <point x="812" y="1561" type="line"/>
      <point x="1025" y="1355"/>
      <point x="1123" y="1070"/>
      <point x="1123" y="802" type="curve" smooth="yes"/>
      <point x="1123" y="326"/>
      <point x="885" y="-20"/>
      <point x="480" y="-20" type="curve" smooth="yes"/>
      <point x="183" y="-20"/>
      <point x="44" y="238"/>
    </contour>
    <contour>
      <point x="509" y="107" type="curve" smooth="yes"/>
      <point x="642" y="107"/>
      <point x="739" y="307"/>
      <point x="765" y="551" type="curve" smooth="yes"/>
      <point x="767" y="566"/>
      <point x="782" y="686"/>
      <point x="784" y="728" type="curve" smooth="yes"/>
      <point x="787" y="796"/>
      <point x="767" y="974"/>
      <point x="610" y="974" type="curve" smooth="yes"/>
      <point x="447" y="974"/>
      <point x="381" y="633"/>
      <point x="381" y="400" type="curve" smooth="yes"/>
      <point x="381" y="245"/>
      <point x="410" y="107"/>
    </contour>
  </outline>
</glyph>
<glyph name="ntilde" format="1">
  <advance width="1308"/>
  <unicode hex="00F1"/>
  <outline>
    <contour>
      <point x="83" y="0" type="line"/>
      <point x="214" y="962" type="line"/>
      <point x="107" y="1022" type="line"/>
      <point x="123" y="1111" type="line"/>
      <point x="497" y="1163" type="line"/>
      <point x="549" y="1139" type="line"/>
      <point x="533" y="929" type="line"/>
      <point x="621" y="1069"/>
      <point x="750" y="1163"/>
      <point x="908" y="1163" type="curve" smooth="yes"/>
      <point x="1062" y="1163"/>
      <point x="1173" y="1085"/>
      <point x="1173" y="861" type="curve" smooth="yes"/>
      <point x="1173" y="801"/>
      <point x="1143" y="617"/>
      <point x="1124" y="505" type="curve" smooth="yes"/>
      <point x="1107" y="403"/>
      <point x="1082" y="280"/>
      <point x="1082" y="206" type="curve" smooth="yes"/>
      <point x="1082" y="158"/>
      <point x="1101" y="151"/>
      <point x="1121" y="151" type="curve" smooth="yes"/>
      <point x="1143" y="151"/>
      <point x="1163" y="161"/>
      <point x="1211" y="197" type="curve"/>
      <point x="1239" y="124" type="line"/>
      <point x="1217" y="95"/>
      <point x="1119" y="-21"/>
      <point x="939" y="-21" type="curve" smooth="yes"/>
      <point x="759" y="-21"/>
      <point x="736" y="73"/>
      <point x="736" y="150" type="curve" smooth="yes"/>
      <point x="736" y="206"/>
      <point x="761" y="331"/>
      <point x="782" y="443" type="curve"/>
      <point x="801" y="550"/>
      <point x="829" y="709"/>
      <point x="827" y="825" type="curve" smooth="yes"/>
      <point x="825" y="935"/>
      <point x="801" y="965"/>
      <point x="748" y="965" type="curve" smooth="yes"/>
      <point x="669" y="965"/>
      <point x="568" y="853"/>
      <point x="506" y="721" type="curve"/>
      <point x="407" y="0" type="line"/>
    </contour>
    <contour>
      <point x="458" y="1387" type="curve"/>
      <point x="381" y="1511" type="line"/>
      <point x="422" y="1594"/>
      <point x="538" y="1680"/>
      <point x="638" y="1680" type="curve" smooth="yes"/>
      <point x="793" y="1680"/>
      <point x="818" y="1530"/>
      <point x="917" y="1530" type="curve" smooth="yes"/>
      <point x="991" y="1530"/>
      <point x="1031" y="1582"/>
      <point x="1069" y="1630" type="curve"/>
      <point x="1157" y="1499" type="line"/>
      <point x="1123" y="1412"/>
      <point x="1010" y="1318"/>
      <point x="906" y="1318" type="curve" smooth="yes"/>
      <point x="729" y="1318"/>
      <point x="725" y="1465"/>
      <point x="605" y="1468" type="curve" smooth="yes"/>
      <point x="543" y="1469"/>
      <point x="496" y="1427"/>
    </contour>
  </outline>
</glyph>
<glyph name="ograve" format="1">
  <advance width="1197"/>
  <unicode hex="00F2"/>
  <outline>
    <contour>
      <point x="61" y="439" type="curve"/>
      <point x="48" y="832"/>
      <point x="293" y="1163"/>
      <point x="686" y="1163" type="curve" smooth="yes"/>
      <point x="970" y="1163"/>
      <point x="1122" y="994"/>
      <point x="1131" y="703" type="curve" smooth="yes"/>
      <point x="1144" y="310"/>
      <point x="898" y="-20"/>
      <point x="505" y="-20" type="curve" smooth="yes"/>
      <point x="220" y="-20"/>
      <point x="72" y="148"/>
    </contour>
    <contour>
      <point x="550" y="107" type="curve" smooth="yes"/>
      <point x="729" y="107"/>
      <point x="779" y="446"/>
      <point x="772" y="707" type="curve" smooth="yes"/>
      <point x="766" y="938"/>
      <point x="729" y="1025"/>
      <point x="651" y="1025" type="curve" smooth="yes"/>
      <point x="471" y="1025"/>
      <point x="410" y="688"/>
      <point x="418" y="435" type="curve" smooth="yes"/>
      <point x="425" y="202"/>
      <point x="456" y="107"/>
    </contour>
    <contour>
      <point x="646" y="1241" type="line"/>
      <point x="563" y="1276"/>
      <point x="324" y="1454"/>
      <point x="260" y="1566" type="curve"/>
      <point x="463" y="1743" type="line"/>
      <point x="751" y="1311" type="line"/>
    </contour>
  </outline>
</glyph>
<glyph name="divide" format="1">
  <advance width="1370"/>
  <unicode hex="00F7"/>
  <outline>
    <contour>
      <point x="746" y="1035" type="curve" smooth="yes"/>
      <point x="671" y="1035"/>
      <point x="609" y="1104"/>
      <point x="609" y="1196" type="curve" smooth="yes"/>
      <point x="609" y="1321"/>
      <point x="709" y="1396"/>
      <point x="800" y="1396" type="curve" smooth="yes"/>
      <point x="899" y="1396"/>
      <point x="948" y="1317"/>
      <point x="948" y="1235" type="curve" smooth="yes"/>
      <point x="948" y="1099"/>
      <point x="842" y="1035"/>
    </contour>
    <contour>
      <point x="244" y="674" type="line"/>
      <point x="262" y="871" type="line"/>
      <point x="1201" y="871" type="line"/>
      <point x="1183" y="674" type="line"/>
    </contour>
    <contour>
      <point x="496" y="310" type="curve" smooth="yes"/>
      <point x="496" y="435"/>
      <point x="596" y="510"/>
      <point x="687" y="510" type="curve" smooth="yes"/>
      <point x="786" y="510"/>
      <point x="835" y="431"/>
      <point x="835" y="349" type="curve" smooth="yes"/>
      <point x="835" y="213"/>
      <point x="729" y="149"/>
      <point x="633" y="149" type="curve" smooth="yes"/>
      <point x="558" y="149"/>
      <point x="496" y="218"/>
    </contour>
  </outline>
</glyph>
<glyph name="thorn" format="1">
  <advance width="1191"/>
  <unicode hex="00FE"/>
  <outline>
    <contour>
      <point x="60" y="-20" type="line"/>
      <point x="247" y="1484" type="line"/>
      <point x="144" y="1527" type="line"/>
      <point x="165" y="1611" type="line"/>
      <point x="526" y="1650" type="line"/>
      <point x="580" y="1623" type="line"/>
      <point x="506" y="1059" type="line"/>
      <point x="572" y="1115"/>
      <point x="665" y="1163"/>
      <point x="787" y="1163" type="curve" smooth="yes"/>
      <point x="1018" y="1163"/>
      <point x="1131" y="1005"/>
      <point x="1131" y="730" type="curve" smooth="yes"/>
      <point x="1131" y="310"/>
      <point x="871" y="-20"/>
      <point x="449" y="-20" type="curve" smooth="yes"/>
      <point x="421" y="-20"/>
      <point x="392" y="-17"/>
      <point x="363" y="-13" type="curve"/>
      <point x="350" y="-142" type="line"/>
      <point x="303" y="-520" type="line"/>
      <point x="-11" y="-520" type="line"/>
    </contour>
    <contour>
      <point x="385" y="128" type="line"/>
      <point x="411" y="121"/>
      <point x="440" y="119"/>
      <point x="475" y="119" type="curve" smooth="yes"/>
      <point x="705" y="119"/>
      <point x="790" y="425"/>
      <point x="790" y="729" type="curve" smooth="yes"/>
      <point x="790" y="867"/>
      <point x="746" y="988"/>
      <point x="646" y="988" type="curve" smooth="yes"/>
      <point x="580" y="988"/>
      <point x="526" y="948"/>
      <point x="485" y="899" type="curve"/>
    </contour>
  </outline>
</glyph>
<glyph name="ydieresis" format="1">
  <advance width="1084"/>
  <unicode hex="00FF"/>
  <outline>
    <contour>
      <point x="-65" y="-258" type="line"/>
      <point x="-35" y="-281"/>
      <point x="90" y="-349"/>
      <point x="208" y="-349" type="curve" smooth="yes"/>
      <point x="332" y="-349"/>
      <point x="412" y="-275"/>
      <point x="523" y="-71" type="curve"/>
      <point x="332" y="-71" type="line"/>
      <point x="122" y="925" type="line" smooth="yes"/>
      <point x="113" y="966"/>
      <point x="101" y="981"/>
      <point x="79" y="981" type="curve" smooth="yes"/>
      <point x="63" y="981"/>
      <point x="35" y="974"/>
      <point x="4" y="947" type="curve"/>
      <point x="-25" y="1028" type="line"/>
      <point x="-5" y="1056"/>
      <point x="106" y="1163"/>
      <point x="245" y="1163" type="curve" smooth="yes"/>
      <point x="372" y="1163"/>
      <point x="426" y="1111"/>
      <point x="443" y="1026" type="curve" smooth="yes"/>
      <point x="494" y="764"/>
      <point x="537" y="501"/>
      <point x="578" y="239" type="curve"/>
      <point x="596" y="80" type="line"/>
      <point x="657" y="204" type="line" smooth="yes"/>
      <point x="753" y="399"/>
      <point x="791" y="571"/>
      <point x="791" y="737" type="curve" smooth="yes"/>
      <point x="791" y="879"/>
      <point x="755" y="899"/>
      <point x="755" y="1025" type="curve" smooth="yes"/>
      <point x="755" y="1102"/>
      <point x="809" y="1163"/>
      <point x="914" y="1163" type="curve" smooth="yes"/>
      <point x="1050" y="1163"/>
      <point x="1086" y="1069"/>
      <point x="1086" y="947" type="curve" smooth="yes"/>
      <point x="1086" y="762"/>
      <point x="967" y="488"/>
      <point x="868" y="297" type="curve" smooth="yes"/>
      <point x="670" y="-86"/>
      <point x="626" y="-179"/>
      <point x="552" y="-286" type="curve" smooth="yes"/>
      <point x="468" y="-407"/>
      <point x="354" y="-518"/>
      <point x="152" y="-518" type="curve" smooth="yes"/>
      <point x="33" y="-518"/>
      <point x="-82" y="-488"/>
      <point x="-116" y="-473" type="curve"/>
    </contour>
    <contour>
      <point x="829" y="1338" type="curve" smooth="yes"/>
      <point x="749" y="1338"/>
      <point x="684" y="1422"/>
      <point x="686" y="1505" type="curve" smooth="yes"/>
      <point x="688" y="1614"/>
      <point x="750" y="1701"/>
      <point x="862" y="1701" type="curve" smooth="yes"/>
      <point x="957" y="1701"/>
      <point x="1014" y="1620"/>
      <point x="1012" y="1540" type="curve" smooth="yes"/>
      <point x="1010" y="1429"/>
      <point x="957" y="1338"/>
    </contour>
    <contour>
      <point x="377" y="1338" type="curve" smooth="yes"/>
      <point x="297" y="1338"/>
      <point x="232" y="1422"/>
      <point x="234" y="1505" type="curve" smooth="yes"/>
      <point x="236" y="1614"/>
      <point x="298" y="1701"/>
      <point x="410" y="1701" type="curve" smooth="yes"/>
      <point x="505" y="1701"/>
      <point x="562" y="1620"/>
      <point x="560" y="1540" type="curve" smooth="yes"/>
      <point x="558" y="1429"/>
      <point x="505" y="1338"/>
    </contour>
  </outline>
</glyph>
<glyph name="amacron" format="1">
  <advance width="1215"/>
  <unicode hex="0101"/>
  <outline>
    <contour>
      <point x="60" y="402" type="curve" smooth="yes"/>
      <point x="60" y="791"/>
      <point x="293" y="1163"/>
      <point x="746" y="1163" type="curve" smooth="yes"/>
      <point x="826" y="1163"/>
      <point x="923" y="1141"/>
      <point x="984" y="1120" type="curve"/>
      <point x="1136" y="1163" type="line"/>
      <point x="1007" y="227" type="line"/>
      <point x="1001" y="173"/>
      <point x="1016" y="151"/>
      <point x="1046" y="151" type="curve" smooth="yes"/>
      <point x="1065" y="151"/>
      <point x="1091" y="160"/>
      <point x="1139" y="197" type="curve"/>
      <point x="1167" y="124" type="line"/>
      <point x="1142" y="88"/>
      <point x="1044" y="-20"/>
      <point x="887" y="-20" type="curve" smooth="yes"/>
      <point x="788" y="-20"/>
      <point x="720" y="24"/>
      <point x="717" y="106" type="curve"/>
      <point x="652" y="41"/>
      <point x="552" y="-20"/>
      <point x="413" y="-20" type="curve" smooth="yes"/>
      <point x="163" y="-20"/>
      <point x="60" y="172"/>
    </contour>
    <contour>
      <point x="554" y="154" type="curve" smooth="yes"/>
      <point x="601" y="154"/>
      <point x="644" y="177"/>
      <point x="680" y="209" type="curve"/>
      <point x="790" y="1017" type="line"/>
      <point x="768" y="1021"/>
      <point x="746" y="1023"/>
      <point x="722" y="1023" type="curve" smooth="yes"/>
      <point x="479" y="1023"/>
      <point x="406" y="680"/>
      <point x="406" y="413" type="curve" smooth="yes"/>
      <point x="406" y="249"/>
      <point x="463" y="154"/>
    </contour>
    <contour>
      <point x="455" y="1405" type="line"/>
      <point x="455" y="1614" type="line"/>
      <point x="1026" y="1614" type="line"/>
      <point x="1026" y="1405" type="line"/>
    </contour>
  </outline>
</glyph>
<glyph name="abreve" format="1">
  <advance width="1215"/>
  <unicode hex="0103"/>
  <outline>
    <contour>
      <point x="60" y="402" type="curve" smooth="yes"/>
      <point x="60" y="791"/>
      <point x="293" y="1163"/>
      <point x="746" y="1163" type="curve" smooth="yes"/>
      <point x="826" y="1163"/>
      <point x="923" y="1141"/>
      <point x="984" y="1120" type="curve"/>
      <point x="1136" y="1163" type="line"/>
      <point x="1007" y="227" type="line"/>
      <point x="1001" y="173"/>
      <point x="1016" y="151"/>
      <point x="1046" y="151" type="curve" smooth="yes"/>
      <point x="1065" y="151"/>
      <point x="1091" y="160"/>
      <point x="1139" y="197" type="curve"/>
      <point x="1167" y="124" type="line"/>
      <point x="1142" y="88"/>
      <point x="1044" y="-20"/>
      <point x="887" y="-20" type="curve" smooth="yes"/>
      <point x="788" y="-20"/>
      <point x="720" y="24"/>
      <point x="717" y="106" type="curve"/>
      <point x="652" y="41"/>
      <point x="552" y="-20"/>
      <point x="413" y="-20" type="curve" smooth="yes"/>
      <point x="163" y="-20"/>
      <point x="60" y="172"/>
    </contour>
    <contour>
      <point x="554" y="154" type="curve" smooth="yes"/>
      <point x="601" y="154"/>
      <point x="644" y="177"/>
      <point x="680" y="209" type="curve"/>
      <point x="790" y="1017" type="line"/>
      <point x="768" y="1021"/>
      <point x="746" y="1023"/>
      <point x="722" y="1023" type="curve" smooth="yes"/>
      <point x="479" y="1023"/>
      <point x="406" y="680"/>
      <point x="406" y="413" type="curve" smooth="yes"/>
      <point x="406" y="249"/>
      <point x="463" y="154"/>
    </contour>
    <contour>
      <point x="776" y="1300" type="curve" smooth="yes"/>
      <point x="538" y="1300"/>
      <point x="464" y="1463"/>
      <point x="464" y="1613" type="curve" smooth="yes"/>
      <point x="464" y="1636"/>
      <point x="466" y="1659"/>
      <point x="469" y="1681" type="curve"/>
      <point x="653" y="1681" type="line"/>
      <point x="653" y="1667"/>
      <point x="652" y="1652"/>
      <point x="652" y="1636" type="curve" smooth="yes"/>
      <point x="652" y="1576"/>
      <point x="665" y="1517"/>
      <point x="781" y="1517" type="curve" smooth="yes"/>
      <point x="928" y="1517"/>
      <point x="940" y="1601"/>
      <point x="943" y="1681" type="curve"/>
      <point x="1125" y="1681" type="line"/>
      <point x="1126" y="1670"/>
      <point x="1126" y="1658"/>
      <point x="1126" y="1647" type="curve" smooth="yes"/>
      <point x="1126" y="1488"/>
      <point x="1028" y="1300"/>
    </contour>
  </outline>
</glyph>
<glyph name="Aogonek" format="1">
  <advance width="1342"/>
  <unicode hex="0104"/>
  <outline>
    <contour>
      <point x="-121" y="0" type="line"/>
      <point x="-113" y="106" type="line"/>
      <point x="25" y="135" type="line"/>
      <point x="710" y="1530" type="line"/>
      <point x="1057" y="1530" type="line"/>
      <point x="1304" y="138" type="line"/>
      <point x="1465" y="106" type="line"/>
      <point x="1459" y="0" type="line"/>
      <point x="1231" y="0" type="line"/>
      <point x="1121" y="-74"/>
      <point x="1037" y="-152"/>
      <point x="1037" y="-215" type="curve" smooth="yes"/>
      <point x="1037" y="-272"/>
      <point x="1065" y="-287"/>
      <point x="1104" y="-287" type="curve" smooth="yes"/>
      <point x="1159" y="-287"/>
      <point x="1201" y="-256"/>
      <point x="1257" y="-212" type="curve"/>
      <point x="1293" y="-326" type="line"/>
      <point x="1212" y="-409"/>
      <point x="1094" y="-480"/>
      <point x="949" y="-480" type="curve" smooth="yes"/>
      <point x="820" y="-480"/>
      <point x="756" y="-411"/>
      <point x="756" y="-306" type="curve" smooth="yes"/>
      <point x="756" y="-273"/>
      <point x="775" y="-220"/>
      <point x="801" y="-182" type="curve" smooth="yes"/>
      <point x="870" y="-81"/>
      <point x="944" y="-34"/>
      <point x="1012" y="0" type="curve"/>
      <point x="770" y="0" type="line"/>
      <point x="775" y="106" type="line"/>
      <point x="932" y="135" type="line"/>
      <point x="892" y="416" type="line"/>
      <point x="382" y="416" type="line"/>
      <point x="257" y="136" type="line"/>
      <point x="445" y="106" type="line"/>
      <point x="437" y="0" type="line"/>
    </contour>
    <contour>
      <point x="449" y="567" type="line"/>
      <point x="871" y="567" type="line"/>
      <point x="793" y="1117" type="line"/>
      <point x="784" y="1316" type="line"/>
    </contour>
  </outline>
</glyph>
<glyph name="aogonek" format="1">
  <advance width="1215"/>
  <unicode hex="0105"/>
  <outline>
    <contour>
      <point x="60" y="402" type="curve" smooth="yes"/>
      <point x="60" y="791"/>
      <point x="293" y="1163"/>
      <point x="746" y="1163" type="curve" smooth="yes"/>
      <point x="826" y="1163"/>
      <point x="923" y="1141"/>
      <point x="984" y="1120" type="curve"/>
      <point x="1136" y="1163" type="line"/>
      <point x="1007" y="227" type="line"/>
      <point x="1001" y="173"/>
      <point x="1016" y="151"/>
      <point x="1046" y="151" type="curve" smooth="yes"/>
      <point x="1065" y="151"/>
      <point x="1091" y="160"/>
      <point x="1139" y="197" type="curve"/>
      <point x="1167" y="124" type="line"/>
      <point x="1151" y="101"/>
      <point x="1104" y="48"/>
      <point x="1031" y="13" type="curve"/>
      <point x="913" y="-65"/>
      <point x="818" y="-148"/>
      <point x="818" y="-215" type="curve" smooth="yes"/>
      <point x="818" y="-272"/>
      <point x="846" y="-287"/>
      <point x="885" y="-287" type="curve" smooth="yes"/>
      <point x="940" y="-287"/>
      <point x="982" y="-256"/>
      <point x="1038" y="-212" type="curve"/>
      <point x="1074" y="-326" type="line"/>
      <point x="993" y="-409"/>
      <point x="875" y="-480"/>
      <point x="730" y="-480" type="curve" smooth="yes"/>
      <point x="601" y="-480"/>
      <point x="537" y="-411"/>
      <point x="537" y="-306" type="curve" smooth="yes"/>
      <point x="537" y="-273"/>
      <point x="556" y="-220"/>
      <point x="582" y="-182" type="curve" smooth="yes"/>
      <point x="650" y="-83"/>
      <point x="722" y="-35"/>
      <point x="790" y="-1" type="curve"/>
      <point x="746" y="18"/>
      <point x="719" y="55"/>
      <point x="717" y="106" type="curve"/>
      <point x="652" y="41"/>
      <point x="552" y="-20"/>
      <point x="413" y="-20" type="curve" smooth="yes"/>
      <point x="163" y="-20"/>
      <point x="60" y="172"/>
    </contour>
    <contour>
      <point x="554" y="154" type="curve" smooth="yes"/>
      <point x="601" y="154"/>
      <point x="644" y="177"/>
      <point x="680" y="209" type="curve"/>
      <point x="790" y="1017" type="line"/>
      <point x="768" y="1021"/>
      <point x="746" y="1023"/>
      <point x="722" y="1023" type="curve" smooth="yes"/>
      <point x="479" y="1023"/>
      <point x="406" y="680"/>
      <point x="406" y="413" type="curve" smooth="yes"/>
      <point x="406" y="249"/>
      <point x="463" y="154"/>
    </contour>
  </outline>
</glyph>
<glyph name="Cacute" format="1">
  <advance width="1300"/>
  <unicode hex="0106"/>
  <outline>
    <contour>
      <point x="60" y="637" type="curve" smooth="yes"/>
      <point x="60" y="1208"/>
      <point x="412" y="1549"/>
      <point x="949" y="1549" type="curve" smooth="yes"/>
      <point x="1172" y="1549"/>
      <point x="1234" y="1518"/>
      <point x="1308" y="1501" type="curve"/>
      <point x="1341" y="1492" type="line"/>
      <point x="1280" y="1092" type="line"/>
      <point x="1027" y="1092" type="line"/>
      <point x="987" y="1402" type="line"/>
      <point x="959" y="1413"/>
      <point x="927" y="1420"/>
      <point x="892" y="1420" type="curve" smooth="yes"/>
      <point x="574" y="1420"/>
      <point x="442" y="991"/>
      <point x="451" y="657" type="curve" smooth="yes"/>
      <point x="460" y="320"/>
      <point x="541" y="145"/>
      <point x="731" y="145" type="curve" smooth="yes"/>
      <point x="775" y="145"/>
      <point x="872" y="145"/>
      <point x="948" y="219" type="curve"/>
      <point x="984" y="260"/>
      <point x="1007" y="343"/>
      <point x="1028" y="419" type="curve"/>
      <point x="1229" y="420" type="line"/>
      <point x="1186" y="136" type="line"/>
      <point x="1109" y="73"/>
      <point x="975" y="-16"/>
      <point x="677" y="-16" type="curve" smooth="yes"/>
      <point x="225" y="-16"/>
      <point x="60" y="287"/>
    </contour>
    <contour>
      <point x="949" y="1570" type="curve"/>
      <point x="833" y="1672" type="line"/>
      <point x="1109" y="2014" type="line"/>
      <point x="1296" y="1829" type="line"/>
      <point x="1244" y="1728"/>
      <point x="1045" y="1606"/>
    </contour>
  </outline>
</glyph>
<glyph name="cdotaccent" format="1">
  <advance width="942"/>
  <unicode hex="010B"/>
  <outline>
    <contour>
      <point x="447" y="-20" type="curve" smooth="yes"/>
      <point x="212" y="-20"/>
      <point x="64" y="139"/>
      <point x="59" y="450" type="curve" smooth="yes"/>
      <point x="53" y="789"/>
      <point x="262" y="1163"/>
      <point x="705" y="1163" type="curve" smooth="yes"/>
      <point x="787" y="1163"/>
      <point x="894" y="1151"/>
      <point x="961" y="1125" type="curve"/>
      <point x="868" y="803" type="line"/>
      <point x="815" y="820"/>
      <point x="704" y="1006"/>
      <point x="633" y="1006" type="curve" smooth="yes"/>
      <point x="524" y="1006"/>
      <point x="392" y="782"/>
      <point x="400" y="460" type="curve" smooth="yes"/>
      <point x="405" y="250"/>
      <point x="459" y="169"/>
      <point x="575" y="169" type="curve" smooth="yes"/>
      <point x="704" y="169"/>
      <point x="776" y="228"/>
      <point x="829" y="297" type="curve"/>
      <point x="893" y="194" type="line"/>
      <point x="838" y="106"/>
      <point x="684" y="-20"/>
    </contour>
    <contour>
      <point x="683" y="1338" type="curve" smooth="yes"/>
      <point x="594" y="1338"/>
      <point x="519" y="1422"/>
      <point x="521" y="1505" type="curve" smooth="yes"/>
      <point x="524" y="1614"/>
      <point x="596" y="1701"/>
      <point x="719" y="1701" type="curve" smooth="yes"/>
      <point x="825" y="1701"/>
      <point x="891" y="1620"/>
      <point x="889" y="1540" type="curve" smooth="yes"/>
      <point x="886" y="1429"/>
      <point x="825" y="1338"/>
    </contour>
  </outline>
</glyph>
<glyph name="dcaron" format="1">
  <advance width="1459"/>
  <unicode hex="010F"/>
  <outline>
    <contour>
      <point x="1324" y="1035" type="line"/>
      <point x="1318" y="1060" type="line"/>
      <point x="1341" y="1123"/>
      <point x="1359" y="1245"/>
      <point x="1359" y="1361" type="curve" smooth="yes"/>
      <point x="1359" y="1436"/>
      <point x="1355" y="1532"/>
      <point x="1335" y="1562" type="curve"/>
      <point x="1354" y="1604" type="line"/>
      <point x="1561" y="1650" type="line"/>
      <point x="1586" y="1623"/>
      <point x="1599" y="1541"/>
      <point x="1599" y="1461" type="curve" smooth="yes"/>
      <point x="1599" y="1305"/>
      <point x="1549" y="1106"/>
      <point x="1454" y="1005" type="curve"/>
    </contour>
    <contour>
      <point x="404" y="-20" type="curve" smooth="yes"/>
      <point x="154" y="-20"/>
      <point x="60" y="172"/>
      <point x="60" y="402" type="curve" smooth="yes"/>
      <point x="60" y="791"/>
      <point x="274" y="1163"/>
      <point x="737" y="1163" type="curve" smooth="yes"/>
      <point x="769" y="1163"/>
      <point x="804" y="1159"/>
      <point x="839" y="1154" type="curve"/>
      <point x="887" y="1482" type="line"/>
      <point x="731" y="1525" type="line"/>
      <point x="750" y="1608" type="line"/>
      <point x="1182" y="1650" type="line"/>
      <point x="1238" y="1623" type="line"/>
      <point x="1036" y="229" type="line" smooth="yes"/>
      <point x="1029" y="181"/>
      <point x="1039" y="151"/>
      <point x="1071" y="151" type="curve" smooth="yes"/>
      <point x="1090" y="151"/>
      <point x="1114" y="160"/>
      <point x="1163" y="197" type="curve"/>
      <point x="1191" y="124" type="line"/>
      <point x="1168" y="97"/>
      <point x="1076" y="-20"/>
      <point x="912" y="-20" type="curve" smooth="yes"/>
      <point x="793" y="-20"/>
      <point x="744" y="38"/>
      <point x="736" y="147" type="curve"/>
      <point x="680" y="70"/>
      <point x="572" y="-20"/>
    </contour>
    <contour>
      <point x="545" y="154" type="curve" smooth="yes"/>
      <point x="613" y="154"/>
      <point x="669" y="203"/>
      <point x="707" y="257" type="curve"/>
      <point x="817" y="1007" type="line"/>
      <point x="786" y="1018"/>
      <point x="751" y="1023"/>
      <point x="713" y="1023" type="curve" smooth="yes"/>
      <point x="470" y="1023"/>
      <point x="401" y="680"/>
      <point x="401" y="413" type="curve" smooth="yes"/>
      <point x="401" y="249"/>
      <point x="454" y="154"/>
    </contour>
  </outline>
</glyph>
<glyph name="Dcroat" format="1">
  <advance width="1506"/>
  <unicode hex="0110"/>
  <outline>
    <contour>
      <point x="-44" y="2" type="line"/>
      <point x="-32" y="108" type="line"/>
      <point x="126" y="138" type="line"/>
      <point x="201" y="702" type="line"/>
      <point x="65" y="702" type="line"/>
      <point x="91" y="872" type="line"/>
      <point x="224" y="872" type="line"/>
      <point x="294" y="1396" type="line"/>
      <point x="150" y="1422" type="line"/>
      <point x="161" y="1532" type="line"/>
      <point x="478" y="1532" type="line"/>
      <point x="591" y="1533"/>
      <point x="717" y="1548"/>
      <point x="835" y="1548" type="curve" smooth="yes"/>
      <point x="1318" y="1550"/>
      <point x="1488" y="1273"/>
      <point x="1488" y="923" type="curve" smooth="yes"/>
      <point x="1488" y="373"/>
      <point x="1228" y="-14"/>
      <point x="592" y="-14" type="curve" smooth="yes"/>
      <point x="573" y="-14"/>
      <point x="536" y="-10"/>
      <point x="517" y="-7" type="curve"/>
      <point x="473" y="-3"/>
      <point x="387" y="1"/>
      <point x="324" y="2" type="curve"/>
    </contour>
    <contour>
      <point x="477" y="138" type="line"/>
      <point x="516" y="124"/>
      <point x="574" y="113"/>
      <point x="613" y="113" type="curve" smooth="yes"/>
      <point x="983" y="113"/>
      <point x="1111" y="549"/>
      <point x="1111" y="888" type="curve" smooth="yes"/>
      <point x="1111" y="1268"/>
      <point x="1014" y="1422"/>
      <point x="802" y="1422" type="curve" smooth="yes"/>
      <point x="722" y="1422"/>
      <point x="662" y="1407"/>
      <point x="643" y="1396" type="curve"/>
      <point x="574" y="872" type="line"/>
      <point x="870" y="872" type="line"/>
      <point x="844" y="702" type="line"/>
      <point x="551" y="702" type="line"/>
    </contour>
  </outline>
</glyph>
<glyph name="dcroat" format="1">
  <advance width="1259"/>
  <unicode hex="0111"/>
  <outline>
    <contour>
      <point x="64" y="402" type="curve" smooth="yes"/>
      <point x="64" y="791"/>
      <point x="278" y="1163"/>
      <point x="741" y="1163" type="curve" smooth="yes"/>
      <point x="773" y="1163"/>
      <point x="808" y="1159"/>
      <point x="843" y="1154" type="curve"/>
      <point x="859" y="1262" type="line"/>
      <point x="576" y="1262" type="line"/>
      <point x="592" y="1392" type="line"/>
      <point x="878" y="1392" type="line"/>
      <point x="891" y="1482" type="line"/>
      <point x="735" y="1525" type="line"/>
      <point x="754" y="1608" type="line"/>
      <point x="1186" y="1650" type="line"/>
      <point x="1242" y="1623" type="line"/>
      <point x="1208" y="1392" type="line"/>
      <point x="1334" y="1392" type="line"/>
      <point x="1318" y="1262" type="line"/>
      <point x="1189" y="1262" type="line"/>
      <point x="1040" y="229" type="line" smooth="yes"/>
      <point x="1033" y="181"/>
      <point x="1043" y="151"/>
      <point x="1075" y="151" type="curve" smooth="yes"/>
      <point x="1094" y="151"/>
      <point x="1118" y="160"/>
      <point x="1167" y="197" type="curve"/>
      <point x="1195" y="124" type="line"/>
      <point x="1172" y="97"/>
      <point x="1080" y="-20"/>
      <point x="916" y="-20" type="curve" smooth="yes"/>
      <point x="797" y="-20"/>
      <point x="748" y="38"/>
      <point x="740" y="147" type="curve"/>
      <point x="684" y="70"/>
      <point x="576" y="-20"/>
      <point x="408" y="-20" type="curve" smooth="yes"/>
      <point x="158" y="-20"/>
      <point x="64" y="172"/>
    </contour>
    <contour>
      <point x="549" y="154" type="curve" smooth="yes"/>
      <point x="617" y="154"/>
      <point x="673" y="203"/>
      <point x="711" y="257" type="curve"/>
      <point x="821" y="1007" type="line"/>
      <point x="790" y="1018"/>
      <point x="755" y="1023"/>
      <point x="717" y="1023" type="curve" smooth="yes"/>
      <point x="474" y="1023"/>
      <point x="405" y="680"/>
      <point x="405" y="413" type="curve" smooth="yes"/>
      <point x="405" y="249"/>
      <point x="458" y="154"/>
    </contour>
  </outline>
</glyph>
<glyph name="Gbreve" format="1">
  <advance width="1450"/>
  <unicode hex="011E"/>
  <outline>
    <contour>
      <point x="60" y="627" type="curve" smooth="yes"/>
      <point x="50" y="1175"/>
      <point x="338" y="1549"/>
      <point x="900" y="1549" type="curve" smooth="yes"/>
      <point x="1149" y="1549"/>
      <point x="1245" y="1511"/>
      <point x="1333" y="1490" type="curve"/>
      <point x="1395" y="1479" type="line"/>
      <point x="1327" y="1123" type="line"/>
      <point x="1080" y="1123" type="line"/>
      <point x="1072" y="1380" type="line"/>
      <point x="1025" y="1405"/>
      <point x="969" y="1420"/>
      <point x="903" y="1420" type="curve" smooth="yes"/>
      <point x="533" y="1420"/>
      <point x="433" y="1065"/>
      <point x="433" y="658" type="curve" smooth="yes"/>
      <point x="433" y="366"/>
      <point x="516" y="135"/>
      <point x="704" y="135" type="curve" smooth="yes"/>
      <point x="798" y="135"/>
      <point x="869" y="142"/>
      <point x="929" y="163" type="curve"/>
      <point x="978" y="590" type="line"/>
      <point x="776" y="607" type="line"/>
      <point x="795" y="753" type="line"/>
      <point x="1351" y="753" type="line"/>
      <point x="1265" y="84" type="line"/>
      <point x="1222" y="80"/>
      <point x="1134" y="67"/>
      <point x="1075" y="51" type="curve" smooth="yes"/>
      <point x="957" y="21"/>
      <point x="823" y="-16"/>
      <point x="637" y="-16" type="curve" smooth="yes"/>
      <point x="230" y="-16"/>
      <point x="66" y="287"/>
    </contour>
    <contour>
      <point x="1193" y="1271" type="line" smooth="yes"/>
      <point x="1184" y="1284"/>
      <point x="1174" y="1298"/>
      <point x="1163" y="1310" type="curve"/>
    </contour>
    <contour>
      <point x="916" y="1633" type="curve" smooth="yes"/>
      <point x="678" y="1633"/>
      <point x="604" y="1796"/>
      <point x="604" y="1946" type="curve" smooth="yes"/>
      <point x="604" y="1969"/>
      <point x="606" y="1992"/>
      <point x="609" y="2014" type="curve"/>
      <point x="793" y="2014" type="line"/>
      <point x="793" y="2000"/>
      <point x="792" y="1985"/>
      <point x="792" y="1969" type="curve" smooth="yes"/>
      <point x="792" y="1909"/>
      <point x="805" y="1850"/>
      <point x="921" y="1850" type="curve" smooth="yes"/>
      <point x="1068" y="1850"/>
      <point x="1080" y="1934"/>
      <point x="1083" y="2014" type="curve"/>
      <point x="1265" y="2014" type="line"/>
      <point x="1266" y="2003"/>
      <point x="1266" y="1991"/>
      <point x="1266" y="1980" type="curve" smooth="yes"/>
      <point x="1266" y="1821"/>
      <point x="1168" y="1633"/>
    </contour>
  </outline>
</glyph>
<glyph name="gdotaccent" format="1">
  <advance width="1218"/>
  <unicode hex="0121"/>
  <outline>
    <contour>
      <point x="153" y="-258" type="line"/>
      <point x="173" y="-277"/>
      <point x="308" y="-349"/>
      <point x="426" y="-349" type="curve" smooth="yes"/>
      <point x="562" y="-349"/>
      <point x="634" y="-327"/>
      <point x="655" y="-145" type="curve" smooth="yes"/>
      <point x="680" y="73" type="line"/>
      <point x="617" y="22"/>
      <point x="528" y="-20"/>
      <point x="413" y="-20" type="curve" smooth="yes"/>
      <point x="163" y="-20"/>
      <point x="60" y="172"/>
      <point x="60" y="402" type="curve" smooth="yes"/>
      <point x="60" y="791"/>
      <point x="293" y="1163"/>
      <point x="746" y="1163" type="curve" smooth="yes"/>
      <point x="830" y="1163"/>
      <point x="934" y="1138"/>
      <point x="994" y="1117" type="curve"/>
      <point x="1156" y="1163" type="line"/>
      <point x="989" y="-77" type="line"/>
      <point x="945" y="-429"/>
      <point x="638" y="-518"/>
      <point x="370" y="-518" type="curve" smooth="yes"/>
      <point x="272" y="-518"/>
      <point x="142" y="-492"/>
      <point x="102" y="-473" type="curve"/>
    </contour>
    <contour>
      <point x="554" y="154" type="curve" smooth="yes"/>
      <point x="609" y="154"/>
      <point x="660" y="186"/>
      <point x="699" y="227" type="curve"/>
      <point x="814" y="1012" type="line"/>
      <point x="786" y="1020"/>
      <point x="755" y="1023"/>
      <point x="722" y="1023" type="curve" smooth="yes"/>
      <point x="479" y="1023"/>
      <point x="406" y="680"/>
      <point x="406" y="413" type="curve" smooth="yes"/>
      <point x="406" y="249"/>
      <point x="463" y="154"/>
    </contour>
    <contour>
      <point x="803" y="1338" type="curve" smooth="yes"/>
      <point x="714" y="1338"/>
      <point x="639" y="1422"/>
      <point x="641" y="1505" type="curve" smooth="yes"/>
      <point x="644" y="1614"/>
      <point x="716" y="1701"/>
      <point x="839" y="1701" type="curve" smooth="yes"/>
      <point x="945" y="1701"/>
      <point x="1011" y="1620"/>
      <point x="1009" y="1540" type="curve" smooth="yes"/>
      <point x="1006" y="1429"/>
      <point x="945" y="1338"/>
    </contour>
  </outline>
</glyph>
<glyph name="gcommaaccent" format="1">
  <advance width="1220"/>
  <unicode hex="0123"/>
  <outline>
    <contour>
      <point x="741" y="1251" type="line"/>
      <point x="651" y="1270"/>
      <point x="583" y="1358"/>
      <point x="583" y="1463" type="curve" smooth="yes"/>
      <point x="583" y="1634"/>
      <point x="707" y="1755"/>
      <point x="810" y="1774" type="curve"/>
      <point x="910" y="1704" type="line"/>
      <point x="907" y="1678" type="line"/>
      <point x="884" y="1665"/>
      <point x="839" y="1621"/>
      <point x="839" y="1549" type="curve" smooth="yes"/>
      <point x="839" y="1499"/>
      <point x="867" y="1452"/>
      <point x="906" y="1448" type="curve"/>
      <point x="895" y="1355" type="line"/>
    </contour>
    <contour>
      <point x="155" y="-258" type="line"/>
      <point x="175" y="-277"/>
      <point x="310" y="-349"/>
      <point x="428" y="-349" type="curve" smooth="yes"/>
      <point x="564" y="-349"/>
      <point x="636" y="-327"/>
      <point x="657" y="-145" type="curve" smooth="yes"/>
      <point x="682" y="73" type="line"/>
      <point x="619" y="22"/>
      <point x="530" y="-20"/>
      <point x="415" y="-20" type="curve" smooth="yes"/>
      <point x="165" y="-20"/>
      <point x="62" y="172"/>
      <point x="62" y="402" type="curve" smooth="yes"/>
      <point x="62" y="791"/>
      <point x="295" y="1163"/>
      <point x="748" y="1163" type="curve" smooth="yes"/>
      <point x="832" y="1163"/>
      <point x="936" y="1138"/>
      <point x="996" y="1117" type="curve"/>
      <point x="1158" y="1163" type="line"/>
      <point x="991" y="-77" type="line"/>
      <point x="947" y="-429"/>
      <point x="640" y="-518"/>
      <point x="372" y="-518" type="curve" smooth="yes"/>
      <point x="274" y="-518"/>
      <point x="144" y="-492"/>
      <point x="104" y="-473" type="curve"/>
    </contour>
    <contour>
      <point x="556" y="154" type="curve" smooth="yes"/>
      <point x="611" y="154"/>
      <point x="662" y="186"/>
      <point x="701" y="227" type="curve"/>
      <point x="816" y="1012" type="line"/>
      <point x="788" y="1020"/>
      <point x="757" y="1023"/>
      <point x="724" y="1023" type="curve" smooth="yes"/>
      <point x="481" y="1023"/>
      <point x="408" y="680"/>
      <point x="408" y="413" type="curve" smooth="yes"/>
      <point x="408" y="249"/>
      <point x="465" y="154"/>
    </contour>
  </outline>
</glyph>
<glyph name="hcircumflex" format="1">
  <advance width="1302"/>
  <unicode hex="0125"/>
  <outline>
    <contour>
      <point x="73" y="0" type="line"/>
      <point x="252" y="1482" type="line"/>
      <point x="125" y="1525" type="line"/>
      <point x="141" y="1608" type="line"/>
      <point x="550" y="1650" type="line"/>
      <point x="605" y="1623" type="line"/>
      <point x="602" y="1599" type="line"/>
      <point x="819" y="1810" type="line"/>
      <point x="997" y="1810" type="line"/>
      <point x="1207" y="1453" type="line"/>
      <point x="1083" y="1395" type="line"/>
      <point x="882" y="1602" type="line"/>
      <point x="578" y="1408" type="line"/>
      <point x="518" y="915" type="line"/>
      <point x="606" y="1063"/>
      <point x="739" y="1163"/>
      <point x="902" y="1163" type="curve" smooth="yes"/>
      <point x="1056" y="1163"/>
      <point x="1167" y="1085"/>
      <point x="1167" y="861" type="curve" smooth="yes"/>
      <point x="1167" y="801"/>
      <point x="1137" y="617"/>
      <point x="1118" y="505" type="curve" smooth="yes"/>
      <point x="1101" y="403"/>
      <point x="1076" y="280"/>
      <point x="1076" y="206" type="curve" smooth="yes"/>
      <point x="1076" y="158"/>
      <point x="1095" y="151"/>
      <point x="1115" y="151" type="curve" smooth="yes"/>
      <point x="1137" y="151"/>
      <point x="1157" y="161"/>
      <point x="1205" y="197" type="curve"/>
      <point x="1233" y="124" type="line"/>
      <point x="1211" y="95"/>
      <point x="1113" y="-21"/>
      <point x="933" y="-21" type="curve" smooth="yes"/>
      <point x="753" y="-21"/>
      <point x="730" y="63"/>
      <point x="730" y="150" type="curve" smooth="yes"/>
      <point x="730" y="206"/>
      <point x="755" y="331"/>
      <point x="776" y="443" type="curve"/>
      <point x="795" y="550"/>
      <point x="823" y="709"/>
      <point x="821" y="825" type="curve" smooth="yes"/>
      <point x="819" y="935"/>
      <point x="795" y="965"/>
      <point x="742" y="965" type="curve" smooth="yes"/>
      <point x="660" y="965"/>
      <point x="554" y="844"/>
      <point x="492" y="705" type="curve"/>
      <point x="406" y="0" type="line"/>
    </contour>
  </outline>
</glyph>
<glyph name="Hbar" format="1">
  <advance width="1653"/>
  <unicode hex="0126"/>
  <outline>
    <contour>
      <point x="-21" y="0" type="line"/>
      <point x="-10" y="106" type="line"/>
      <point x="128" y="136" type="line"/>
      <point x="234" y="973" type="line"/>
      <point x="60" y="973" type="line"/>
      <point x="74" y="1123" type="line"/>
      <point x="253" y="1123" type="line"/>
      <point x="288" y="1394" type="line"/>
      <point x="143" y="1420" type="line"/>
      <point x="157" y="1530" type="line"/>
      <point x="832" y="1530" type="line"/>
      <point x="820" y="1420" type="line"/>
      <point x="640" y="1394" type="line"/>
      <point x="605" y="1123" type="line"/>
      <point x="1157" y="1123" type="line"/>
      <point x="1192" y="1394" type="line"/>
      <point x="1015" y="1420" type="line"/>
      <point x="1027" y="1530" type="line"/>
      <point x="1710" y="1530" type="line"/>
      <point x="1698" y="1420" type="line"/>
      <point x="1544" y="1394" type="line"/>
      <point x="1510" y="1123" type="line"/>
      <point x="1688" y="1123" type="line"/>
      <point x="1674" y="973" type="line"/>
      <point x="1491" y="973" type="line"/>
      <point x="1385" y="136" type="line"/>
      <point x="1542" y="106" type="line"/>
      <point x="1530" y="0" type="line"/>
      <point x="827" y="0" type="line"/>
      <point x="841" y="106" type="line"/>
      <point x="1032" y="136" type="line"/>
      <point x="1091" y="604" type="line"/>
      <point x="539" y="604" type="line"/>
      <point x="480" y="136" type="line"/>
      <point x="654" y="106" type="line"/>
      <point x="646" y="0" type="line"/>
    </contour>
    <contour>
      <point x="559" y="763" type="line"/>
      <point x="1111" y="763" type="line"/>
      <point x="1138" y="973" type="line"/>
      <point x="586" y="973" type="line"/>
    </contour>
  </outline>
</glyph>
<glyph name="itilde" format="1">
  <advance width="669"/>
  <unicode hex="0129"/>
  <outline>
    <contour>
      <point x="108" y="129" type="curve" smooth="yes"/>
      <point x="132" y="288"/>
      <point x="170" y="596"/>
      <point x="221" y="980" type="curve"/>
      <point x="57" y="1031" type="line"/>
      <point x="75" y="1112" type="line"/>
      <point x="521" y="1163" type="line"/>
      <point x="576" y="1139" type="line"/>
      <point x="448" y="227" type="line" smooth="yes"/>
      <point x="441" y="178"/>
      <point x="453" y="151"/>
      <point x="483" y="151" type="curve" smooth="yes"/>
      <point x="506" y="151"/>
      <point x="529" y="163"/>
      <point x="575" y="197" type="curve"/>
      <point x="603" y="124" type="line"/>
      <point x="579" y="94"/>
      <point x="482" y="-20"/>
      <point x="307" y="-20" type="curve" smooth="yes"/>
      <point x="165" y="-20"/>
      <point x="95" y="42"/>
    </contour>
    <contour>
      <point x="114" y="1387" type="curve"/>
      <point x="37" y="1511" type="line"/>
      <point x="78" y="1594"/>
      <point x="194" y="1680"/>
      <point x="294" y="1680" type="curve" smooth="yes"/>
      <point x="449" y="1680"/>
      <point x="474" y="1530"/>
      <point x="573" y="1530" type="curve" smooth="yes"/>
      <point x="647" y="1530"/>
      <point x="687" y="1582"/>
      <point x="725" y="1630" type="curve"/>
      <point x="813" y="1499" type="line"/>
      <point x="779" y="1412"/>
      <point x="666" y="1318"/>
      <point x="562" y="1318" type="curve" smooth="yes"/>
      <point x="385" y="1318"/>
      <point x="381" y="1465"/>
      <point x="261" y="1468" type="curve" smooth="yes"/>
      <point x="199" y="1469"/>
      <point x="152" y="1427"/>
    </contour>
  </outline>
</glyph>
<glyph name="iogonek" format="1">
  <advance width="667"/>
  <unicode hex="012F"/>
  <outline>
    <contour>
      <point x="419" y="1338" type="curve" smooth="yes"/>
      <point x="330" y="1338"/>
      <point x="255" y="1422"/>
      <point x="257" y="1505" type="curve" smooth="yes"/>
      <point x="260" y="1614"/>
      <point x="332" y="1701"/>
      <point x="455" y="1701" type="curve" smooth="yes"/>
      <point x="561" y="1701"/>
      <point x="627" y="1620"/>
      <point x="625" y="1540" type="curve" smooth="yes"/>
      <point x="622" y="1429"/>
      <point x="561" y="1338"/>
    </contour>
    <contour>
      <point x="107" y="129" type="curve" smooth="yes"/>
      <point x="131" y="288"/>
      <point x="169" y="596"/>
      <point x="220" y="980" type="curve"/>
      <point x="56" y="1031" type="line"/>
      <point x="74" y="1112" type="line"/>
      <point x="520" y="1163" type="line"/>
      <point x="575" y="1139" type="line"/>
      <point x="447" y="227" type="line" smooth="yes"/>
      <point x="440" y="178"/>
      <point x="452" y="151"/>
      <point x="482" y="151" type="curve" smooth="yes"/>
      <point x="505" y="151"/>
      <point x="528" y="163"/>
      <point x="574" y="197" type="curve"/>
      <point x="602" y="124" type="line"/>
      <point x="588" y="107"/>
      <point x="553" y="64"/>
      <point x="494" y="30" type="curve"/>
      <point x="363" y="-54"/>
      <point x="254" y="-143"/>
      <point x="254" y="-215" type="curve" smooth="yes"/>
      <point x="254" y="-272"/>
      <point x="282" y="-287"/>
      <point x="321" y="-287" type="curve" smooth="yes"/>
      <point x="376" y="-287"/>
      <point x="418" y="-256"/>
      <point x="474" y="-212" type="curve"/>
      <point x="510" y="-326" type="line"/>
      <point x="429" y="-409"/>
      <point x="311" y="-480"/>
      <point x="166" y="-480" type="curve" smooth="yes"/>
      <point x="37" y="-480"/>
      <point x="-27" y="-411"/>
      <point x="-27" y="-306" type="curve" smooth="yes"/>
      <point x="-27" y="-273"/>
      <point x="-8" y="-220"/>
      <point x="18" y="-182" type="curve" smooth="yes"/>
      <point x="82" y="-89"/>
      <point x="148" y="-42"/>
      <point x="212" y="-9" type="curve"/>
      <point x="133" y="12"/>
      <point x="97" y="64"/>
    </contour>
  </outline>
</glyph>
<glyph name="ij" format="1">
  <advance width="1317"/>
  <unicode hex="0133"/>
  <outline>
    <contour>
      <point x="437" y="1338" type="curve" smooth="yes"/>
      <point x="348" y="1338"/>
      <point x="273" y="1422"/>
      <point x="275" y="1505" type="curve" smooth="yes"/>
      <point x="278" y="1614"/>
      <point x="350" y="1701"/>
      <point x="473" y="1701" type="curve" smooth="yes"/>
      <point x="579" y="1701"/>
      <point x="645" y="1620"/>
      <point x="643" y="1540" type="curve" smooth="yes"/>
      <point x="640" y="1429"/>
      <point x="579" y="1338"/>
    </contour>
    <contour>
      <point x="107" y="129" type="curve" smooth="yes"/>
      <point x="131" y="288"/>
      <point x="169" y="596"/>
      <point x="220" y="980" type="curve"/>
      <point x="56" y="1031" type="line"/>
      <point x="74" y="1112" type="line"/>
      <point x="520" y="1163" type="line"/>
      <point x="575" y="1139" type="line"/>
      <point x="447" y="227" type="line" smooth="yes"/>
      <point x="440" y="178"/>
      <point x="452" y="151"/>
      <point x="482" y="151" type="curve" smooth="yes"/>
      <point x="505" y="151"/>
      <point x="528" y="163"/>
      <point x="574" y="197" type="curve"/>
      <point x="602" y="124" type="line"/>
      <point x="578" y="94"/>
      <point x="481" y="-20"/>
      <point x="306" y="-20" type="curve" smooth="yes"/>
      <point x="164" y="-20"/>
      <point x="94" y="42"/>
    </contour>
    <contour>
      <point x="781" y="65" type="curve" smooth="yes"/>
      <point x="886" y="980" type="line"/>
      <point x="720" y="1031" type="line"/>
      <point x="741" y="1112" type="line"/>
      <point x="1192" y="1163" type="line"/>
      <point x="1244" y="1139" type="line"/>
      <point x="1107" y="0" type="line"/>
      <point x="1063" y="-347"/>
      <point x="835" y="-528"/>
      <point x="587" y="-528" type="curve" smooth="yes"/>
      <point x="507" y="-528"/>
      <point x="443" y="-516"/>
      <point x="416" y="-491" type="curve"/>
      <point x="454" y="-370" type="line"/>
      <point x="472" y="-376"/>
      <point x="518" y="-382"/>
      <point x="528" y="-382" type="curve" smooth="yes"/>
      <point x="717" y="-382"/>
      <point x="754" y="-170"/>
    </contour>
    <contour>
      <point x="1094" y="1338" type="curve" smooth="yes"/>
      <point x="1005" y="1338"/>
      <point x="930" y="1422"/>
      <point x="932" y="1505" type="curve" smooth="yes"/>
      <point x="935" y="1614"/>
      <point x="1007" y="1701"/>
      <point x="1130" y="1701" type="curve" smooth="yes"/>
      <point x="1236" y="1701"/>
      <point x="1302" y="1620"/>
      <point x="1300" y="1540" type="curve" smooth="yes"/>
      <point x="1297" y="1429"/>
      <point x="1236" y="1338"/>
    </contour>
  </outline>
</glyph>
<glyph name="kcommaaccent" format="1">
  <advance width="1159"/>
  <unicode hex="0137"/>
  <outline>
    <contour>
      <point x="74" y="0" type="line"/>
      <point x="269" y="1482" type="line"/>
      <point x="141" y="1525" type="line"/>
      <point x="158" y="1608" type="line"/>
      <point x="567" y="1650" type="line"/>
      <point x="622" y="1623" type="line"/>
      <point x="407" y="0" type="line"/>
    </contour>
    <contour>
      <point x="675" y="101" type="curve" smooth="yes"/>
      <point x="489" y="610" type="line"/>
      <point x="494" y="611" type="line"/>
      <point x="489" y="611" type="line"/>
      <point x="589" y="663"/>
      <point x="671" y="707"/>
      <point x="789" y="863" type="curve" smooth="yes"/>
      <point x="826" y="912"/>
      <point x="842" y="964"/>
      <point x="842" y="1028" type="curve" smooth="yes"/>
      <point x="842" y="1137"/>
      <point x="938" y="1163"/>
      <point x="1007" y="1163" type="curve" smooth="yes"/>
      <point x="1092" y="1163"/>
      <point x="1137" y="1103"/>
      <point x="1137" y="1034" type="curve" smooth="yes"/>
      <point x="1137" y="960"/>
      <point x="1108" y="910"/>
      <point x="1080" y="872" type="curve"/>
      <point x="1006" y="778"/>
      <point x="887" y="704"/>
      <point x="775" y="654" type="curve"/>
      <point x="959" y="274" type="line"/>
      <point x="991" y="213"/>
      <point x="1033" y="182"/>
      <point x="1066" y="182" type="curve" smooth="yes"/>
      <point x="1090" y="182"/>
      <point x="1143" y="198"/>
      <point x="1182" y="228" type="curve"/>
      <point x="1216" y="157" type="line"/>
      <point x="1177" y="109"/>
      <point x="1042" y="-19"/>
      <point x="872" y="-19" type="curve" smooth="yes"/>
      <point x="755" y="-19"/>
      <point x="701" y="30"/>
    </contour>
    <contour>
      <point x="447" y="-141" type="line"/>
      <point x="601" y="-37" type="line"/>
      <point x="691" y="-56"/>
      <point x="759" y="-144"/>
      <point x="759" y="-249" type="curve" smooth="yes"/>
      <point x="759" y="-420"/>
      <point x="635" y="-541"/>
      <point x="532" y="-560" type="curve"/>
      <point x="432" y="-490" type="line"/>
      <point x="435" y="-464" type="line"/>
      <point x="458" y="-451"/>
      <point x="503" y="-407"/>
      <point x="503" y="-335" type="curve" smooth="yes"/>
      <point x="503" y="-285"/>
      <point x="475" y="-238"/>
      <point x="436" y="-234" type="curve"/>
    </contour>
  </outline>
</glyph>
<glyph name="kgreenlandic" format="1">
  <advance width="1219"/>
  <unicode hex="0138"/>
  <outline>
    <contour>
      <point x="82" y="0" type="line"/>
      <point x="213" y="962" type="line"/>
      <point x="106" y="1022" type="line"/>
      <point x="122" y="1111" type="line"/>
      <point x="496" y="1163" type="line"/>
      <point x="548" y="1139" type="line"/>
      <point x="406" y="0" type="line"/>
    </contour>
    <contour>
      <point x="674" y="101" type="curve" smooth="yes"/>
      <point x="488" y="610" type="line"/>
      <point x="918" y="1154" type="line"/>
      <point x="1189" y="1154" type="line"/>
      <point x="769" y="665" type="line"/>
      <point x="958" y="274" type="line"/>
      <point x="990" y="213"/>
      <point x="1032" y="182"/>
      <point x="1065" y="182" type="curve" smooth="yes"/>
      <point x="1089" y="182"/>
      <point x="1142" y="198"/>
      <point x="1181" y="228" type="curve"/>
      <point x="1215" y="157" type="line"/>
      <point x="1176" y="109"/>
      <point x="1041" y="-19"/>
      <point x="871" y="-19" type="curve" smooth="yes"/>
      <point x="754" y="-19"/>
      <point x="700" y="30"/>
    </contour>
  </outline>
</glyph>
<glyph name="lacute" format="1">
  <advance width="634"/>
  <unicode hex="013A"/>
  <outline>
    <contour>
      <point x="75" y="115" type="curve" smooth="yes"/>
      <point x="75" y="139"/>
      <point x="81" y="176"/>
      <point x="83" y="192" type="curve" smooth="yes"/>
      <point x="254" y="1362" type="line"/>
      <point x="122" y="1405" type="line"/>
      <point x="142" y="1488" type="line"/>
      <point x="548" y="1530" type="line"/>
      <point x="599" y="1503" type="line"/>
      <point x="415" y="227" type="line" smooth="yes"/>
      <point x="408" y="180"/>
      <point x="418" y="151"/>
      <point x="450" y="151" type="curve" smooth="yes"/>
      <point x="471" y="151"/>
      <point x="490" y="158"/>
      <point x="542" y="197" type="curve"/>
      <point x="570" y="124" type="line"/>
      <point x="548" y="95"/>
      <point x="454" y="-20"/>
      <point x="290" y="-20" type="curve" smooth="yes"/>
      <point x="182" y="-20"/>
      <point x="77" y="17"/>
    </contour>
    <contour>
      <point x="458" y="1570" type="curve"/>
      <point x="342" y="1672" type="line"/>
      <point x="618" y="2014" type="line"/>
      <point x="805" y="1829" type="line"/>
      <point x="753" y="1728"/>
      <point x="554" y="1606"/>
    </contour>
  </outline>
</glyph>
<glyph name="Lcommaaccent" format="1">
  <advance width="1271"/>
  <unicode hex="013B"/>
  <outline>
    <contour>
      <point x="-22" y="0" type="line"/>
      <point x="-10" y="106" type="line"/>
      <point x="128" y="136" type="line"/>
      <point x="293" y="1394" type="line"/>
      <point x="147" y="1420" type="line"/>
      <point x="160" y="1530" type="line"/>
      <point x="839" y="1530" type="line"/>
      <point x="827" y="1420" type="line"/>
      <point x="645" y="1394" type="line"/>
      <point x="479" y="129" type="line"/>
      <point x="828" y="149" type="line"/>
      <point x="1019" y="600" type="line"/>
      <point x="1200" y="577" type="line"/>
      <point x="1116" y="0" type="line"/>
    </contour>
    <contour>
      <point x="445" y="-139" type="line"/>
      <point x="599" y="-35" type="line"/>
      <point x="689" y="-54"/>
      <point x="757" y="-142"/>
      <point x="757" y="-247" type="curve" smooth="yes"/>
      <point x="757" y="-418"/>
      <point x="633" y="-539"/>
      <point x="530" y="-558" type="curve"/>
      <point x="430" y="-488" type="line"/>
      <point x="433" y="-462" type="line"/>
      <point x="456" y="-449"/>
      <point x="501" y="-405"/>
      <point x="501" y="-333" type="curve" smooth="yes"/>
      <point x="501" y="-283"/>
      <point x="473" y="-236"/>
      <point x="434" y="-232" type="curve"/>
    </contour>
  </outline>
</glyph>
<glyph name="Ncaron" format="1">
  <advance width="1545"/>
  <unicode hex="0147"/>
  <outline>
    <contour>
      <point x="-33" y="0" type="line"/>
      <point x="-25" y="106" type="line"/>
      <point x="124" y="136" type="line"/>
      <point x="310" y="1394" type="line"/>
      <point x="140" y="1420" type="line"/>
      <point x="156" y="1530" type="line"/>
      <point x="713" y="1530" type="line"/>
      <point x="1084" y="535" type="line"/>
      <point x="1162" y="305" type="line"/>
      <point x="1298" y="1394" type="line"/>
      <point x="1126" y="1420" type="line"/>
      <point x="1137" y="1530" type="line"/>
      <point x="1639" y="1530" type="line"/>
      <point x="1628" y="1420" type="line"/>
      <point x="1505" y="1394" type="line"/>
      <point x="1293" y="0" type="line"/>
      <point x="935" y="0" type="line"/>
      <point x="544" y="1028" type="line"/>
      <point x="466" y="1282" type="line"/>
      <point x="341" y="136" type="line"/>
      <point x="531" y="106" type="line"/>
      <point x="520" y="0" type="line"/>
    </contour>
    <contour>
      <point x="830" y="1599" type="line"/>
      <point x="620" y="1956" type="line"/>
      <point x="744" y="2014" type="line"/>
      <point x="945" y="1842" type="line"/>
      <point x="1268" y="2014" type="line"/>
      <point x="1375" y="1957" type="line"/>
      <point x="1007" y="1599" type="line"/>
    </contour>
  </outline>
</glyph>
<glyph name="ncaron" format="1">
  <advance width="1308"/>
  <unicode hex="0148"/>
  <outline>
    <contour>
      <point x="83" y="0" type="line"/>
      <point x="214" y="962" type="line"/>
      <point x="107" y="1022" type="line"/>
      <point x="123" y="1111" type="line"/>
      <point x="497" y="1163" type="line"/>
      <point x="549" y="1139" type="line"/>
      <point x="533" y="929" type="line"/>
      <point x="621" y="1069"/>
      <point x="750" y="1163"/>
      <point x="908" y="1163" type="curve" smooth="yes"/>
      <point x="1062" y="1163"/>
      <point x="1173" y="1085"/>
      <point x="1173" y="861" type="curve" smooth="yes"/>
      <point x="1173" y="801"/>
      <point x="1143" y="617"/>
      <point x="1124" y="505" type="curve" smooth="yes"/>
      <point x="1107" y="403"/>
      <point x="1082" y="280"/>
      <point x="1082" y="206" type="curve" smooth="yes"/>
      <point x="1082" y="158"/>
      <point x="1101" y="151"/>
      <point x="1121" y="151" type="curve" smooth="yes"/>
      <point x="1143" y="151"/>
      <point x="1163" y="161"/>
      <point x="1211" y="197" type="curve"/>
      <point x="1239" y="124" type="line"/>
      <point x="1217" y="95"/>
      <point x="1119" y="-21"/>
      <point x="939" y="-21" type="curve" smooth="yes"/>
      <point x="759" y="-21"/>
      <point x="736" y="73"/>
      <point x="736" y="150" type="curve" smooth="yes"/>
      <point x="736" y="206"/>
      <point x="761" y="331"/>
      <point x="782" y="443" type="curve"/>
      <point x="801" y="550"/>
      <point x="829" y="709"/>
      <point x="827" y="825" type="curve" smooth="yes"/>
      <point x="825" y="935"/>
      <point x="801" y="965"/>
      <point x="748" y="965" type="curve" smooth="yes"/>
      <point x="669" y="965"/>
      <point x="568" y="853"/>
      <point x="506" y="721" type="curve"/>
      <point x="407" y="0" type="line"/>
    </contour>
    <contour>
      <point x="628" y="1238" type="line"/>
      <point x="418" y="1612" type="line"/>
      <point x="542" y="1670" type="line"/>
      <point x="743" y="1460" type="line"/>
      <point x="1066" y="1669" type="line"/>
      <point x="1173" y="1612" type="line"/>
      <point x="805" y="1238" type="line"/>
    </contour>
  </outline>
</glyph>
<glyph name="eng" format="1">
  <advance width="1290"/>
  <unicode hex="014B"/>
  <outline>
    <contour>
      <point x="82" y="0" type="line"/>
      <point x="213" y="962" type="line"/>
      <point x="106" y="1022" type="line"/>
      <point x="122" y="1111" type="line"/>
      <point x="496" y="1163" type="line"/>
      <point x="548" y="1139" type="line"/>
      <point x="532" y="930" type="line"/>
      <point x="608" y="1051"/>
      <point x="726" y="1162"/>
      <point x="907" y="1162" type="curve" smooth="yes"/>
      <point x="1055" y="1162"/>
      <point x="1191" y="1095"/>
      <point x="1172" y="861" type="curve" smooth="yes"/>
      <point x="1140" y="483"/>
      <point x="1111" y="204"/>
      <point x="1070" y="0" type="curve" smooth="yes"/>
      <point x="984" y="-430"/>
      <point x="850" y="-528"/>
      <point x="552" y="-528" type="curve" smooth="yes"/>
      <point x="479" y="-528"/>
      <point x="404" y="-515"/>
      <point x="382" y="-491" type="curve"/>
      <point x="420" y="-370" type="line"/>
      <point x="438" y="-378"/>
      <point x="483" y="-382"/>
      <point x="494" y="-382" type="curve" smooth="yes"/>
      <point x="649" y="-382"/>
      <point x="704" y="-253"/>
      <point x="739" y="0" type="curve" smooth="yes"/>
      <point x="767" y="199"/>
      <point x="783" y="474"/>
      <point x="826" y="825" type="curve" smooth="yes"/>
      <point x="837" y="912"/>
      <point x="811" y="965"/>
      <point x="748" y="965" type="curve" smooth="yes"/>
      <point x="685" y="965"/>
      <point x="587" y="890"/>
      <point x="504" y="719" type="curve"/>
      <point x="406" y="0" type="line"/>
    </contour>
  </outline>
</glyph>
<glyph name="Omacron" format="1">
  <advance width="1500"/>
  <unicode hex="014C"/>
  <outline>
    <contour>
      <point x="55" y="637" type="curve" smooth="yes"/>
      <point x="55" y="1099"/>
      <point x="311" y="1550"/>
      <point x="865" y="1550" type="curve" smooth="yes"/>
      <point x="1292" y="1550"/>
      <point x="1465" y="1238"/>
      <point x="1465" y="893" type="curve" smooth="yes"/>
      <point x="1465" y="440"/>
      <point x="1234" y="-20"/>
      <point x="655" y="-20" type="curve" smooth="yes"/>
      <point x="236" y="-20"/>
      <point x="55" y="264"/>
    </contour>
    <contour>
      <point x="684" y="102" type="curve" smooth="yes"/>
      <point x="958" y="102"/>
      <point x="1084" y="451"/>
      <point x="1084" y="881" type="curve" smooth="yes"/>
      <point x="1084" y="1217"/>
      <point x="1017" y="1426"/>
      <point x="838" y="1426" type="curve" smooth="yes"/>
      <point x="577" y="1426"/>
      <point x="436" y="1037"/>
      <point x="436" y="649" type="curve" smooth="yes"/>
      <point x="436" y="392"/>
      <point x="471" y="102"/>
    </contour>
    <contour>
      <point x="598" y="1707" type="line"/>
      <point x="598" y="1916" type="line"/>
      <point x="1169" y="1916" type="line"/>
      <point x="1169" y="1707" type="line"/>
    </contour>
  </outline>
</glyph>
<glyph name="ohungarumlaut" format="1">
  <advance width="1197"/>
  <unicode hex="0151"/>
  <outline>
    <contour>
      <point x="61" y="439" type="curve"/>
      <point x="48" y="832"/>
      <point x="293" y="1163"/>
      <point x="686" y="1163" type="curve" smooth="yes"/>
      <point x="970" y="1163"/>
      <point x="1122" y="994"/>
      <point x="1131" y="703" type="curve" smooth="yes"/>
      <point x="1144" y="310"/>
      <point x="898" y="-20"/>
      <point x="505" y="-20" type="curve" smooth="yes"/>
      <point x="220" y="-20"/>
      <point x="72" y="148"/>
    </contour>
    <contour>
      <point x="550" y="107" type="curve" smooth="yes"/>
      <point x="729" y="107"/>
      <point x="779" y="446"/>
      <point x="772" y="707" type="curve" smooth="yes"/>
      <point x="766" y="938"/>
      <point x="729" y="1025"/>
      <point x="651" y="1025" type="curve" smooth="yes"/>
      <point x="471" y="1025"/>
      <point x="410" y="688"/>
      <point x="418" y="435" type="curve" smooth="yes"/>
      <point x="425" y="202"/>
      <point x="456" y="107"/>
    </contour>
    <contour>
      <point x="901" y="1231" type="curve"/>
      <point x="798" y="1295" type="line"/>
      <point x="1064" y="1742" type="line"/>
      <point x="1228" y="1628" type="line"/>
      <point x="1201" y="1522"/>
      <point x="1005" y="1279"/>
    </contour>
    <contour>
      <point x="417" y="1231" type="curve"/>
      <point x="315" y="1295" type="line"/>
      <point x="576" y="1742" type="line"/>
      <point x="748" y="1624" type="line"/>
      <point x="722" y="1519"/>
      <point x="518" y="1281"/>
    </contour>
  </outline>
</glyph>
<glyph name="racute" format="1">
  <advance width="843"/>
  <unicode hex="0155"/>
  <outline>
    <contour>
      <point x="80" y="0" type="line"/>
      <point x="212" y="962" type="line"/>
      <point x="105" y="1022" type="line"/>
      <point x="122" y="1111" type="line"/>
      <point x="450" y="1163" type="line"/>
      <point x="503" y="1139" type="line"/>
      <point x="523" y="866" type="line"/>
      <point x="568" y="1024"/>
      <point x="657" y="1163"/>
      <point x="818" y="1163" type="curve" smooth="yes"/>
      <point x="853" y="1163"/>
      <point x="878" y="1150"/>
      <point x="888" y="1143" type="curve"/>
      <point x="819" y="786" type="line"/>
      <point x="806" y="802"/>
      <point x="750" y="817"/>
      <point x="712" y="817" type="curve" smooth="yes"/>
      <point x="632" y="817"/>
      <point x="575" y="800"/>
      <point x="508" y="760" type="curve"/>
      <point x="403" y="0" type="line"/>
    </contour>
    <contour>
      <point x="499" y="1231" type="curve"/>
      <point x="396" y="1312" type="line"/>
      <point x="713" y="1743" type="line"/>
      <point x="905" y="1556" type="line"/>
      <point x="869" y="1488"/>
      <point x="618" y="1277"/>
    </contour>
  </outline>
</glyph>
<glyph name="utilde" format="1">
  <advance width="1276"/>
  <unicode hex="0169"/>
  <outline>
    <contour>
      <point x="108" y="235" type="curve" smooth="yes"/>
      <point x="107" y="329"/>
      <point x="132" y="473"/>
      <point x="150" y="597" type="curve" smooth="yes"/>
      <point x="204" y="962" type="line"/>
      <point x="78" y="1042" type="line"/>
      <point x="94" y="1131" type="line"/>
      <point x="497" y="1163" type="line"/>
      <point x="549" y="1139" type="line"/>
      <point x="480" y="589" type="line" smooth="yes"/>
      <point x="465" y="472"/>
      <point x="443" y="340"/>
      <point x="443" y="282" type="curve" smooth="yes"/>
      <point x="443" y="186"/>
      <point x="473" y="148"/>
      <point x="538" y="148" type="curve" smooth="yes"/>
      <point x="617" y="148"/>
      <point x="685" y="194"/>
      <point x="732" y="247" type="curve"/>
      <point x="856" y="1155" type="line"/>
      <point x="1182" y="1155" type="line"/>
      <point x="1054" y="227" type="line" smooth="yes"/>
      <point x="1047" y="175"/>
      <point x="1064" y="151"/>
      <point x="1094" y="151" type="curve" smooth="yes"/>
      <point x="1117" y="151"/>
      <point x="1133" y="159"/>
      <point x="1186" y="197" type="curve"/>
      <point x="1214" y="124" type="line"/>
      <point x="1194" y="91"/>
      <point x="1093" y="-20"/>
      <point x="934" y="-20" type="curve" smooth="yes"/>
      <point x="791" y="-20"/>
      <point x="735" y="47"/>
      <point x="751" y="143" type="curve"/>
      <point x="747" y="146" type="line"/>
      <point x="679" y="68"/>
      <point x="576" y="-20"/>
      <point x="400" y="-20" type="curve" smooth="yes"/>
      <point x="280" y="-20"/>
      <point x="111" y="42"/>
    </contour>
    <contour>
      <point x="410" y="1387" type="curve"/>
      <point x="333" y="1511" type="line"/>
      <point x="374" y="1594"/>
      <point x="490" y="1680"/>
      <point x="590" y="1680" type="curve" smooth="yes"/>
      <point x="745" y="1680"/>
      <point x="770" y="1530"/>
      <point x="869" y="1530" type="curve" smooth="yes"/>
      <point x="943" y="1530"/>
      <point x="983" y="1582"/>
      <point x="1021" y="1630" type="curve"/>
      <point x="1109" y="1499" type="line"/>
      <point x="1075" y="1412"/>
      <point x="962" y="1318"/>
      <point x="858" y="1318" type="curve" smooth="yes"/>
      <point x="681" y="1318"/>
      <point x="677" y="1465"/>
      <point x="557" y="1468" type="curve" smooth="yes"/>
      <point x="495" y="1469"/>
      <point x="448" y="1427"/>
    </contour>
  </outline>
</glyph>
<glyph name="Uring" format="1">
  <advance width="1447"/>
  <unicode hex="016E"/>
  <outline>
    <contour>
      <point x="128" y="428" type="curve" smooth="yes"/>
      <point x="128" y="480"/>
      <point x="128" y="534"/>
      <point x="135" y="593" type="curve" smooth="yes"/>
      <point x="235" y="1394" type="line"/>
      <point x="91" y="1420" type="line"/>
      <point x="104" y="1530" type="line"/>
      <point x="808" y="1530" type="line"/>
      <point x="798" y="1421" type="line"/>
      <point x="601" y="1394" type="line"/>
      <point x="504" y="623" type="line"/>
      <point x="495" y="542"/>
      <point x="487" y="469"/>
      <point x="487" y="422" type="curve" smooth="yes"/>
      <point x="487" y="232"/>
      <point x="562" y="104"/>
      <point x="732" y="104" type="curve" smooth="yes"/>
      <point x="978" y="104"/>
      <point x="1076" y="311"/>
      <point x="1119" y="626" type="curve" smooth="yes"/>
      <point x="1223" y="1394" type="line"/>
      <point x="1055" y="1421" type="line"/>
      <point x="1066" y="1530" type="line"/>
      <point x="1550" y="1530" type="line"/>
      <point x="1535" y="1421" type="line"/>
      <point x="1406" y="1394" type="line"/>
      <point x="1309" y="627" type="line" smooth="yes"/>
      <point x="1249" y="156"/>
      <point x="1038" y="-20"/>
      <point x="670" y="-20" type="curve" smooth="yes"/>
      <point x="248" y="-20"/>
      <point x="128" y="179"/>
    </contour>
    <contour>
      <point x="957" y="1491" type="curve" smooth="yes"/>
      <point x="768" y="1491"/>
      <point x="638" y="1563"/>
      <point x="638" y="1721" type="curve" smooth="yes"/>
      <point x="638" y="1956"/>
      <point x="869" y="2014"/>
      <point x="1024" y="2014" type="curve" smooth="yes"/>
      <point x="1199" y="2014"/>
      <point x="1327" y="1940"/>
      <point x="1327" y="1791" type="curve" smooth="yes"/>
      <point x="1327" y="1578"/>
      <point x="1139" y="1491"/>
    </contour>
    <contour>
      <point x="969" y="1630" type="curve" smooth="yes"/>
      <point x="1046" y="1630"/>
      <point x="1134" y="1648"/>
      <point x="1134" y="1763" type="curve" smooth="yes"/>
      <point x="1134" y="1836"/>
      <point x="1068" y="1878"/>
      <point x="999" y="1878" type="curve" smooth="yes"/>
      <point x="923" y="1878"/>
      <point x="832" y="1852"/>
      <point x="832" y="1744" type="curve" smooth="yes"/>
      <point x="832" y="1673"/>
      <point x="902" y="1630"/>
    </contour>
  </outline>
</glyph>
<glyph name="wcircumflex" format="1">
  <advance width="1742"/>
  <unicode hex="0175"/>
  <outline>
    <contour>
      <point x="325" y="-20" type="line"/>
      <point x="246" y="355" type="line"/>
      <point x="123" y="925" type="line" smooth="yes"/>
      <point x="115" y="966"/>
      <point x="101" y="980"/>
      <point x="79" y="981" type="curve" smooth="yes"/>
      <point x="48" y="982"/>
      <point x="24" y="963"/>
      <point x="4" y="948" type="curve"/>
      <point x="-25" y="1028" type="line"/>
      <point x="-6" y="1055"/>
      <point x="104" y="1163"/>
      <point x="242" y="1163" type="curve" smooth="yes"/>
      <point x="361" y="1163"/>
      <point x="428" y="1115"/>
      <point x="442" y="1026" type="curve" smooth="yes"/>
      <point x="532" y="439" type="line"/>
      <point x="558" y="228" type="line"/>
      <point x="645" y="510" type="line"/>
      <point x="834" y="1155" type="line"/>
      <point x="1111" y="1155" type="line"/>
      <point x="1229" y="405" type="line"/>
      <point x="1259" y="228" type="line"/>
      <point x="1348" y="393" type="line"/>
      <point x="1405" y="496"/>
      <point x="1446" y="610"/>
      <point x="1446" y="775" type="curve" smooth="yes"/>
      <point x="1446" y="876"/>
      <point x="1414" y="953"/>
      <point x="1414" y="1025" type="curve" smooth="yes"/>
      <point x="1414" y="1103"/>
      <point x="1468" y="1163"/>
      <point x="1573" y="1163" type="curve" smooth="yes"/>
      <point x="1719" y="1163"/>
      <point x="1743" y="1055"/>
      <point x="1745" y="947" type="curve" smooth="yes"/>
      <point x="1749" y="762"/>
      <point x="1549" y="433"/>
      <point x="1425" y="262" type="curve" smooth="yes"/>
      <point x="1231" y="-8" type="line"/>
      <point x="991" y="-18" type="line"/>
      <point x="923" y="355" type="line"/>
      <point x="885" y="623" type="line"/>
      <point x="884" y="761" type="line"/>
      <point x="837" y="623" type="line"/>
      <point x="743" y="327" type="line"/>
      <point x="608" y="-4" type="line"/>
    </contour>
    <contour>
      <point x="751" y="1239" type="line"/>
      <point x="644" y="1296" type="line"/>
      <point x="1011" y="1670" type="line"/>
      <point x="1189" y="1670" type="line"/>
      <point x="1399" y="1296" type="line"/>
      <point x="1275" y="1238" type="line"/>
      <point x="1074" y="1432" type="line"/>
    </contour>
  </outline>
</glyph>
<glyph name="Ycircumflex" format="1">
  <advance width="1281"/>
  <unicode hex="0176"/>
  <outline>
    <contour>
      <point x="161" y="0" type="line"/>
      <point x="173" y="106" type="line"/>
      <point x="403" y="136" type="line"/>
      <point x="461" y="605" type="line"/>
      <point x="130" y="1394" type="line"/>
      <point x="19" y="1420" type="line"/>
      <point x="31" y="1530" type="line"/>
      <point x="715" y="1530" type="line"/>
      <point x="698" y="1420" type="line"/>
      <point x="517" y="1394" type="line"/>
      <point x="689" y="908" type="line"/>
      <point x="742" y="785" type="line"/>
      <point x="797" y="881" type="line"/>
      <point x="1096" y="1394" type="line"/>
      <point x="932" y="1420" type="line"/>
      <point x="942" y="1530" type="line"/>
      <point x="1475" y="1530" type="line"/>
      <point x="1460" y="1420" type="line"/>
      <point x="1330" y="1394" type="line"/>
      <point x="815" y="605" type="line"/>
      <point x="754" y="136" type="line"/>
      <point x="999" y="106" type="line"/>
      <point x="989" y="0" type="line"/>
    </contour>
    <contour>
      <point x="558" y="1600" type="line"/>
      <point x="451" y="1657" type="line"/>
      <point x="818" y="2014" type="line"/>
      <point x="996" y="2014" type="line"/>
      <point x="1206" y="1657" type="line"/>
      <point x="1082" y="1599" type="line"/>
      <point x="881" y="1806" type="line"/>
    </contour>
  </outline>
</glyph>
<glyph name="Zacute" format="1">
  <advance width="1226"/>
  <unicode hex="0179"/>
  <outline>
    <contour>
      <point x="-39" y="0" type="line"/>
      <point x="-73" y="89" type="line"/>
      <point x="804" y="1304" type="line"/>
      <point x="927" y="1402" type="line"/>
      <point x="503" y="1384" type="line"/>
      <point x="355" y="1114" type="line"/>
      <point x="180" y="1136" type="line"/>
      <point x="231" y="1530" type="line"/>
      <point x="1271" y="1530" type="line"/>
      <point x="1301" y="1444" type="line"/>
      <point x="436" y="235" type="line"/>
      <point x="324" y="137" type="line"/>
      <point x="817" y="159" type="line"/>
      <point x="1001" y="492" type="line"/>
      <point x="1168" y="461" type="line"/>
      <point x="1080" y="0" type="line"/>
    </contour>
    <contour>
      <point x="793" y="1570" type="curve"/>
      <point x="677" y="1672" type="line"/>
      <point x="953" y="2014" type="line"/>
      <point x="1140" y="1829" type="line"/>
      <point x="1088" y="1728"/>
      <point x="889" y="1606"/>
    </contour>
  </outline>
</glyph>
<glyph name="zacute" format="1">
  <advance width="989"/>
  <unicode hex="017A"/>
  <outline>
    <contour>
      <point x="22" y="-23" type="curve"/>
      <point x="-40" y="39" type="line"/>
      <point x="606" y="831" type="line"/>
      <point x="699" y="883" type="line"/>
      <point x="396" y="884" type="line" smooth="yes"/>
      <point x="289" y="884"/>
      <point x="228" y="817"/>
      <point x="221" y="733" type="curve"/>
      <point x="133" y="733" type="line"/>
      <point x="117" y="826"/>
      <point x="111" y="1103"/>
      <point x="200" y="1141" type="curve" smooth="yes"/>
      <point x="216" y="1148"/>
      <point x="251" y="1163"/>
      <point x="302" y="1163" type="curve" smooth="yes"/>
      <point x="459" y="1163"/>
      <point x="762" y="1128"/>
      <point x="888" y="1128" type="curve" smooth="yes"/>
      <point x="941" y="1128"/>
      <point x="976" y="1139"/>
      <point x="1004" y="1163" type="curve"/>
      <point x="1057" y="1102" type="line"/>
      <point x="408" y="300" type="line"/>
      <point x="336" y="257" type="line"/>
      <point x="664" y="257" type="line" smooth="yes"/>
      <point x="776" y="257"/>
      <point x="837" y="329"/>
      <point x="846" y="419" type="curve"/>
      <point x="931" y="419" type="line"/>
      <point x="944" y="326"/>
      <point x="951" y="55"/>
      <point x="864" y="-3" type="curve" smooth="yes"/>
      <point x="847" y="-15"/>
      <point x="811" y="-23"/>
      <point x="759" y="-23" type="curve" smooth="yes"/>
      <point x="603" y="-23"/>
      <point x="254" y="10"/>
      <point x="130" y="10" type="curve" smooth="yes"/>
      <point x="100" y="10"/>
      <point x="47" y="3"/>
    </contour>
    <contour>
      <point x="630" y="1231" type="curve"/>
      <point x="527" y="1312" type="line"/>
      <point x="844" y="1743" type="line"/>
      <point x="1036" y="1556" type="line"/>
      <point x="1000" y="1488"/>
      <point x="749" y="1277"/>
    </contour>
  </outline>
</glyph>
<glyph name="Zdotaccent" format="1">
  <advance width="1226"/>
  <unicode hex="017B"/>
  <outline>
    <contour>
      <point x="-39" y="0" type="line"/>
      <point x="-73" y="89" type="line"/>
      <point x="804" y="1304" type="line"/>
      <point x="927" y="1402" type="line"/>
      <point x="503" y="1384" type="line"/>
      <point x="355" y="1114" type="line"/>
      <point x="180" y="1136" type="line"/>
      <point x="231" y="1530" type="line"/>
      <point x="1271" y="1530" type="line"/>
      <point x="1301" y="1444" type="line"/>
      <point x="436" y="235" type="line"/>
      <point x="324" y="137" type="line"/>
      <point x="817" y="159" type="line"/>
      <point x="1001" y="492" type="line"/>
      <point x="1168" y="461" type="line"/>
      <point x="1080" y="0" type="line"/>
    </contour>
    <contour>
      <point x="768" y="1612" type="curve" smooth="yes"/>
      <point x="679" y="1612"/>
      <point x="594" y="1696"/>
      <point x="596" y="1779" type="curve" smooth="yes"/>
      <point x="599" y="1888"/>
      <point x="681" y="1975"/>
      <point x="804" y="1975" type="curve" smooth="yes"/>
      <point x="910" y="1975"/>
      <point x="986" y="1894"/>
      <point x="984" y="1814" type="curve" smooth="yes"/>
      <point x="981" y="1703"/>
      <point x="910" y="1612"/>
    </contour>
  </outline>
</glyph>
<glyph name="AEacute" format="1">
  <advance width="2076"/>
  <unicode hex="01FC"/>
  <outline>
    <contour>
      <point x="2" y="136" type="line"/>
      <point x="773" y="1394" type="line"/>
      <point x="437" y="1420" type="line"/>
      <point x="452" y="1530" type="line"/>
      <point x="2018" y="1530" type="line"/>
      <point x="1982" y="1160" type="line"/>
      <point x="1770" y="1160" type="line"/>
      <point x="1736" y="1384" type="line"/>
      <point x="1387" y="1410" type="line"/>
      <point x="1320" y="881" type="line"/>
      <point x="1764" y="905" type="line"/>
      <point x="1741" y="687" type="line"/>
      <point x="1300" y="712" type="line"/>
      <point x="1222" y="136" type="line"/>
      <point x="1701" y="171" type="line"/>
      <point x="1818" y="468" type="line"/>
      <point x="2031" y="454" type="line"/>
      <point x="1961" y="0" type="line"/>
      <point x="671" y="0" type="line"/>
      <point x="685" y="106" type="line"/>
      <point x="875" y="136" type="line"/>
      <point x="910" y="416" type="line"/>
      <point x="436" y="416" type="line"/>
      <point x="282" y="136" type="line"/>
      <point x="472" y="106" type="line"/>
      <point x="464" y="0" type="line"/>
      <point x="-163" y="0" type="line"/>
      <point x="-155" y="106" type="line"/>
    </contour>
    <contour>
      <point x="519" y="567" type="line"/>
      <point x="929" y="567" type="line"/>
      <point x="1034" y="1394" type="line"/>
      <point x="975" y="1394" type="line"/>
    </contour>
    <contour>
      <point x="1342" y="1570" type="curve"/>
      <point x="1226" y="1672" type="line"/>
      <point x="1502" y="2014" type="line"/>
      <point x="1689" y="1829" type="line"/>
      <point x="1637" y="1728"/>
      <point x="1438" y="1606"/>
    </contour>
  </outline>
</glyph>
<glyph name="uni0218" format="1">
  <advance width="1181"/>
  <unicode hex="0218"/>
  <outline>
    <contour>
      <point x="27" y="75" type="curve"/>
      <point x="87" y="393" type="line"/>
      <point x="293" y="393" type="line"/>
      <point x="304" y="172" type="line"/>
      <point x="353" y="135"/>
      <point x="419" y="106"/>
      <point x="508" y="106" type="curve" smooth="yes"/>
      <point x="708" y="106"/>
      <point x="762" y="196"/>
      <point x="762" y="309" type="curve" smooth="yes"/>
      <point x="762" y="437"/>
      <point x="689" y="514"/>
      <point x="503" y="633" type="curve" smooth="yes"/>
      <point x="326" y="746"/>
      <point x="178" y="894"/>
      <point x="178" y="1102" type="curve" smooth="yes"/>
      <point x="178" y="1392"/>
      <point x="418" y="1549"/>
      <point x="747" y="1549" type="curve" smooth="yes"/>
      <point x="964" y="1549"/>
      <point x="1082" y="1512"/>
      <point x="1146" y="1475" type="curve"/>
      <point x="1092" y="1173" type="line"/>
      <point x="901" y="1173" type="line"/>
      <point x="871" y="1371" type="line"/>
      <point x="824" y="1405"/>
      <point x="773" y="1423"/>
      <point x="702" y="1423" type="curve" smooth="yes"/>
      <point x="557" y="1423"/>
      <point x="495" y="1350"/>
      <point x="495" y="1245" type="curve" smooth="yes"/>
      <point x="495" y="1100"/>
      <point x="583" y="1012"/>
      <point x="778" y="889" type="curve" smooth="yes"/>
      <point x="946" y="783"/>
      <point x="1090" y="643"/>
      <point x="1090" y="442" type="curve" smooth="yes"/>
      <point x="1090" y="201"/>
      <point x="903" y="-23"/>
      <point x="503" y="-23" type="curve" smooth="yes"/>
      <point x="279" y="-23"/>
      <point x="72" y="38"/>
    </contour>
    <contour>
      <point x="344" y="-141" type="line"/>
      <point x="498" y="-37" type="line"/>
      <point x="588" y="-56"/>
      <point x="656" y="-144"/>
      <point x="656" y="-249" type="curve" smooth="yes"/>
      <point x="656" y="-420"/>
      <point x="532" y="-541"/>
      <point x="429" y="-560" type="curve"/>
      <point x="329" y="-490" type="line"/>
      <point x="332" y="-464" type="line"/>
      <point x="355" y="-451"/>
      <point x="400" y="-407"/>
      <point x="400" y="-335" type="curve" smooth="yes"/>
      <point x="400" y="-285"/>
      <point x="372" y="-238"/>
      <point x="333" y="-234" type="curve"/>
    </contour>
  </outline>
</glyph>
<glyph name="uni021A" format="1">
  <advance width="1421"/>
  <unicode hex="021A"/>
  <outline>
    <contour>
      <point x="212" y="0" type="line"/>
      <point x="225" y="106" type="line"/>
      <point x="475" y="136" type="line"/>
      <point x="642" y="1394" type="line"/>
      <point x="406" y="1368" type="line"/>
      <point x="239" y="945" type="line"/>
      <point x="51" y="945" type="line"/>
      <point x="150" y="1530" type="line"/>
      <point x="1526" y="1530" type="line"/>
      <point x="1451" y="947" type="line"/>
      <point x="1270" y="945" type="line"/>
      <point x="1237" y="1368" type="line"/>
      <point x="995" y="1394" type="line"/>
      <point x="827" y="136" type="line"/>
      <point x="1111" y="106" type="line"/>
      <point x="1101" y="0" type="line"/>
    </contour>
    <contour>
      <point x="510" y="-141" type="line"/>
      <point x="664" y="-37" type="line"/>
      <point x="754" y="-56"/>
      <point x="822" y="-144"/>
      <point x="822" y="-249" type="curve" smooth="yes"/>
      <point x="822" y="-420"/>
      <point x="698" y="-541"/>
      <point x="595" y="-560" type="curve"/>
      <point x="495" y="-490" type="line"/>
      <point x="498" y="-464" type="line"/>
      <point x="521" y="-451"/>
      <point x="566" y="-407"/>
      <point x="566" y="-335" type="curve" smooth="yes"/>
      <point x="566" y="-285"/>
      <point x="538" y="-238"/>
      <point x="499" y="-234" type="curve"/>
    </contour>
  </outline>
</glyph>
<glyph name="dotlessj" format="1">
  <advance width="652"/>
  <unicode hex="0237"/>
  <outline>
    <contour>
      <point x="115" y="65" type="curve" smooth="yes"/>
      <point x="220" y="980" type="line"/>
      <point x="54" y="1031" type="line"/>
      <point x="75" y="1112" type="line"/>
      <point x="526" y="1163" type="line"/>
      <point x="578" y="1139" type="line"/>
      <point x="441" y="0" type="line"/>
      <point x="397" y="-347"/>
      <point x="169" y="-528"/>
      <point x="-79" y="-528" type="curve" smooth="yes"/>
      <point x="-159" y="-528"/>
      <point x="-223" y="-516"/>
      <point x="-250" y="-491" type="curve"/>
      <point x="-212" y="-370" type="line"/>
      <point x="-194" y="-376"/>
      <point x="-148" y="-382"/>
      <point x="-138" y="-382" type="curve" smooth="yes"/>
      <point x="51" y="-382"/>
      <point x="88" y="-170"/>
    </contour>
  </outline>
</glyph>
<glyph name="tilde" format="1">
  <advance width="816"/>
  <unicode hex="02DC"/>
  <outline>
    <contour>
      <point x="97" y="1387" type="curve"/>
      <point x="20" y="1511" type="line"/>
      <point x="61" y="1594"/>
      <point x="177" y="1680"/>
      <point x="277" y="1680" type="curve" smooth="yes"/>
      <point x="432" y="1680"/>
      <point x="457" y="1530"/>
      <point x="556" y="1530" type="curve" smooth="yes"/>
      <point x="630" y="1530"/>
      <point x="670" y="1582"/>
      <point x="708" y="1630" type="curve"/>
      <point x="796" y="1499" type="line"/>
      <point x="762" y="1412"/>
      <point x="649" y="1318"/>
      <point x="545" y="1318" type="curve" smooth="yes"/>
      <point x="368" y="1318"/>
      <point x="364" y="1465"/>
      <point x="244" y="1468" type="curve" smooth="yes"/>
      <point x="182" y="1469"/>
      <point x="135" y="1427"/>
    </contour>
  </outline>
</glyph>
<glyph name="pi" format="1">
  <advance width="1621"/>
  <unicode hex="03C0"/>
  <outline>
    <contour>
      <point x="75" y="174" type="line"/>
      <point x="211" y="184"/>
      <point x="358" y="296"/>
      <point x="420" y="509" type="curve" smooth="yes"/>
      <point x="523" y="863" type="line"/>
      <point x="389" y="863" type="line"/>
      <point x="323" y="864"/>
      <point x="277" y="804"/>
      <point x="258" y="741" type="curve"/>
      <point x="122" y="754" type="line"/>
      <point x="122" y="835"/>
      <point x="122" y="929"/>
      <point x="148" y="992" type="curve" smooth="yes"/>
      <point x="198" y="1113"/>
      <point x="318" y="1163"/>
      <point x="428" y="1163" type="curve" smooth="yes"/>
      <point x="1232" y="1163" type="line" smooth="yes"/>
      <point x="1330" y="1163"/>
      <point x="1385" y="1197"/>
      <point x="1396" y="1278" type="curve"/>
      <point x="1554" y="1278" type="line"/>
      <point x="1554" y="1086"/>
      <point x="1487" y="863"/>
      <point x="1240" y="863" type="curve" smooth="yes"/>
      <point x="1171" y="863" type="line"/>
      <point x="1144" y="620"/>
      <point x="1139" y="469"/>
      <point x="1132" y="348" type="curve" smooth="yes"/>
      <point x="1128" y="289"/>
      <point x="1141" y="235"/>
      <point x="1206" y="234" type="curve" smooth="yes"/>
      <point x="1253" y="233"/>
      <point x="1316" y="255"/>
      <point x="1355" y="393" type="curve"/>
      <point x="1509" y="393" type="line"/>
      <point x="1479" y="180"/>
      <point x="1361" y="-20"/>
      <point x="1096" y="-20" type="curve" smooth="yes"/>
      <point x="938" y="-20"/>
      <point x="844" y="65"/>
      <point x="844" y="208" type="curve" smooth="yes"/>
      <point x="844" y="311"/>
      <point x="887" y="535"/>
      <point x="946" y="863" type="curve"/>
      <point x="751" y="863" type="line"/>
      <point x="683" y="450" type="line"/>
      <point x="625" y="89"/>
      <point x="440" y="-20"/>
      <point x="282" y="-20" type="curve"/>
    </contour>
  </outline>
</glyph>
<glyph name="uni1E0B" format="1">
  <advance width="1255"/>
  <unicode hex="1E0B"/>
  <outline>
    <contour>
      <point x="404" y="-20" type="curve" smooth="yes"/>
      <point x="154" y="-20"/>
      <point x="60" y="172"/>
      <point x="60" y="402" type="curve" smooth="yes"/>
      <point x="60" y="791"/>
      <point x="274" y="1163"/>
      <point x="737" y="1163" type="curve" smooth="yes"/>
      <point x="769" y="1163"/>
      <point x="804" y="1159"/>
      <point x="839" y="1154" type="curve"/>
      <point x="887" y="1482" type="line"/>
      <point x="731" y="1525" type="line"/>
      <point x="750" y="1608" type="line"/>
      <point x="1182" y="1650" type="line"/>
      <point x="1238" y="1623" type="line"/>
      <point x="1036" y="229" type="line" smooth="yes"/>
      <point x="1029" y="181"/>
      <point x="1039" y="151"/>
      <point x="1071" y="151" type="curve" smooth="yes"/>
      <point x="1090" y="151"/>
      <point x="1114" y="160"/>
      <point x="1163" y="197" type="curve"/>
      <point x="1191" y="124" type="line"/>
      <point x="1168" y="97"/>
      <point x="1076" y="-20"/>
      <point x="912" y="-20" type="curve" smooth="yes"/>
      <point x="793" y="-20"/>
      <point x="744" y="38"/>
      <point x="736" y="147" type="curve"/>
      <point x="680" y="70"/>
      <point x="572" y="-20"/>
    </contour>
    <contour>
      <point x="545" y="154" type="curve" smooth="yes"/>
      <point x="613" y="154"/>
      <point x="669" y="203"/>
      <point x="707" y="257" type="curve"/>
      <point x="817" y="1007" type="line"/>
      <point x="786" y="1018"/>
      <point x="751" y="1023"/>
      <point x="713" y="1023" type="curve" smooth="yes"/>
      <point x="470" y="1023"/>
      <point x="401" y="680"/>
      <point x="401" y="413" type="curve" smooth="yes"/>
      <point x="401" y="249"/>
      <point x="454" y="154"/>
    </contour>
    <contour>
      <point x="446" y="1338" type="curve" smooth="yes"/>
      <point x="357" y="1338"/>
      <point x="282" y="1422"/>
      <point x="284" y="1505" type="curve" smooth="yes"/>
      <point x="287" y="1614"/>
      <point x="359" y="1701"/>
      <point x="482" y="1701" type="curve" smooth="yes"/>
      <point x="588" y="1701"/>
      <point x="654" y="1620"/>
      <point x="652" y="1540" type="curve" smooth="yes"/>
      <point x="649" y="1429"/>
      <point x="588" y="1338"/>
    </contour>
  </outline>
</glyph>
<glyph name="uni1E40" format="1">
  <advance width="2017"/>
  <unicode hex="1E40"/>
  <outline>
    <contour>
      <point x="-128" y="0" type="line"/>
      <point x="-116" y="106" type="line"/>
      <point x="65" y="136" type="line"/>
      <point x="391" y="1394" type="line"/>
      <point x="197" y="1420" type="line"/>
      <point x="213" y="1530" type="line"/>
      <point x="904" y="1530" type="line"/>
      <point x="1003" y="680" type="line"/>
      <point x="1024" y="509" type="line"/>
      <point x="1079" y="680" type="line"/>
      <point x="1413" y="1530" type="line"/>
      <point x="2033" y="1530" type="line"/>
      <point x="2020" y="1420" type="line"/>
      <point x="1834" y="1394" type="line"/>
      <point x="1794" y="136" type="line"/>
      <point x="1998" y="106" type="line"/>
      <point x="1990" y="0" type="line"/>
      <point x="1253" y="0" type="line"/>
      <point x="1262" y="108" type="line"/>
      <point x="1451" y="136" type="line"/>
      <point x="1508" y="996" type="line"/>
      <point x="1528" y="1394" type="line"/>
      <point x="1385" y="1044" type="line"/>
      <point x="946" y="-3" type="line"/>
      <point x="777" y="-18" type="line"/>
      <point x="641" y="1020" type="line"/>
      <point x="587" y="1395" type="line"/>
      <point x="500" y="1010" type="line"/>
      <point x="291" y="136" type="line"/>
      <point x="516" y="107" type="line"/>
      <point x="506" y="0" type="line"/>
    </contour>
    <contour>
      <point x="1193" y="1612" type="curve" smooth="yes"/>
      <point x="1104" y="1612"/>
      <point x="1019" y="1696"/>
      <point x="1021" y="1779" type="curve" smooth="yes"/>
      <point x="1024" y="1888"/>
      <point x="1106" y="1975"/>
      <point x="1229" y="1975" type="curve" smooth="yes"/>
      <point x="1335" y="1975"/>
      <point x="1411" y="1894"/>
      <point x="1409" y="1814" type="curve" smooth="yes"/>
      <point x="1406" y="1703"/>
      <point x="1335" y="1612"/>
    </contour>
  </outline>
</glyph>
<glyph name="uni1E56" format="1">
  <advance width="1312"/>
  <unicode hex="1E56"/>
  <outline>
    <contour>
      <point x="-22" y="0" type="line"/>
      <point x="-11" y="106" type="line"/>
      <point x="127" y="136" type="line"/>
      <point x="295" y="1394" type="line"/>
      <point x="147" y="1420" type="line"/>
      <point x="161" y="1530" type="line"/>
      <point x="477" y="1530" type="line" smooth="yes"/>
      <point x="598" y="1530"/>
      <point x="671" y="1546"/>
      <point x="774" y="1546" type="curve" smooth="yes"/>
      <point x="1199" y="1546"/>
      <point x="1344" y="1402"/>
      <point x="1352" y="1139" type="curve" smooth="yes"/>
      <point x="1364" y="746"/>
      <point x="1094" y="514"/>
      <point x="649" y="514" type="curve" smooth="yes"/>
      <point x="588" y="514"/>
      <point x="558" y="515"/>
      <point x="532" y="518" type="curve"/>
      <point x="486" y="136" type="line"/>
      <point x="764" y="106" type="line"/>
      <point x="756" y="0" type="line"/>
    </contour>
    <contour>
      <point x="548" y="654" type="line"/>
      <point x="589" y="644"/>
      <point x="626" y="645"/>
      <point x="658" y="646" type="curve" smooth="yes"/>
      <point x="871" y="649"/>
      <point x="1001" y="848"/>
      <point x="1002" y="1132" type="curve" smooth="yes"/>
      <point x="1003" y="1338"/>
      <point x="897" y="1420"/>
      <point x="739" y="1420" type="curve" smooth="yes"/>
      <point x="711" y="1420"/>
      <point x="684" y="1418"/>
      <point x="650" y="1411" type="curve"/>
    </contour>
    <contour>
      <point x="853" y="1612" type="curve" smooth="yes"/>
      <point x="764" y="1612"/>
      <point x="679" y="1696"/>
      <point x="681" y="1779" type="curve" smooth="yes"/>
      <point x="684" y="1888"/>
      <point x="766" y="1975"/>
      <point x="889" y="1975" type="curve" smooth="yes"/>
      <point x="995" y="1975"/>
      <point x="1071" y="1894"/>
      <point x="1069" y="1814" type="curve" smooth="yes"/>
      <point x="1066" y="1703"/>
      <point x="995" y="1612"/>
    </contour>
  </outline>
</glyph>
<glyph name="uni1E57" format="1">
  <advance width="1230"/>
  <unicode hex="1E57"/>
  <outline>
    <contour>
      <point x="395" y="-11" type="curve"/>
      <point x="324" y="-520" type="line"/>
      <point x="6" y="-520" type="line"/>
      <point x="206" y="982" type="line"/>
      <point x="89" y="1032" type="line"/>
      <point x="108" y="1111" type="line"/>
      <point x="501" y="1163" type="line"/>
      <point x="553" y="1139" type="line"/>
      <point x="543" y="1055" type="line"/>
      <point x="605" y="1113"/>
      <point x="696" y="1163"/>
      <point x="821" y="1163" type="curve" smooth="yes"/>
      <point x="1052" y="1163"/>
      <point x="1170" y="1005"/>
      <point x="1170" y="730" type="curve" smooth="yes"/>
      <point x="1170" y="310"/>
      <point x="902" y="-20"/>
      <point x="496" y="-20" type="curve" smooth="yes"/>
      <point x="462" y="-20"/>
      <point x="428" y="-17"/>
    </contour>
    <contour>
      <point x="416" y="133" type="line"/>
      <point x="444" y="123"/>
      <point x="478" y="119"/>
      <point x="522" y="119" type="curve" smooth="yes"/>
      <point x="745" y="119"/>
      <point x="824" y="425"/>
      <point x="824" y="729" type="curve" smooth="yes"/>
      <point x="824" y="867"/>
      <point x="780" y="988"/>
      <point x="680" y="988" type="curve" smooth="yes"/>
      <point x="610" y="988"/>
      <point x="560" y="943"/>
      <point x="522" y="891" type="curve"/>
    </contour>
    <contour>
      <point x="749" y="1338" type="curve" smooth="yes"/>
      <point x="660" y="1338"/>
      <point x="585" y="1422"/>
      <point x="587" y="1505" type="curve" smooth="yes"/>
      <point x="590" y="1614"/>
      <point x="662" y="1701"/>
      <point x="785" y="1701" type="curve" smooth="yes"/>
      <point x="891" y="1701"/>
      <point x="957" y="1620"/>
      <point x="955" y="1540" type="curve" smooth="yes"/>
      <point x="952" y="1429"/>
      <point x="891" y="1338"/>
    </contour>
  </outline>
</glyph>
<glyph name="uni1E6A" format="1">
  <advance width="1421"/>
  <unicode hex="1E6A"/>
  <outline>
    <contour>
      <point x="212" y="0" type="line"/>
      <point x="225" y="106" type="line"/>
      <point x="475" y="136" type="line"/>
      <point x="642" y="1394" type="line"/>
      <point x="406" y="1368" type="line"/>
      <point x="239" y="945" type="line"/>
      <point x="51" y="945" type="line"/>
      <point x="150" y="1530" type="line"/>
      <point x="1526" y="1530" type="line"/>
      <point x="1451" y="947" type="line"/>
      <point x="1270" y="945" type="line"/>
      <point x="1237" y="1368" type="line"/>
      <point x="995" y="1394" type="line"/>
      <point x="827" y="136" type="line"/>
      <point x="1111" y="106" type="line"/>
      <point x="1101" y="0" type="line"/>
    </contour>
    <contour>
      <point x="853" y="1612" type="curve" smooth="yes"/>
      <point x="764" y="1612"/>
      <point x="679" y="1696"/>
      <point x="681" y="1779" type="curve" smooth="yes"/>
      <point x="684" y="1888"/>
      <point x="766" y="1975"/>
      <point x="889" y="1975" type="curve" smooth="yes"/>
      <point x="995" y="1975"/>
      <point x="1071" y="1894"/>
      <point x="1069" y="1814" type="curve" smooth="yes"/>
      <point x="1066" y="1703"/>
      <point x="995" y="1612"/>
    </contour>
  </outline>
</glyph>
<glyph name="endash" format="1">
  <advance width="1548"/>
  <unicode hex="2013"/>
  <outline>
    <contour>
      <point x="248" y="674" type="line"/>
      <point x="288" y="871" type="line"/>
      <point x="1385" y="871" type="line"/>
      <point x="1345" y="674" type="line"/>
    </contour>
  </outline>
</glyph>
<glyph name="emdash" format="1">
  <advance width="2036"/>
  <unicode hex="2014"/>
  <outline>
    <contour>
      <point x="248" y="674" type="line"/>
      <point x="282" y="871" type="line"/>
      <point x="1873" y="871" type="line"/>
      <point x="1838" y="674" type="line"/>
    </contour>
  </outline>
</glyph>
<glyph name="quoteleft" format="1">
  <advance width="702"/>
  <unicode hex="2018"/>
  <outline>
    <contour>
      <point x="375" y="917" type="line"/>
      <point x="241" y="953"/>
      <point x="182" y="1082"/>
      <point x="182" y="1228" type="curve" smooth="yes"/>
      <point x="182" y="1499"/>
      <point x="403" y="1673"/>
      <point x="583" y="1747" type="curve"/>
      <point x="649" y="1641" type="line"/>
      <point x="647" y="1619" type="line"/>
      <point x="542" y="1584"/>
      <point x="446" y="1440"/>
      <point x="446" y="1300" type="curve" smooth="yes"/>
      <point x="446" y="1214"/>
      <point x="483" y="1155"/>
      <point x="546" y="1148" type="curve"/>
      <point x="541" y="1107" type="line"/>
    </contour>
  </outline>
</glyph>
<glyph name="quotesinglbase" format="1">
  <advance width="682"/>
  <unicode hex="201A"/>
  <outline>
    <contour>
      <point x="323" y="301" type="line"/>
      <point x="457" y="265"/>
      <point x="516" y="136"/>
      <point x="516" y="-10" type="curve" smooth="yes"/>
      <point x="516" y="-281"/>
      <point x="295" y="-455"/>
      <point x="115" y="-529" type="curve"/>
      <point x="49" y="-423" type="line"/>
      <point x="51" y="-401" type="line"/>
      <point x="156" y="-366"/>
      <point x="252" y="-222"/>
      <point x="252" y="-82" type="curve" smooth="yes"/>
      <point x="252" y="4"/>
      <point x="215" y="63"/>
      <point x="152" y="70" type="curve"/>
      <point x="157" y="111" type="line"/>
    </contour>
  </outline>
</glyph>
<glyph name="quotedblright" format="1">
  <advance width="1181"/>
  <unicode hex="201D"/>
  <outline>
    <contour>
      <point x="996" y="1740" type="line"/>
      <point x="1130" y="1704"/>
      <point x="1189" y="1575"/>
      <point x="1189" y="1429" type="curve" smooth="yes"/>
      <point x="1189" y="1158"/>
      <point x="968" y="984"/>
      <point x="788" y="910" type="curve"/>
      <point x="722" y="1016" type="line"/>
      <point x="724" y="1038" type="line"/>
      <point x="829" y="1073"/>
      <point x="925" y="1217"/>
      <point x="925" y="1357" type="curve" smooth="yes"/>
      <point x="925" y="1443"/>
      <point x="888" y="1502"/>
      <point x="825" y="1509" type="curve"/>
      <point x="830" y="1550" type="line"/>
    </contour>
    <contour>
      <point x="497" y="1740" type="line"/>
      <point x="631" y="1704"/>
      <point x="690" y="1575"/>
      <point x="690" y="1429" type="curve" smooth="yes"/>
      <point x="690" y="1158"/>
      <point x="469" y="984"/>
      <point x="289" y="910" type="curve"/>
      <point x="223" y="1016" type="line"/>
      <point x="225" y="1038" type="line"/>
      <point x="330" y="1073"/>
      <point x="426" y="1217"/>
      <point x="426" y="1357" type="curve" smooth="yes"/>
      <point x="426" y="1443"/>
      <point x="389" y="1502"/>
      <point x="326" y="1509" type="curve"/>
      <point x="331" y="1550" type="line"/>
    </contour>
  </outline>
</glyph>
<glyph name="daggerdbl" format="1">
  <advance width="816"/>
  <unicode hex="2021"/>
  <outline>
    <contour>
      <point x="251" y="-51" type="line"/>
      <point x="271" y="487" type="line"/>
      <point x="315" y="606" type="line"/>
      <point x="97" y="606" type="line"/>
      <point x="130" y="800" type="line"/>
      <point x="351" y="800" type="line"/>
      <point x="344" y="981" type="line"/>
      <point x="391" y="1107" type="line"/>
      <point x="121" y="1107" type="line"/>
      <point x="150" y="1298" type="line"/>
      <point x="441" y="1298" type="line"/>
      <point x="441" y="1469" type="line"/>
      <point x="460" y="1646" type="line"/>
      <point x="711" y="1646" type="line"/>
      <point x="683" y="1469" type="line"/>
      <point x="626" y="1298" type="line"/>
      <point x="908" y="1298" type="line"/>
      <point x="880" y="1107" type="line"/>
      <point x="620" y="1107" type="line"/>
      <point x="623" y="981" type="line"/>
      <point x="547" y="800" type="line"/>
      <point x="791" y="800" type="line"/>
      <point x="762" y="606" type="line"/>
      <point x="545" y="606" type="line"/>
      <point x="540" y="487" type="line"/>
      <point x="429" y="-51" type="line"/>
    </contour>
  </outline>
</glyph>
<glyph name="perthousand" format="1">
  <advance width="2718"/>
  <unicode hex="2030"/>
  <outline>
    <contour>
      <point x="1814" y="377" type="curve" smooth="yes"/>
      <point x="1814" y="589"/>
      <point x="1996" y="812"/>
      <point x="2247" y="812" type="curve" smooth="yes"/>
      <point x="2459" y="812"/>
      <point x="2564" y="679"/>
      <point x="2564" y="507" type="curve" smooth="yes"/>
      <point x="2564" y="288"/>
      <point x="2386" y="57"/>
      <point x="2122" y="57" type="curve" smooth="yes"/>
      <point x="1925" y="57"/>
      <point x="1814" y="201"/>
    </contour>
    <contour>
      <point x="2045" y="379" type="curve" smooth="yes"/>
      <point x="2045" y="255"/>
      <point x="2072" y="170"/>
      <point x="2151" y="170" type="curve" smooth="yes"/>
      <point x="2266" y="170"/>
      <point x="2324" y="377"/>
      <point x="2324" y="499" type="curve" smooth="yes"/>
      <point x="2324" y="622"/>
      <point x="2293" y="700"/>
      <point x="2219" y="700" type="curve" smooth="yes"/>
      <point x="2102" y="700"/>
      <point x="2045" y="505"/>
    </contour>
    <contour>
      <point x="367" y="0" type="line"/>
      <point x="1314" y="1530" type="line"/>
      <point x="1533" y="1530" type="line"/>
      <point x="586" y="0" type="line"/>
    </contour>
    <contour>
      <point x="468" y="735" type="curve" smooth="yes"/>
      <point x="271" y="735"/>
      <point x="160" y="879"/>
      <point x="160" y="1055" type="curve" smooth="yes"/>
      <point x="160" y="1267"/>
      <point x="342" y="1490"/>
      <point x="593" y="1490" type="curve" smooth="yes"/>
      <point x="805" y="1490"/>
      <point x="910" y="1357"/>
      <point x="910" y="1185" type="curve" smooth="yes"/>
      <point x="910" y="966"/>
      <point x="732" y="735"/>
    </contour>
    <contour>
      <point x="497" y="848" type="curve" smooth="yes"/>
      <point x="612" y="848"/>
      <point x="670" y="1055"/>
      <point x="670" y="1177" type="curve" smooth="yes"/>
      <point x="670" y="1300"/>
      <point x="639" y="1378"/>
      <point x="565" y="1378" type="curve" smooth="yes"/>
      <point x="448" y="1378"/>
      <point x="391" y="1183"/>
      <point x="391" y="1057" type="curve" smooth="yes"/>
      <point x="391" y="933"/>
      <point x="418" y="848"/>
    </contour>
    <contour>
      <point x="1017" y="377" type="curve" smooth="yes"/>
      <point x="1017" y="589"/>
      <point x="1199" y="812"/>
      <point x="1450" y="812" type="curve" smooth="yes"/>
      <point x="1662" y="812"/>
      <point x="1767" y="679"/>
      <point x="1767" y="507" type="curve" smooth="yes"/>
      <point x="1767" y="288"/>
      <point x="1589" y="57"/>
      <point x="1325" y="57" type="curve" smooth="yes"/>
      <point x="1128" y="57"/>
      <point x="1017" y="201"/>
    </contour>
    <contour>
      <point x="1248" y="379" type="curve" smooth="yes"/>
      <point x="1248" y="255"/>
      <point x="1275" y="170"/>
      <point x="1354" y="170" type="curve" smooth="yes"/>
      <point x="1469" y="170"/>
      <point x="1527" y="377"/>
      <point x="1527" y="499" type="curve" smooth="yes"/>
      <point x="1527" y="622"/>
      <point x="1496" y="700"/>
      <point x="1422" y="700" type="curve" smooth="yes"/>
      <point x="1305" y="700"/>
      <point x="1248" y="505"/>
    </contour>
  </outline>
</glyph>
<glyph name="minute" format="1">
  <advance width="623"/>
  <unicode hex="2032"/>
  <outline>
    <contour>
      <point x="272" y="1190" type="line"/>
      <point x="351" y="1782" type="line"/>
      <point x="626" y="1782" type="line"/>
      <point x="470" y="1190" type="line"/>
    </contour>
  </outline>
</glyph>
<glyph name="guilsinglright" format="1">
  <advance width="1190"/>
  <unicode hex="203A"/>
  <outline>
    <contour>
      <point x="909" y="708" type="line"/>
      <point x="887" y="548" type="line"/>
      <point x="155" y="142" type="line"/>
      <point x="97" y="317" type="line"/>
      <point x="557" y="633" type="line"/>
      <point x="183" y="944" type="line"/>
      <point x="283" y="1096" type="line"/>
    </contour>
  </outline>
</glyph>
<glyph name="exclamdbl" format="1">
  <advance width="1332"/>
  <unicode hex="203C"/>
  <outline>
    <contour>
      <point x="241" y="528" type="line"/>
      <point x="367" y="1778" type="line"/>
      <point x="702" y="1778" type="line"/>
      <point x="444" y="528" type="line"/>
    </contour>
    <contour>
      <point x="116" y="141" type="curve" smooth="yes"/>
      <point x="116" y="266"/>
      <point x="216" y="341"/>
      <point x="307" y="341" type="curve" smooth="yes"/>
      <point x="406" y="341"/>
      <point x="455" y="262"/>
      <point x="455" y="180" type="curve" smooth="yes"/>
      <point x="455" y="44"/>
      <point x="349" y="-20"/>
      <point x="253" y="-20" type="curve" smooth="yes"/>
      <point x="178" y="-20"/>
      <point x="116" y="49"/>
    </contour>
    <contour>
      <point x="857" y="528" type="line"/>
      <point x="983" y="1778" type="line"/>
      <point x="1318" y="1778" type="line"/>
      <point x="1060" y="528" type="line"/>
    </contour>
    <contour>
      <point x="732" y="141" type="curve" smooth="yes"/>
      <point x="732" y="266"/>
      <point x="832" y="341"/>
      <point x="923" y="341" type="curve" smooth="yes"/>
      <point x="1022" y="341"/>
      <point x="1071" y="262"/>
      <point x="1071" y="180" type="curve" smooth="yes"/>
      <point x="1071" y="44"/>
      <point x="965" y="-20"/>
      <point x="869" y="-20" type="curve" smooth="yes"/>
      <point x="794" y="-20"/>
      <point x="732" y="49"/>
    </contour>
  </outline>
</glyph>
<glyph name="fraction" format="1">
  <advance width="1026"/>
  <unicode hex="2044"/>
  <outline>
    <contour>
      <point x="99" y="0" type="line"/>
      <point x="780" y="1530" type="line"/>
      <point x="999" y="1530" type="line"/>
      <point x="318" y="0" type="line"/>
    </contour>
  </outline>
</glyph>
<glyph name="uni2113" format="1">
  <advance width="1214"/>
  <unicode hex="2113"/>
  <outline>
    <contour>
      <point x="20" y="128" type="line"/>
      <point x="108" y="192"/>
      <point x="189" y="260"/>
      <point x="262" y="329" type="curve"/>
      <point x="250" y="391"/>
      <point x="243" y="462"/>
      <point x="243" y="539" type="curve" smooth="yes"/>
      <point x="243" y="1104"/>
      <point x="509" y="1680"/>
      <point x="892" y="1680" type="curve" smooth="yes"/>
      <point x="1032" y="1680"/>
      <point x="1122" y="1570"/>
      <point x="1122" y="1413" type="curve" smooth="yes"/>
      <point x="1122" y="1077"/>
      <point x="856" y="629"/>
      <point x="495" y="274" type="curve"/>
      <point x="528" y="198"/>
      <point x="575" y="162"/>
      <point x="621" y="162" type="curve" smooth="yes"/>
      <point x="732" y="162"/>
      <point x="825" y="284"/>
      <point x="842" y="517" type="curve"/>
      <point x="1057" y="480" type="line"/>
      <point x="1036" y="186"/>
      <point x="875" y="-29"/>
      <point x="600" y="-29" type="curve" smooth="yes"/>
      <point x="491" y="-29"/>
      <point x="400" y="26"/>
      <point x="337" y="129" type="curve"/>
      <point x="283" y="83"/>
      <point x="228" y="40"/>
      <point x="172" y="0" type="curve"/>
    </contour>
    <contour>
      <point x="453" y="528" type="line"/>
      <point x="739" y="861"/>
      <point x="873" y="1198"/>
      <point x="873" y="1393" type="curve" smooth="yes"/>
      <point x="873" y="1416"/>
      <point x="857" y="1437"/>
      <point x="844" y="1437" type="curve" smooth="yes"/>
      <point x="672" y="1437"/>
      <point x="453" y="903"/>
      <point x="453" y="531" type="curve" smooth="yes"/>
    </contour>
  </outline>
</glyph>
